<?xml version="1.0" encoding="UTF-8" standalone="no"?>
<!DOCTYPE svg PUBLIC "-//W3C//DTD SVG 1.1//EN"
 "http://www.w3.org/Graphics/SVG/1.1/DTD/svg11.dtd">
<!-- Generated by graphviz version 2.30.1 (20201013.1554)
 -->
<!-- Title: snakemake_dag Pages: 1 -->
<svg width="475pt" height="980pt"
 viewBox="0.00 0.00 475.00 980.00" xmlns="http://www.w3.org/2000/svg" xmlns:xlink="http://www.w3.org/1999/xlink">
<g id="graph0" class="graph" transform="scale(1 1) rotate(0) translate(4 976)">
<title>snakemake_dag</title>
<polygon fill="white" stroke="white" points="-4,5 -4,-976 472,-976 472,5 -4,5"/>
<!-- 0 -->
<g id="node1" class="node"><title>0</title>
<path fill="none" stroke="#d88556" stroke-width="2" d="M176,-36C176,-36 146,-36 146,-36 140,-36 134,-30 134,-24 134,-24 134,-12 134,-12 134,-6 140,-0 146,-0 146,-0 176,-0 176,-0 182,-0 188,-6 188,-12 188,-12 188,-24 188,-24 188,-30 182,-36 176,-36"/>
<text text-anchor="middle" x="161" y="-15.5" font-family="sans" font-size="10.00">all</text>
</g>
<!-- 1 -->
<g id="node2" class="node"><title>1</title>
<path fill="none" stroke="#56d882" stroke-width="2" d="M225,-108C225,-108 97,-108 97,-108 91,-108 85,-102 85,-96 85,-96 85,-84 85,-84 85,-78 91,-72 97,-72 97,-72 225,-72 225,-72 231,-72 237,-78 237,-84 237,-84 237,-96 237,-96 237,-102 231,-108 225,-108"/>
<text text-anchor="middle" x="161" y="-87.5" font-family="sans" font-size="10.00">select_rename_fill_columns</text>
</g>
<!-- 1&#45;&gt;0 -->
<g id="edge1" class="edge"><title>1&#45;&gt;0</title>
<path fill="none" stroke="grey" stroke-width="2" d="M161,-71.6966C161,-63.9827 161,-54.7125 161,-46.1124"/>
<polygon fill="grey" stroke="grey" points="164.5,-46.1043 161,-36.1043 157.5,-46.1044 164.5,-46.1043"/>
</g>
<!-- 2 -->
<g id="node3" class="node"><title>2</title>
<path fill="none" stroke="#c6d856" stroke-width="2" d="M215,-180C215,-180 107,-180 107,-180 101,-180 95,-174 95,-168 95,-168 95,-156 95,-156 95,-150 101,-144 107,-144 107,-144 215,-144 215,-144 221,-144 227,-150 227,-156 227,-156 227,-168 227,-168 227,-174 221,-180 215,-180"/>
<text text-anchor="middle" x="161" y="-159.5" font-family="sans" font-size="10.00">filter_by_exon_distance</text>
</g>
<!-- 2&#45;&gt;1 -->
<g id="edge2" class="edge"><title>2&#45;&gt;1</title>
<path fill="none" stroke="grey" stroke-width="2" d="M161,-143.697C161,-135.983 161,-126.712 161,-118.112"/>
<polygon fill="grey" stroke="grey" points="164.5,-118.104 161,-108.104 157.5,-118.104 164.5,-118.104"/>
</g>
<!-- 3 -->
<g id="node4" class="node"><title>3</title>
<path fill="none" stroke="#80d856" stroke-width="2" d="M234,-252C234,-252 164,-252 164,-252 158,-252 152,-246 152,-240 152,-240 152,-228 152,-228 152,-222 158,-216 164,-216 164,-216 234,-216 234,-216 240,-216 246,-222 246,-228 246,-228 246,-240 246,-240 246,-246 240,-252 234,-252"/>
<text text-anchor="middle" x="199" y="-231.5" font-family="sans" font-size="10.00">add_protein_ids</text>
</g>
<!-- 3&#45;&gt;2 -->
<g id="edge4" class="edge"><title>3&#45;&gt;2</title>
<path fill="none" stroke="grey" stroke-width="2" d="M189.607,-215.697C185.235,-207.644 179.943,-197.894 175.105,-188.982"/>
<polygon fill="grey" stroke="grey" points="178.132,-187.223 170.285,-180.104 171.98,-190.563 178.132,-187.223"/>
</g>
<!-- 4 -->
<g id="node5" class="node"><title>4</title>
<path fill="none" stroke="#d86e56" stroke-width="2" d="M173,-324C173,-324 75,-324 75,-324 69,-324 63,-318 63,-312 63,-312 63,-300 63,-300 63,-294 69,-288 75,-288 75,-288 173,-288 173,-288 179,-288 185,-294 185,-300 185,-300 185,-312 185,-312 185,-318 179,-324 173,-324"/>
<text text-anchor="middle" x="124" y="-303.5" font-family="sans" font-size="10.00">create_protein_id_file</text>
</g>
<!-- 4&#45;&gt;2 -->
<g id="edge3" class="edge"><title>4&#45;&gt;2</title>
<path fill="none" stroke="grey" stroke-width="2" d="M127.054,-287.794C130.398,-269.761 136.201,-240.676 143,-216 145.386,-207.342 148.395,-198.027 151.266,-189.659"/>
<polygon fill="grey" stroke="grey" points="154.637,-190.623 154.65,-180.028 148.033,-188.303 154.637,-190.623"/>
</g>
<!-- 4&#45;&gt;3 -->
<g id="edge5" class="edge"><title>4&#45;&gt;3</title>
<path fill="none" stroke="grey" stroke-width="2" d="M142.539,-287.697C151.803,-279.05 163.162,-268.449 173.257,-259.027"/>
<polygon fill="grey" stroke="grey" points="175.751,-261.486 180.674,-252.104 170.975,-256.369 175.751,-261.486"/>
</g>
<!-- 5 -->
<g id="node6" class="node"><title>5</title>
<path fill="none" stroke="#56d8d8" stroke-width="2" d="M277,-324C277,-324 215,-324 215,-324 209,-324 203,-318 203,-312 203,-312 203,-300 203,-300 203,-294 209,-288 215,-288 215,-288 277,-288 277,-288 283,-288 289,-294 289,-300 289,-300 289,-312 289,-312 289,-318 283,-324 277,-324"/>
<text text-anchor="middle" x="246" y="-303.5" font-family="sans" font-size="10.00">calculate_MAF</text>
</g>
<!-- 5&#45;&gt;3 -->
<g id="edge6" class="edge"><title>5&#45;&gt;3</title>
<path fill="none" stroke="grey" stroke-width="2" d="M234.382,-287.697C228.861,-279.474 222.153,-269.483 216.068,-260.421"/>
<polygon fill="grey" stroke="grey" points="218.965,-258.456 210.484,-252.104 213.153,-262.358 218.965,-258.456"/>
</g>
<!-- 6 -->
<g id="node7" class="node"><title>6</title>
<path fill="none" stroke="#56d8c1" stroke-width="2" d="M301,-396C301,-396 191,-396 191,-396 185,-396 179,-390 179,-384 179,-384 179,-372 179,-372 179,-366 185,-360 191,-360 191,-360 301,-360 301,-360 307,-360 313,-366 313,-372 313,-372 313,-384 313,-384 313,-390 307,-396 301,-396"/>
<text text-anchor="middle" x="246" y="-375.5" font-family="sans" font-size="10.00">merge_allele_frequency</text>
</g>
<!-- 6&#45;&gt;5 -->
<g id="edge7" class="edge"><title>6&#45;&gt;5</title>
<path fill="none" stroke="grey" stroke-width="2" d="M246,-359.697C246,-351.983 246,-342.712 246,-334.112"/>
<polygon fill="grey" stroke="grey" points="249.5,-334.104 246,-324.104 242.5,-334.104 249.5,-334.104"/>
</g>
<!-- 7 -->
<g id="node8" class="node"><title>7</title>
<path fill="none" stroke="#569ad8" stroke-width="2" d="M229.25,-468C229.25,-468 106.75,-468 106.75,-468 100.75,-468 94.75,-462 94.75,-456 94.75,-456 94.75,-444 94.75,-444 94.75,-438 100.75,-432 106.75,-432 106.75,-432 229.25,-432 229.25,-432 235.25,-432 241.25,-438 241.25,-444 241.25,-444 241.25,-456 241.25,-456 241.25,-462 235.25,-468 229.25,-468"/>
<text text-anchor="middle" x="168" y="-447.5" font-family="sans" font-size="10.00">calculate_allele_frequency</text>
</g>
<!-- 7&#45;&gt;6 -->
<g id="edge8" class="edge"><title>7&#45;&gt;6</title>
<path fill="none" stroke="grey" stroke-width="2" d="M187.281,-431.697C196.915,-423.05 208.729,-412.449 219.227,-403.027"/>
<polygon fill="grey" stroke="grey" points="221.836,-405.388 226.941,-396.104 217.161,-400.179 221.836,-405.388"/>
</g>
<!-- 8 -->
<g id="node9" class="node"><title>8</title>
<path fill="none" stroke="#566bd8" stroke-width="2" d="M378.25,-468C378.25,-468 271.75,-468 271.75,-468 265.75,-468 259.75,-462 259.75,-456 259.75,-456 259.75,-444 259.75,-444 259.75,-438 265.75,-432 271.75,-432 271.75,-432 378.25,-432 378.25,-432 384.25,-432 390.25,-438 390.25,-444 390.25,-444 390.25,-456 390.25,-456 390.25,-462 384.25,-468 378.25,-468"/>
<text text-anchor="middle" x="325" y="-447.5" font-family="sans" font-size="10.00">merge_absplice_scores</text>
</g>
<!-- 8&#45;&gt;6 -->
<g id="edge9" class="edge"><title>8&#45;&gt;6</title>
<path fill="none" stroke="grey" stroke-width="2" d="M305.472,-431.697C295.618,-422.965 283.514,-412.24 272.804,-402.75"/>
<polygon fill="grey" stroke="grey" points="275.109,-400.117 265.303,-396.104 270.467,-405.356 275.109,-400.117"/>
</g>
<!-- 9 -->
<g id="node10" class="node"><title>9</title>
<path fill="none" stroke="#afd856" stroke-width="2" d="M438.25,-540C438.25,-540 313.75,-540 313.75,-540 307.75,-540 301.75,-534 301.75,-528 301.75,-528 301.75,-516 301.75,-516 301.75,-510 307.75,-504 313.75,-504 313.75,-504 438.25,-504 438.25,-504 444.25,-504 450.25,-510 450.25,-516 450.25,-516 450.25,-528 450.25,-528 450.25,-534 444.25,-540 438.25,-540"/>
<text text-anchor="middle" x="376" y="-519.5" font-family="sans" font-size="10.00">aggregate_absplice_scores</text>
</g>
<!-- 9&#45;&gt;8 -->
<g id="edge10" class="edge"><title>9&#45;&gt;8</title>
<path fill="none" stroke="grey" stroke-width="2" d="M363.393,-503.697C357.403,-495.474 350.124,-485.483 343.521,-476.421"/>
<polygon fill="grey" stroke="grey" points="346.179,-474.126 337.462,-468.104 340.522,-478.248 346.179,-474.126"/>
</g>
<!-- 10 -->
<g id="node11" class="node"><title>10</title>
<path fill="none" stroke="#56d86b" stroke-width="2" d="M373,-612C373,-612 275,-612 275,-612 269,-612 263,-606 263,-600 263,-600 263,-588 263,-588 263,-582 269,-576 275,-576 275,-576 373,-576 373,-576 379,-576 385,-582 385,-588 385,-588 385,-600 385,-600 385,-606 379,-612 373,-612"/>
<text text-anchor="middle" x="324" y="-591.5" font-family="sans" font-size="10.00">merge_deepsea_pcas</text>
</g>
<!-- 10&#45;&gt;8 -->
<g id="edge11" class="edge"><title>10&#45;&gt;8</title>
<path fill="none" stroke="grey" stroke-width="2" d="M310.854,-575.908C304.077,-566.006 296.513,-552.964 293,-540 288.815,-524.557 288.708,-519.414 293,-504 295.668,-494.419 300.588,-484.84 305.784,-476.513"/>
<polygon fill="grey" stroke="grey" points="308.805,-478.291 311.436,-468.028 302.979,-474.41 308.805,-478.291"/>
</g>
<!-- 10&#45;&gt;9 -->
<g id="edge12" class="edge"><title>10&#45;&gt;9</title>
<path fill="none" stroke="grey" stroke-width="2" d="M336.854,-575.697C343.025,-567.389 350.537,-557.277 357.324,-548.141"/>
<polygon fill="grey" stroke="grey" points="360.14,-550.219 363.294,-540.104 354.521,-546.045 360.14,-550.219"/>
</g>
<!-- 11 -->
<g id="node12" class="node"><title>11</title>
<path fill="none" stroke="#59d856" stroke-width="2" d="M307,-684C307,-684 219,-684 219,-684 213,-684 207,-678 207,-672 207,-672 207,-660 207,-660 207,-654 213,-648 219,-648 219,-648 307,-648 307,-648 313,-648 319,-654 319,-660 319,-660 319,-672 319,-672 319,-678 313,-684 307,-684"/>
<text text-anchor="middle" x="263" y="-663.5" font-family="sans" font-size="10.00">concat_annotations</text>
</g>
<!-- 11&#45;&gt;10 -->
<g id="edge14" class="edge"><title>11&#45;&gt;10</title>
<path fill="none" stroke="grey" stroke-width="2" d="M278.079,-647.697C285.392,-639.305 294.31,-629.07 302.335,-619.861"/>
<polygon fill="grey" stroke="grey" points="305.164,-621.943 309.095,-612.104 299.886,-617.344 305.164,-621.943"/>
</g>
<!-- 12 -->
<g id="node13" class="node"><title>12</title>
<path fill="none" stroke="#d6d856" stroke-width="2" d="M294.25,-756C294.25,-756 207.75,-756 207.75,-756 201.75,-756 195.75,-750 195.75,-744 195.75,-744 195.75,-732 195.75,-732 195.75,-726 201.75,-720 207.75,-720 207.75,-720 294.25,-720 294.25,-720 300.25,-720 306.25,-726 306.25,-732 306.25,-732 306.25,-744 306.25,-744 306.25,-750 300.25,-756 294.25,-756"/>
<text text-anchor="middle" x="251" y="-735.5" font-family="sans" font-size="10.00">merge_annotations</text>
</g>
<!-- 12&#45;&gt;11 -->
<g id="edge15" class="edge"><title>12&#45;&gt;11</title>
<path fill="none" stroke="grey" stroke-width="2" d="M253.966,-719.697C255.289,-711.983 256.878,-702.712 258.352,-694.112"/>
<polygon fill="grey" stroke="grey" points="261.828,-694.552 260.068,-684.104 254.928,-693.369 261.828,-694.552"/>
</g>
<!-- 13 -->
<g id="node14" class="node"><title>13</title>
<path fill="none" stroke="#5682d8" stroke-width="2" d="M47,-828C47,-828 17,-828 17,-828 11,-828 5,-822 5,-816 5,-816 5,-804 5,-804 5,-798 11,-792 17,-792 17,-792 47,-792 47,-792 53,-792 59,-798 59,-804 59,-804 59,-816 59,-816 59,-822 53,-828 47,-828"/>
<text text-anchor="middle" x="32" y="-807.5" font-family="sans" font-size="10.00">vep</text>
</g>
<!-- 13&#45;&gt;12 -->
<g id="edge16" class="edge"><title>13&#45;&gt;12</title>
<path fill="none" stroke="grey" stroke-width="2" d="M59.3228,-795.547C62.2252,-794.284 65.1554,-793.076 68,-792 106.319,-777.509 150.395,-764.634 185.688,-755.203"/>
<polygon fill="grey" stroke="grey" points="186.624,-758.576 195.397,-752.636 184.835,-751.809 186.624,-758.576"/>
</g>
<!-- 14 -->
<g id="node15" class="node"><title>14</title>
<path fill="none" stroke="#d85656" stroke-width="2" d="M80,-900C80,-900 12,-900 12,-900 6,-900 0,-894 0,-888 0,-888 0,-876 0,-876 0,-870 6,-864 12,-864 12,-864 80,-864 80,-864 86,-864 92,-870 92,-876 92,-876 92,-888 92,-888 92,-894 86,-900 80,-900"/>
<text text-anchor="middle" x="46" y="-879.5" font-family="sans" font-size="10.00">strip_chr_name</text>
</g>
<!-- 14&#45;&gt;13 -->
<g id="edge20" class="edge"><title>14&#45;&gt;13</title>
<path fill="none" stroke="grey" stroke-width="2" d="M42.5393,-863.697C40.9965,-855.983 39.1425,-846.712 37.4225,-838.112"/>
<polygon fill="grey" stroke="grey" points="40.8141,-837.224 35.4209,-828.104 33.9501,-838.597 40.8141,-837.224"/>
</g>
<!-- 15 -->
<g id="node16" class="node"><title>15</title>
<path fill="none" stroke="#d89556" stroke-width="2" d="M193,-972C193,-972 121,-972 121,-972 115,-972 109,-966 109,-960 109,-960 109,-948 109,-948 109,-942 115,-936 121,-936 121,-936 193,-936 193,-936 199,-936 205,-942 205,-948 205,-948 205,-960 205,-960 205,-966 199,-972 193,-972"/>
<text text-anchor="middle" x="157" y="-951.5" font-family="sans" font-size="10.00">extract_variants</text>
</g>
<!-- 15&#45;&gt;14 -->
<g id="edge21" class="edge"><title>15&#45;&gt;14</title>
<path fill="none" stroke="grey" stroke-width="2" d="M129.846,-935.876C115.467,-926.808 97.6187,-915.552 82.0895,-905.759"/>
<polygon fill="grey" stroke="grey" points="83.5835,-902.564 73.258,-900.19 79.8496,-908.484 83.5835,-902.564"/>
</g>
<!-- 16 -->
<g id="node17" class="node"><title>16</title>
<path fill="none" stroke="#56d8a9" stroke-width="2" d="M166.25,-828C166.25,-828 89.75,-828 89.75,-828 83.75,-828 77.75,-822 77.75,-816 77.75,-816 77.75,-804 77.75,-804 77.75,-798 83.75,-792 89.75,-792 89.75,-792 166.25,-792 166.25,-792 172.25,-792 178.25,-798 178.25,-804 178.25,-804 178.25,-816 178.25,-816 178.25,-822 172.25,-828 166.25,-828"/>
<text text-anchor="middle" x="128" y="-807.5" font-family="sans" font-size="10.00">deepRiPe_parclip</text>
</g>
<!-- 15&#45;&gt;16 -->
<g id="edge22" class="edge"><title>15&#45;&gt;16</title>
<path fill="none" stroke="grey" stroke-width="2" d="M153.502,-935.871C148.538,-911.564 139.4,-866.819 133.517,-838.013"/>
<polygon fill="grey" stroke="grey" points="136.941,-837.287 131.51,-828.189 130.082,-838.687 136.941,-837.287"/>
</g>
<!-- 17 -->
<g id="node18" class="node"><title>17</title>
<path fill="none" stroke="#56d89a" stroke-width="2" d="M293,-828C293,-828 209,-828 209,-828 203,-828 197,-822 197,-816 197,-816 197,-804 197,-804 197,-798 203,-792 209,-792 209,-792 293,-792 293,-792 299,-792 305,-798 305,-804 305,-804 305,-816 305,-816 305,-822 299,-828 293,-828"/>
<text text-anchor="middle" x="251" y="-807.5" font-family="sans" font-size="10.00">deepRiPe_eclip_k5</text>
</g>
<!-- 15&#45;&gt;17 -->
<g id="edge23" class="edge"><title>15&#45;&gt;17</title>
<path fill="none" stroke="grey" stroke-width="2" d="M168.339,-935.871C184.641,-911.244 214.831,-865.638 233.865,-836.885"/>
<polygon fill="grey" stroke="grey" points="237.02,-838.46 239.621,-828.189 231.183,-834.596 237.02,-838.46"/>
</g>
<!-- 18 -->
<g id="node19" class="node"><title>18</title>
<path fill="none" stroke="#d8ac56" stroke-width="2" d="M336,-900C336,-900 246,-900 246,-900 240,-900 234,-894 234,-888 234,-888 234,-876 234,-876 234,-870 240,-864 246,-864 246,-864 336,-864 336,-864 342,-864 348,-870 348,-876 348,-876 348,-888 348,-888 348,-894 342,-900 336,-900"/>
<text text-anchor="middle" x="291" y="-879.5" font-family="sans" font-size="10.00">deepRiPe_eclip_hg2</text>
</g>
<!-- 15&#45;&gt;18 -->
<g id="edge24" class="edge"><title>15&#45;&gt;18</title>
<path fill="none" stroke="grey" stroke-width="2" d="M189.78,-935.876C207.625,-926.554 229.897,-914.919 249.003,-904.939"/>
<polygon fill="grey" stroke="grey" points="250.851,-907.922 258.094,-900.19 247.61,-901.718 250.851,-907.922"/>
</g>
<!-- 16&#45;&gt;12 -->
<g id="edge19" class="edge"><title>16&#45;&gt;12</title>
<path fill="none" stroke="grey" stroke-width="2" d="M158.089,-791.876C174.32,-782.639 194.542,-771.131 211.971,-761.212"/>
<polygon fill="grey" stroke="grey" points="213.835,-764.178 220.795,-756.19 210.373,-758.094 213.835,-764.178"/>
</g>
<!-- 17&#45;&gt;12 -->
<g id="edge17" class="edge"><title>17&#45;&gt;12</title>
<path fill="none" stroke="grey" stroke-width="2" d="M251,-791.697C251,-783.983 251,-774.712 251,-766.112"/>
<polygon fill="grey" stroke="grey" points="254.5,-766.104 251,-756.104 247.5,-766.104 254.5,-766.104"/>
</g>
<!-- 18&#45;&gt;12 -->
<g id="edge18" class="edge"><title>18&#45;&gt;12</title>
<path fill="none" stroke="grey" stroke-width="2" d="M302.056,-863.972C312.5,-845.58 325.046,-815.728 314,-792 308.574,-780.344 299.182,-770.336 289.282,-762.256"/>
<polygon fill="grey" stroke="grey" points="291.381,-759.455 281.3,-756.195 287.148,-765.03 291.381,-759.455"/>
</g>
<!-- 19 -->
<g id="node20" class="node"><title>19</title>
<path fill="none" stroke="#97d856" stroke-width="2" d="M414.25,-684C414.25,-684 355.75,-684 355.75,-684 349.75,-684 343.75,-678 343.75,-672 343.75,-672 343.75,-660 343.75,-660 343.75,-654 349.75,-648 355.75,-648 355.75,-648 414.25,-648 414.25,-648 420.25,-648 426.25,-654 426.25,-660 426.25,-660 426.25,-672 426.25,-672 426.25,-678 420.25,-684 414.25,-684"/>
<text text-anchor="middle" x="385" y="-663.5" font-family="sans" font-size="10.00">deepSea_PCA</text>
</g>
<!-- 19&#45;&gt;10 -->
<g id="edge13" class="edge"><title>19&#45;&gt;10</title>
<path fill="none" stroke="grey" stroke-width="2" d="M369.921,-647.697C362.608,-639.305 353.69,-629.07 345.665,-619.861"/>
<polygon fill="grey" stroke="grey" points="348.114,-617.344 338.905,-612.104 342.836,-621.943 348.114,-617.344"/>
</g>
<!-- 20 -->
<g id="node21" class="node"><title>20</title>
<path fill="none" stroke="#68d856" stroke-width="2" d="M430.25,-756C430.25,-756 353.75,-756 353.75,-756 347.75,-756 341.75,-750 341.75,-744 341.75,-744 341.75,-732 341.75,-732 341.75,-726 347.75,-720 353.75,-720 353.75,-720 430.25,-720 430.25,-720 436.25,-720 442.25,-726 442.25,-732 442.25,-732 442.25,-744 442.25,-744 442.25,-750 436.25,-756 430.25,-756"/>
<text text-anchor="middle" x="392" y="-735.5" font-family="sans" font-size="10.00">add_ids_deepSea</text>
</g>
<!-- 20&#45;&gt;19 -->
<g id="edge25" class="edge"><title>20&#45;&gt;19</title>
<path fill="none" stroke="grey" stroke-width="2" d="M390.27,-719.697C389.498,-711.983 388.571,-702.712 387.711,-694.112"/>
<polygon fill="grey" stroke="grey" points="391.188,-693.706 386.71,-684.104 384.223,-694.403 391.188,-693.706"/>
</g>
<!-- 21 -->
<g id="node22" class="node"><title>21</title>
<path fill="none" stroke="#d8c356" stroke-width="2" d="M445,-828C445,-828 373,-828 373,-828 367,-828 361,-822 361,-816 361,-816 361,-804 361,-804 361,-798 367,-792 373,-792 373,-792 445,-792 445,-792 451,-792 457,-798 457,-804 457,-804 457,-816 457,-816 457,-822 451,-828 445,-828"/>
<text text-anchor="middle" x="409" y="-807.5" font-family="sans" font-size="10.00">concat_deepSea</text>
</g>
<!-- 21&#45;&gt;20 -->
<g id="edge26" class="edge"><title>21&#45;&gt;20</title>
<path fill="none" stroke="grey" stroke-width="2" d="M404.798,-791.697C402.904,-783.898 400.623,-774.509 398.516,-765.829"/>
<polygon fill="grey" stroke="grey" points="401.915,-764.996 396.154,-756.104 395.113,-766.648 401.915,-764.996"/>
</g>
<!-- 22 -->
<g id="node23" class="node"><title>22</title>
<path fill="none" stroke="#56c1d8" stroke-width="2" d="M426.25,-900C426.25,-900 391.75,-900 391.75,-900 385.75,-900 379.75,-894 379.75,-888 379.75,-888 379.75,-876 379.75,-876 379.75,-870 385.75,-864 391.75,-864 391.75,-864 426.25,-864 426.25,-864 432.25,-864 438.25,-870 438.25,-876 438.25,-876 438.25,-888 438.25,-888 438.25,-894 432.25,-900 426.25,-900"/>
<text text-anchor="middle" x="409" y="-879.5" font-family="sans" font-size="10.00">deepSea</text>
</g>
<!-- 22&#45;&gt;21 -->
<g id="edge27" class="edge"><title>22&#45;&gt;21</title>
<path fill="none" stroke="grey" stroke-width="2" d="M409,-863.697C409,-855.983 409,-846.712 409,-838.112"/>
<polygon fill="grey" stroke="grey" points="412.5,-838.104 409,-828.104 405.5,-838.104 412.5,-838.104"/>
</g>
<!-- 23 -->
<g id="node24" class="node"><title>23</title>
<path fill="none" stroke="#56a9d8" stroke-width="2" d="M455,-972C455,-972 363,-972 363,-972 357,-972 351,-966 351,-960 351,-960 351,-948 351,-948 351,-942 357,-936 363,-936 363,-936 455,-936 455,-936 461,-936 467,-942 467,-948 467,-948 467,-960 467,-960 467,-966 461,-972 455,-972"/>
<text text-anchor="middle" x="409" y="-951.5" font-family="sans" font-size="10.00">extract_with_header</text>
</g>
<!-- 23&#45;&gt;22 -->
<g id="edge28" class="edge"><title>23&#45;&gt;22</title>
<path fill="none" stroke="grey" stroke-width="2" d="M409,-935.697C409,-927.983 409,-918.712 409,-910.112"/>
<polygon fill="grey" stroke="grey" points="412.5,-910.104 409,-900.104 405.5,-910.104 412.5,-910.104"/>
</g>
</g>
</svg>
