<?xml version="1.0" encoding="UTF-8" standalone="no"?>
<!DOCTYPE svg PUBLIC "-//W3C//DTD SVG 1.1//EN"
 "http://www.w3.org/Graphics/SVG/1.1/DTD/svg11.dtd">
<!-- Generated by graphviz version 11.0.0 (20240428.1522)
 -->
<!-- Title: snakemake_dag Pages: 1 -->
<svg width="842pt" height="980pt"
 viewBox="0.00 0.00 842.40 980.00" xmlns="http://www.w3.org/2000/svg" xmlns:xlink="http://www.w3.org/1999/xlink">
<g id="graph0" class="graph" transform="scale(1 1) rotate(0) translate(4 976)">
<title>snakemake_dag</title>
<polygon fill="white" stroke="none" points="-4,4 -4,-976 838.4,-976 838.4,4 -4,4"/>
<!-- 0 -->
<g id="node1" class="node">
<title>0</title>
<path fill="none" stroke="#56d863" stroke-width="2" d="M395,-36C395,-36 365,-36 365,-36 359,-36 353,-30 353,-24 353,-24 353,-12 353,-12 353,-6 359,0 365,0 365,0 395,0 395,0 401,0 407,-6 407,-12 407,-12 407,-24 407,-24 407,-30 401,-36 395,-36"/>
<text text-anchor="middle" x="380" y="-14.12" font-family="sans" font-size="10.00">all</text>
</g>
<!-- 1 -->
<g id="node2" class="node">
<title>1</title>
<path fill="none" stroke="#56d88a" stroke-width="2" d="M436.38,-108C436.38,-108 323.62,-108 323.62,-108 317.62,-108 311.62,-102 311.62,-96 311.62,-96 311.62,-84 311.62,-84 311.62,-78 317.62,-72 323.62,-72 323.62,-72 436.38,-72 436.38,-72 442.38,-72 448.38,-78 448.38,-84 448.38,-84 448.38,-96 448.38,-96 448.38,-102 442.38,-108 436.38,-108"/>
<text text-anchor="middle" x="380" y="-86.12" font-family="sans" font-size="10.00">select_rename_fill_columns</text>
</g>
<!-- 1&#45;&gt;0 -->
<g id="edge1" class="edge">
<title>1&#45;&gt;0</title>
<path fill="none" stroke="grey" stroke-width="2" d="M380,-71.34C380,-64.75 380,-57.08 380,-49.67"/>
<polygon fill="grey" stroke="grey" stroke-width="2" points="383.5,-49.93 380,-39.93 376.5,-49.93 383.5,-49.93"/>
</g>
<!-- 2 -->
<g id="node3" class="node">
<title>2</title>
<path fill="none" stroke="#88d856" stroke-width="2" d="M427.38,-180C427.38,-180 332.62,-180 332.62,-180 326.62,-180 320.62,-174 320.62,-168 320.62,-168 320.62,-156 320.62,-156 320.62,-150 326.62,-144 332.62,-144 332.62,-144 427.38,-144 427.38,-144 433.38,-144 439.38,-150 439.38,-156 439.38,-156 439.38,-168 439.38,-168 439.38,-174 433.38,-180 427.38,-180"/>
<text text-anchor="middle" x="380" y="-158.12" font-family="sans" font-size="10.00">filter_by_exon_distance</text>
</g>
<!-- 2&#45;&gt;1 -->
<g id="edge2" class="edge">
<title>2&#45;&gt;1</title>
<path fill="none" stroke="grey" stroke-width="2" d="M380,-143.34C380,-136.75 380,-129.08 380,-121.67"/>
<polygon fill="grey" stroke="grey" stroke-width="2" points="383.5,-121.93 380,-111.93 376.5,-121.93 383.5,-121.93"/>
</g>
<!-- 3 -->
<g id="node4" class="node">
<title>3</title>
<path fill="none" stroke="#59d856" stroke-width="2" d="M373,-252C373,-252 321,-252 321,-252 315,-252 309,-246 309,-240 309,-240 309,-228 309,-228 309,-222 315,-216 321,-216 321,-216 373,-216 373,-216 379,-216 385,-222 385,-228 385,-228 385,-240 385,-240 385,-246 379,-252 373,-252"/>
<text text-anchor="middle" x="347" y="-230.12" font-family="sans" font-size="10.00">add_gene_ids</text>
</g>
<!-- 3&#45;&gt;2 -->
<g id="edge3" class="edge">
<title>3&#45;&gt;2</title>
<path fill="none" stroke="grey" stroke-width="2" d="M355.33,-215.34C358.59,-208.43 362.41,-200.31 366.07,-192.56"/>
<polygon fill="grey" stroke="grey" stroke-width="2" points="369.17,-194.18 370.27,-183.64 362.84,-191.19 369.17,-194.18"/>
</g>
<!-- 4 -->
<g id="node5" class="node">
<title>4</title>
<path fill="none" stroke="#d87556" stroke-width="2" d="M451,-324C451,-324 375,-324 375,-324 369,-324 363,-318 363,-312 363,-312 363,-300 363,-300 363,-294 369,-288 375,-288 375,-288 451,-288 451,-288 457,-288 463,-294 463,-300 463,-300 463,-312 463,-312 463,-318 457,-324 451,-324"/>
<text text-anchor="middle" x="413" y="-302.12" font-family="sans" font-size="10.00">create_gene_id_file</text>
</g>
<!-- 4&#45;&gt;2 -->
<g id="edge4" class="edge">
<title>4&#45;&gt;2</title>
<path fill="none" stroke="grey" stroke-width="2" d="M409.46,-287.21C405.82,-269.21 399.87,-240.59 394,-216 392.21,-208.5 390.15,-200.44 388.17,-192.93"/>
<polygon fill="grey" stroke="grey" stroke-width="2" points="391.63,-192.29 385.66,-183.54 384.86,-194.1 391.63,-192.29"/>
</g>
<!-- 4&#45;&gt;3 -->
<g id="edge6" class="edge">
<title>4&#45;&gt;3</title>
<path fill="none" stroke="grey" stroke-width="2" d="M396.35,-287.34C389.21,-279.77 380.71,-270.75 372.79,-262.35"/>
<polygon fill="grey" stroke="grey" stroke-width="2" points="375.36,-259.98 365.96,-255.1 370.27,-264.78 375.36,-259.98"/>
</g>
<!-- 5 -->
<g id="node6" class="node">
<title>5</title>
<path fill="none" stroke="#56a9d8" stroke-width="2" d="M332.62,-324C332.62,-324 275.38,-324 275.38,-324 269.38,-324 263.38,-318 263.38,-312 263.38,-312 263.38,-300 263.38,-300 263.38,-294 269.38,-288 275.38,-288 275.38,-288 332.62,-288 332.62,-288 338.62,-288 344.62,-294 344.62,-300 344.62,-300 344.62,-312 344.62,-312 344.62,-318 338.62,-324 332.62,-324"/>
<text text-anchor="middle" x="304" y="-302.12" font-family="sans" font-size="10.00">calculate_MAF</text>
</g>
<!-- 5&#45;&gt;3 -->
<g id="edge5" class="edge">
<title>5&#45;&gt;3</title>
<path fill="none" stroke="grey" stroke-width="2" d="M314.85,-287.34C319.25,-280.18 324.44,-271.73 329.35,-263.73"/>
<polygon fill="grey" stroke="grey" stroke-width="2" points="332.17,-265.83 334.42,-255.48 326.2,-262.17 332.17,-265.83"/>
</g>
<!-- 6 -->
<g id="node7" class="node">
<title>6</title>
<path fill="none" stroke="#c6d856" stroke-width="2" d="M351.38,-396C351.38,-396 256.62,-396 256.62,-396 250.62,-396 244.62,-390 244.62,-384 244.62,-384 244.62,-372 244.62,-372 244.62,-366 250.62,-360 256.62,-360 256.62,-360 351.38,-360 351.38,-360 357.38,-360 363.38,-366 363.38,-372 363.38,-372 363.38,-384 363.38,-384 363.38,-390 357.38,-396 351.38,-396"/>
<text text-anchor="middle" x="304" y="-374.12" font-family="sans" font-size="10.00">merge_allele_frequency</text>
</g>
<!-- 6&#45;&gt;5 -->
<g id="edge7" class="edge">
<title>6&#45;&gt;5</title>
<path fill="none" stroke="grey" stroke-width="2" d="M304,-359.34C304,-352.75 304,-345.08 304,-337.67"/>
<polygon fill="grey" stroke="grey" stroke-width="2" points="307.5,-337.93 304,-327.93 300.5,-337.93 307.5,-337.93"/>
</g>
<!-- 7 -->
<g id="node8" class="node">
<title>7</title>
<path fill="none" stroke="#56d8a9" stroke-width="2" d="M286.38,-468C286.38,-468 179.62,-468 179.62,-468 173.62,-468 167.62,-462 167.62,-456 167.62,-456 167.62,-444 167.62,-444 167.62,-438 173.62,-432 179.62,-432 179.62,-432 286.38,-432 286.38,-432 292.38,-432 298.38,-438 298.38,-444 298.38,-444 298.38,-456 298.38,-456 298.38,-462 292.38,-468 286.38,-468"/>
<text text-anchor="middle" x="233" y="-446.12" font-family="sans" font-size="10.00">calculate_allele_frequency</text>
</g>
<!-- 7&#45;&gt;6 -->
<g id="edge9" class="edge">
<title>7&#45;&gt;6</title>
<path fill="none" stroke="grey" stroke-width="2" d="M250.92,-431.34C258.76,-423.6 268.14,-414.36 276.81,-405.81"/>
<polygon fill="grey" stroke="grey" stroke-width="2" points="279.02,-408.54 283.69,-399.03 274.11,-403.56 279.02,-408.54"/>
</g>
<!-- 8 -->
<g id="node9" class="node">
<title>8</title>
<path fill="none" stroke="#97d856" stroke-width="2" d="M423.38,-468C423.38,-468 328.62,-468 328.62,-468 322.62,-468 316.62,-462 316.62,-456 316.62,-456 316.62,-444 316.62,-444 316.62,-438 322.62,-432 328.62,-432 328.62,-432 423.38,-432 423.38,-432 429.38,-432 435.38,-438 435.38,-444 435.38,-444 435.38,-456 435.38,-456 435.38,-462 429.38,-468 423.38,-468"/>
<text text-anchor="middle" x="376" y="-446.12" font-family="sans" font-size="10.00">merge_absplice_scores</text>
</g>
<!-- 8&#45;&gt;6 -->
<g id="edge8" class="edge">
<title>8&#45;&gt;6</title>
<path fill="none" stroke="grey" stroke-width="2" d="M357.83,-431.34C349.88,-423.6 340.37,-414.36 331.57,-405.81"/>
<polygon fill="grey" stroke="grey" stroke-width="2" points="334.19,-403.47 324.58,-399.01 329.31,-408.49 334.19,-403.47"/>
</g>
<!-- 9 -->
<g id="node10" class="node">
<title>9</title>
<path fill="none" stroke="#d6d856" stroke-width="2" d="M383.25,-540C383.25,-540 272.75,-540 272.75,-540 266.75,-540 260.75,-534 260.75,-528 260.75,-528 260.75,-516 260.75,-516 260.75,-510 266.75,-504 272.75,-504 272.75,-504 383.25,-504 383.25,-504 389.25,-504 395.25,-510 395.25,-516 395.25,-516 395.25,-528 395.25,-528 395.25,-534 389.25,-540 383.25,-540"/>
<text text-anchor="middle" x="328" y="-518.12" font-family="sans" font-size="10.00">aggregate_absplice_scores</text>
</g>
<!-- 9&#45;&gt;8 -->
<g id="edge11" class="edge">
<title>9&#45;&gt;8</title>
<path fill="none" stroke="grey" stroke-width="2" d="M340.11,-503.34C345.08,-496.1 350.95,-487.53 356.49,-479.45"/>
<polygon fill="grey" stroke="grey" stroke-width="2" points="359.24,-481.62 362.01,-471.4 353.47,-477.67 359.24,-481.62"/>
</g>
<!-- 10 -->
<g id="node11" class="node">
<title>10</title>
<path fill="none" stroke="#5663d8" stroke-width="2" d="M339.5,-828C339.5,-828 290.5,-828 290.5,-828 284.5,-828 278.5,-822 278.5,-816 278.5,-816 278.5,-804 278.5,-804 278.5,-798 284.5,-792 290.5,-792 290.5,-792 339.5,-792 339.5,-792 345.5,-792 351.5,-798 351.5,-804 351.5,-804 351.5,-816 351.5,-816 351.5,-822 345.5,-828 339.5,-828"/>
<text text-anchor="middle" x="315" y="-806.12" font-family="sans" font-size="10.00">absplice_dna</text>
</g>
<!-- 10&#45;&gt;9 -->
<g id="edge12" class="edge">
<title>10&#45;&gt;9</title>
<path fill="none" stroke="grey" stroke-width="2" d="M315.81,-791.11C317.97,-743.56 323.88,-613.6 326.6,-553.83"/>
<polygon fill="grey" stroke="grey" stroke-width="2" points="330.09,-554.06 327.05,-543.91 323.1,-553.74 330.09,-554.06"/>
</g>
<!-- 11 -->
<g id="node12" class="node">
<title>11</title>
<path fill="none" stroke="#56d8b9" stroke-width="2" d="M244.75,-900C244.75,-900 161.25,-900 161.25,-900 155.25,-900 149.25,-894 149.25,-888 149.25,-888 149.25,-876 149.25,-876 149.25,-870 155.25,-864 161.25,-864 161.25,-864 244.75,-864 244.75,-864 250.75,-864 256.75,-870 256.75,-876 256.75,-876 256.75,-888 256.75,-888 256.75,-894 250.75,-900 244.75,-900"/>
<text text-anchor="middle" x="203" y="-878.12" font-family="sans" font-size="10.00">mmsplice_splicemap</text>
</g>
<!-- 11&#45;&gt;10 -->
<g id="edge15" class="edge">
<title>11&#45;&gt;10</title>
<path fill="none" stroke="grey" stroke-width="2" d="M231.55,-863.15C244.98,-854.76 261.21,-844.62 275.76,-835.52"/>
<polygon fill="grey" stroke="grey" stroke-width="2" points="277.31,-838.68 283.93,-830.42 273.6,-832.75 277.31,-838.68"/>
</g>
<!-- 12 -->
<g id="node13" class="node">
<title>12</title>
<path fill="none" stroke="#d89556" stroke-width="2" d="M472.88,-972C472.88,-972 393.12,-972 393.12,-972 387.12,-972 381.12,-966 381.12,-960 381.12,-960 381.12,-948 381.12,-948 381.12,-942 387.12,-936 393.12,-936 393.12,-936 472.88,-936 472.88,-936 478.88,-936 484.88,-942 484.88,-948 484.88,-948 484.88,-960 484.88,-960 484.88,-966 478.88,-972 472.88,-972"/>
<text text-anchor="middle" x="433" y="-950.12" font-family="sans" font-size="10.00">extract_with_header</text>
</g>
<!-- 12&#45;&gt;11 -->
<g id="edge17" class="edge">
<title>12&#45;&gt;11</title>
<path fill="none" stroke="grey" stroke-width="2" d="M380.23,-936.94C347.37,-926.94 304.81,-913.98 269.63,-903.28"/>
<polygon fill="grey" stroke="grey" stroke-width="2" points="271,-900.04 260.42,-900.47 268.96,-906.73 271,-900.04"/>
</g>
<!-- 15 -->
<g id="node16" class="node">
<title>15</title>
<path fill="none" stroke="#d8a456" stroke-width="2" d="M330,-900C330,-900 300,-900 300,-900 294,-900 288,-894 288,-888 288,-888 288,-876 288,-876 288,-870 294,-864 300,-864 300,-864 330,-864 330,-864 336,-864 342,-870 342,-876 342,-876 342,-888 342,-888 342,-894 336,-900 330,-900"/>
<text text-anchor="middle" x="315" y="-878.12" font-family="sans" font-size="10.00">spliceai</text>
</g>
<!-- 12&#45;&gt;15 -->
<g id="edge20" class="edge">
<title>12&#45;&gt;15</title>
<path fill="none" stroke="grey" stroke-width="2" d="M402.92,-935.15C387.97,-926.29 369.74,-915.47 353.76,-905.99"/>
<polygon fill="grey" stroke="grey" stroke-width="2" points="355.59,-903.01 345.2,-900.92 352.02,-909.03 355.59,-903.01"/>
</g>
<!-- 29 -->
<g id="node30" class="node">
<title>29</title>
<path fill="none" stroke="#56d8d8" stroke-width="2" d="M443.12,-900C443.12,-900 412.88,-900 412.88,-900 406.88,-900 400.88,-894 400.88,-888 400.88,-888 400.88,-876 400.88,-876 400.88,-870 406.88,-864 412.88,-864 412.88,-864 443.12,-864 443.12,-864 449.12,-864 455.12,-870 455.12,-876 455.12,-876 455.12,-888 455.12,-888 455.12,-894 449.12,-900 443.12,-900"/>
<text text-anchor="middle" x="428" y="-878.12" font-family="sans" font-size="10.00">deepSea</text>
</g>
<!-- 12&#45;&gt;29 -->
<g id="edge38" class="edge">
<title>12&#45;&gt;29</title>
<path fill="none" stroke="grey" stroke-width="2" d="M431.74,-935.34C431.27,-928.75 430.72,-921.08 430.19,-913.67"/>
<polygon fill="grey" stroke="grey" stroke-width="2" points="433.7,-913.65 429.49,-903.92 426.72,-914.15 433.7,-913.65"/>
</g>
<!-- 13 -->
<g id="node14" class="node">
<title>13</title>
<path fill="none" stroke="#568ad8" stroke-width="2" d="M236.38,-972C236.38,-972 141.62,-972 141.62,-972 135.62,-972 129.62,-966 129.62,-960 129.62,-960 129.62,-948 129.62,-948 129.62,-942 135.62,-936 141.62,-936 141.62,-936 236.38,-936 236.38,-936 242.38,-936 248.38,-942 248.38,-948 248.38,-948 248.38,-960 248.38,-960 248.38,-966 242.38,-972 236.38,-972"/>
<text text-anchor="middle" x="189" y="-950.12" font-family="sans" font-size="10.00">download_human_fasta</text>
</g>
<!-- 13&#45;&gt;11 -->
<g id="edge18" class="edge">
<title>13&#45;&gt;11</title>
<path fill="none" stroke="grey" stroke-width="2" d="M192.53,-935.34C193.85,-928.75 195.38,-921.08 196.87,-913.67"/>
<polygon fill="grey" stroke="grey" stroke-width="2" points="200.3,-914.36 198.83,-903.87 193.43,-912.99 200.3,-914.36"/>
</g>
<!-- 13&#45;&gt;15 -->
<g id="edge21" class="edge">
<title>13&#45;&gt;15</title>
<path fill="none" stroke="grey" stroke-width="2" d="M221.12,-935.15C237.79,-925.9 258.29,-914.51 275.87,-904.74"/>
<polygon fill="grey" stroke="grey" stroke-width="2" points="277.53,-907.82 284.57,-899.9 274.13,-901.7 277.53,-907.82"/>
</g>
<!-- 14 -->
<g id="node15" class="node">
<title>14</title>
<path fill="none" stroke="#a7d856" stroke-width="2" d="M100,-972C100,-972 12,-972 12,-972 6,-972 0,-966 0,-960 0,-960 0,-948 0,-948 0,-942 6,-936 12,-936 12,-936 100,-936 100,-936 106,-936 112,-942 112,-948 112,-948 112,-960 112,-960 112,-966 106,-972 100,-972"/>
<text text-anchor="middle" x="56" y="-950.12" font-family="sans" font-size="10.00">download_splicemaps</text>
</g>
<!-- 14&#45;&gt;11 -->
<g id="edge16" class="edge">
<title>14&#45;&gt;11</title>
<path fill="none" stroke="grey" stroke-width="2" d="M93.47,-935.15C111.81,-926.43 134.11,-915.81 153.79,-906.43"/>
<polygon fill="grey" stroke="grey" stroke-width="2" points="155.08,-909.69 162.61,-902.24 152.07,-903.37 155.08,-909.69"/>
</g>
<!-- 15&#45;&gt;10 -->
<g id="edge14" class="edge">
<title>15&#45;&gt;10</title>
<path fill="none" stroke="grey" stroke-width="2" d="M315,-863.34C315,-856.75 315,-849.08 315,-841.67"/>
<polygon fill="grey" stroke="grey" stroke-width="2" points="318.5,-841.93 315,-831.93 311.5,-841.93 318.5,-841.93"/>
</g>
<!-- 16 -->
<g id="node17" class="node">
<title>16</title>
<path fill="none" stroke="#78d856" stroke-width="2" d="M351.5,-972C351.5,-972 278.5,-972 278.5,-972 272.5,-972 266.5,-966 266.5,-960 266.5,-960 266.5,-948 266.5,-948 266.5,-942 272.5,-936 278.5,-936 278.5,-936 351.5,-936 351.5,-936 357.5,-936 363.5,-942 363.5,-948 363.5,-948 363.5,-960 363.5,-960 363.5,-966 357.5,-972 351.5,-972"/>
<text text-anchor="middle" x="315" y="-950.12" font-family="sans" font-size="10.00">download_rocksdb</text>
</g>
<!-- 16&#45;&gt;15 -->
<g id="edge19" class="edge">
<title>16&#45;&gt;15</title>
<path fill="none" stroke="grey" stroke-width="2" d="M315,-935.34C315,-928.75 315,-921.08 315,-913.67"/>
<polygon fill="grey" stroke="grey" stroke-width="2" points="318.5,-913.93 315,-903.93 311.5,-913.93 318.5,-913.93"/>
</g>
<!-- 17 -->
<g id="node18" class="node">
<title>17</title>
<path fill="none" stroke="#56c9d8" stroke-width="2" d="M466.62,-612C466.62,-612 379.38,-612 379.38,-612 373.38,-612 367.38,-606 367.38,-600 367.38,-600 367.38,-588 367.38,-588 367.38,-582 373.38,-576 379.38,-576 379.38,-576 466.62,-576 466.62,-576 472.62,-576 478.62,-582 478.62,-588 478.62,-588 478.62,-600 478.62,-600 478.62,-606 472.62,-612 466.62,-612"/>
<text text-anchor="middle" x="423" y="-590.12" font-family="sans" font-size="10.00">merge_deepsea_pcas</text>
</g>
<!-- 17&#45;&gt;8 -->
<g id="edge10" class="edge">
<title>17&#45;&gt;8</title>
<path fill="none" stroke="grey" stroke-width="2" d="M420.68,-575.21C417.96,-556.95 412.68,-527.91 404,-504 401.06,-495.91 397.1,-487.52 393.09,-479.86"/>
<polygon fill="grey" stroke="grey" stroke-width="2" points="396.22,-478.3 388.33,-471.24 390.09,-481.68 396.22,-478.3"/>
</g>
<!-- 17&#45;&gt;9 -->
<g id="edge13" class="edge">
<title>17&#45;&gt;9</title>
<path fill="none" stroke="grey" stroke-width="2" d="M399.03,-575.34C387.97,-567.19 374.65,-557.37 362.54,-548.45"/>
<polygon fill="grey" stroke="grey" stroke-width="2" points="364.86,-545.81 354.73,-542.7 360.71,-551.45 364.86,-545.81"/>
</g>
<!-- 18 -->
<g id="node19" class="node">
<title>18</title>
<path fill="none" stroke="#56d87b" stroke-width="2" d="M650.38,-684C650.38,-684 573.62,-684 573.62,-684 567.62,-684 561.62,-678 561.62,-672 561.62,-672 561.62,-660 561.62,-660 561.62,-654 567.62,-648 573.62,-648 573.62,-648 650.38,-648 650.38,-648 656.38,-648 662.38,-654 662.38,-660 662.38,-660 662.38,-672 662.38,-672 662.38,-678 656.38,-684 650.38,-684"/>
<text text-anchor="middle" x="612" y="-662.12" font-family="sans" font-size="10.00">concat_annotations</text>
</g>
<!-- 18&#45;&gt;17 -->
<g id="edge22" class="edge">
<title>18&#45;&gt;17</title>
<path fill="none" stroke="grey" stroke-width="2" d="M563.82,-647.15C539.36,-638.1 509.41,-627.01 483.43,-617.38"/>
<polygon fill="grey" stroke="grey" stroke-width="2" points="484.85,-614.18 474.26,-613.99 482.42,-620.74 484.85,-614.18"/>
</g>
<!-- 19 -->
<g id="node20" class="node">
<title>19</title>
<path fill="none" stroke="#d8b456" stroke-width="2" d="M722.25,-756C722.25,-756 647.75,-756 647.75,-756 641.75,-756 635.75,-750 635.75,-744 635.75,-744 635.75,-732 635.75,-732 635.75,-726 641.75,-720 647.75,-720 647.75,-720 722.25,-720 722.25,-720 728.25,-720 734.25,-726 734.25,-732 734.25,-732 734.25,-744 734.25,-744 734.25,-750 728.25,-756 722.25,-756"/>
<text text-anchor="middle" x="685" y="-734.12" font-family="sans" font-size="10.00">merge_annotations</text>
</g>
<!-- 19&#45;&gt;18 -->
<g id="edge24" class="edge">
<title>19&#45;&gt;18</title>
<path fill="none" stroke="grey" stroke-width="2" d="M666.58,-719.34C658.51,-711.6 648.87,-702.36 639.96,-693.81"/>
<polygon fill="grey" stroke="grey" stroke-width="2" points="642.49,-691.39 632.85,-687 637.65,-696.44 642.49,-691.39"/>
</g>
<!-- 20 -->
<g id="node21" class="node">
<title>20</title>
<path fill="none" stroke="#d88556" stroke-width="2" d="M794,-828C794,-828 764,-828 764,-828 758,-828 752,-822 752,-816 752,-816 752,-804 752,-804 752,-798 758,-792 764,-792 764,-792 794,-792 794,-792 800,-792 806,-798 806,-804 806,-804 806,-816 806,-816 806,-822 800,-828 794,-828"/>
<text text-anchor="middle" x="779" y="-806.12" font-family="sans" font-size="10.00">vep</text>
</g>
<!-- 20&#45;&gt;19 -->
<g id="edge28" class="edge">
<title>20&#45;&gt;19</title>
<path fill="none" stroke="grey" stroke-width="2" d="M755.28,-791.34C744.34,-783.19 731.16,-773.37 719.17,-764.45"/>
<polygon fill="grey" stroke="grey" stroke-width="2" points="721.58,-761.88 711.47,-758.71 717.4,-767.49 721.58,-761.88"/>
</g>
<!-- 21 -->
<g id="node22" class="node">
<title>21</title>
<path fill="none" stroke="#d85656" stroke-width="2" d="M808.38,-900C808.38,-900 749.62,-900 749.62,-900 743.62,-900 737.62,-894 737.62,-888 737.62,-888 737.62,-876 737.62,-876 737.62,-870 743.62,-864 749.62,-864 749.62,-864 808.38,-864 808.38,-864 814.38,-864 820.38,-870 820.38,-876 820.38,-876 820.38,-888 820.38,-888 820.38,-894 814.38,-900 808.38,-900"/>
<text text-anchor="middle" x="779" y="-878.12" font-family="sans" font-size="10.00">strip_chr_name</text>
</g>
<!-- 21&#45;&gt;20 -->
<g id="edge30" class="edge">
<title>21&#45;&gt;20</title>
<path fill="none" stroke="grey" stroke-width="2" d="M779,-863.34C779,-856.75 779,-849.08 779,-841.67"/>
<polygon fill="grey" stroke="grey" stroke-width="2" points="782.5,-841.93 779,-831.93 775.5,-841.93 782.5,-841.93"/>
</g>
<!-- 22 -->
<g id="node23" class="node">
<title>22</title>
<path fill="none" stroke="#d8cb56" stroke-width="2" d="M697.88,-972C697.88,-972 636.12,-972 636.12,-972 630.12,-972 624.12,-966 624.12,-960 624.12,-960 624.12,-948 624.12,-948 624.12,-942 630.12,-936 636.12,-936 636.12,-936 697.88,-936 697.88,-936 703.88,-936 709.88,-942 709.88,-948 709.88,-948 709.88,-960 709.88,-960 709.88,-966 703.88,-972 697.88,-972"/>
<text text-anchor="middle" x="667" y="-950.12" font-family="sans" font-size="10.00">extract_variants</text>
</g>
<!-- 22&#45;&gt;19 -->
<g id="edge29" class="edge">
<title>22&#45;&gt;19</title>
<path fill="none" stroke="grey" stroke-width="2" d="M710.55,-952.07C748.71,-948.66 802.16,-937.02 829,-900 843.92,-879.41 823.69,-802.57 815,-792 798.06,-771.38 771.82,-758.7 747.35,-750.95"/>
<polygon fill="grey" stroke="grey" stroke-width="2" points="748.63,-747.68 738.05,-748.26 746.69,-754.4 748.63,-747.68"/>
</g>
<!-- 22&#45;&gt;21 -->
<g id="edge31" class="edge">
<title>22&#45;&gt;21</title>
<path fill="none" stroke="grey" stroke-width="2" d="M695.55,-935.15C708.98,-926.76 725.21,-916.62 739.76,-907.52"/>
<polygon fill="grey" stroke="grey" stroke-width="2" points="741.31,-910.68 747.93,-902.42 737.6,-904.75 741.31,-910.68"/>
</g>
<!-- 23 -->
<g id="node24" class="node">
<title>23</title>
<path fill="none" stroke="#569ad8" stroke-width="2" d="M566.25,-828C566.25,-828 497.75,-828 497.75,-828 491.75,-828 485.75,-822 485.75,-816 485.75,-816 485.75,-804 485.75,-804 485.75,-798 491.75,-792 497.75,-792 497.75,-792 566.25,-792 566.25,-792 572.25,-792 578.25,-798 578.25,-804 578.25,-804 578.25,-816 578.25,-816 578.25,-822 572.25,-828 566.25,-828"/>
<text text-anchor="middle" x="532" y="-806.12" font-family="sans" font-size="10.00">deepRiPe_parclip</text>
</g>
<!-- 22&#45;&gt;23 -->
<g id="edge32" class="edge">
<title>22&#45;&gt;23</title>
<path fill="none" stroke="grey" stroke-width="2" d="M639.13,-935.17C625.34,-925.64 608.94,-913.17 596,-900 578.08,-881.76 561.34,-858.15 549.48,-839.84"/>
<polygon fill="grey" stroke="grey" stroke-width="2" points="552.51,-838.08 544.21,-831.5 546.6,-841.82 552.51,-838.08"/>
</g>
<!-- 24 -->
<g id="node25" class="node">
<title>24</title>
<path fill="none" stroke="#56d8c9" stroke-width="2" d="M684,-828C684,-828 608,-828 608,-828 602,-828 596,-822 596,-816 596,-816 596,-804 596,-804 596,-798 602,-792 608,-792 608,-792 684,-792 684,-792 690,-792 696,-798 696,-804 696,-804 696,-816 696,-816 696,-822 690,-828 684,-828"/>
<text text-anchor="middle" x="646" y="-806.12" font-family="sans" font-size="10.00">deepRiPe_eclip_k5</text>
</g>
<!-- 22&#45;&gt;24 -->
<g id="edge33" class="edge">
<title>22&#45;&gt;24</title>
<path fill="none" stroke="grey" stroke-width="2" d="M636.52,-935.23C624.33,-926.35 611.64,-914.4 605,-900 598.3,-885.47 599.83,-879.14 605,-864 608.07,-855.02 613.34,-846.38 619.11,-838.78"/>
<polygon fill="grey" stroke="grey" stroke-width="2" points="621.77,-841.05 625.47,-831.12 616.39,-836.58 621.77,-841.05"/>
</g>
<!-- 25 -->
<g id="node26" class="node">
<title>25</title>
<path fill="none" stroke="#b6d856" stroke-width="2" d="M707.62,-900C707.62,-900 626.38,-900 626.38,-900 620.38,-900 614.38,-894 614.38,-888 614.38,-888 614.38,-876 614.38,-876 614.38,-870 620.38,-864 626.38,-864 626.38,-864 707.62,-864 707.62,-864 713.62,-864 719.62,-870 719.62,-876 719.62,-876 719.62,-888 719.62,-888 719.62,-894 713.62,-900 707.62,-900"/>
<text text-anchor="middle" x="667" y="-878.12" font-family="sans" font-size="10.00">deepRiPe_eclip_hg2</text>
</g>
<!-- 22&#45;&gt;25 -->
<g id="edge34" class="edge">
<title>22&#45;&gt;25</title>
<path fill="none" stroke="grey" stroke-width="2" d="M667,-935.34C667,-928.75 667,-921.08 667,-913.67"/>
<polygon fill="grey" stroke="grey" stroke-width="2" points="670.5,-913.93 667,-903.93 663.5,-913.93 670.5,-913.93"/>
</g>
<!-- 23&#45;&gt;19 -->
<g id="edge27" class="edge">
<title>23&#45;&gt;19</title>
<path fill="none" stroke="grey" stroke-width="2" d="M571,-791.15C590.17,-782.38 613.51,-771.71 634.07,-762.3"/>
<polygon fill="grey" stroke="grey" stroke-width="2" points="635.41,-765.54 643.05,-758.19 632.5,-759.17 635.41,-765.54"/>
</g>
<!-- 24&#45;&gt;19 -->
<g id="edge25" class="edge">
<title>24&#45;&gt;19</title>
<path fill="none" stroke="grey" stroke-width="2" d="M655.84,-791.34C659.74,-784.34 664.32,-776.12 668.69,-768.28"/>
<polygon fill="grey" stroke="grey" stroke-width="2" points="671.74,-769.99 673.55,-759.55 665.63,-766.58 671.74,-769.99"/>
</g>
<!-- 25&#45;&gt;19 -->
<g id="edge26" class="edge">
<title>25&#45;&gt;19</title>
<path fill="none" stroke="grey" stroke-width="2" d="M683.86,-863.45C691.94,-853.8 700.77,-841.15 705,-828 711.21,-808.68 706.19,-786.41 699.63,-768.98"/>
<polygon fill="grey" stroke="grey" stroke-width="2" points="702.87,-767.64 695.77,-759.77 696.41,-770.35 702.87,-767.64"/>
</g>
<!-- 26 -->
<g id="node27" class="node">
<title>26</title>
<path fill="none" stroke="#56d89a" stroke-width="2" d="M457.62,-684C457.62,-684 388.38,-684 388.38,-684 382.38,-684 376.38,-678 376.38,-672 376.38,-672 376.38,-660 376.38,-660 376.38,-654 382.38,-648 388.38,-648 388.38,-648 457.62,-648 457.62,-648 463.62,-648 469.62,-654 469.62,-660 469.62,-660 469.62,-672 469.62,-672 469.62,-678 463.62,-684 457.62,-684"/>
<text text-anchor="middle" x="423" y="-662.12" font-family="sans" font-size="10.00">add_ids_deepSea</text>
</g>
<!-- 26&#45;&gt;17 -->
<g id="edge23" class="edge">
<title>26&#45;&gt;17</title>
<path fill="none" stroke="grey" stroke-width="2" d="M423,-647.34C423,-640.75 423,-633.08 423,-625.67"/>
<polygon fill="grey" stroke="grey" stroke-width="2" points="426.5,-625.93 423,-615.93 419.5,-625.93 426.5,-625.93"/>
</g>
<!-- 27 -->
<g id="node28" class="node">
<title>27</title>
<path fill="none" stroke="#d86656" stroke-width="2" d="M451.25,-756C451.25,-756 394.75,-756 394.75,-756 388.75,-756 382.75,-750 382.75,-744 382.75,-744 382.75,-732 382.75,-732 382.75,-726 388.75,-720 394.75,-720 394.75,-720 451.25,-720 451.25,-720 457.25,-720 463.25,-726 463.25,-732 463.25,-732 463.25,-744 463.25,-744 463.25,-750 457.25,-756 451.25,-756"/>
<text text-anchor="middle" x="423" y="-734.12" font-family="sans" font-size="10.00">deepSea_PCA</text>
</g>
<!-- 27&#45;&gt;26 -->
<g id="edge35" class="edge">
<title>27&#45;&gt;26</title>
<path fill="none" stroke="grey" stroke-width="2" d="M423,-719.34C423,-712.75 423,-705.08 423,-697.67"/>
<polygon fill="grey" stroke="grey" stroke-width="2" points="426.5,-697.93 423,-687.93 419.5,-697.93 426.5,-697.93"/>
</g>
<!-- 28 -->
<g id="node29" class="node">
<title>28</title>
<path fill="none" stroke="#56b9d8" stroke-width="2" d="M455.38,-828C455.38,-828 390.62,-828 390.62,-828 384.62,-828 378.62,-822 378.62,-816 378.62,-816 378.62,-804 378.62,-804 378.62,-798 384.62,-792 390.62,-792 390.62,-792 455.38,-792 455.38,-792 461.38,-792 467.38,-798 467.38,-804 467.38,-804 467.38,-816 467.38,-816 467.38,-822 461.38,-828 455.38,-828"/>
<text text-anchor="middle" x="423" y="-806.12" font-family="sans" font-size="10.00">concat_deepSea</text>
</g>
<!-- 28&#45;&gt;27 -->
<g id="edge36" class="edge">
<title>28&#45;&gt;27</title>
<path fill="none" stroke="grey" stroke-width="2" d="M423,-791.34C423,-784.75 423,-777.08 423,-769.67"/>
<polygon fill="grey" stroke="grey" stroke-width="2" points="426.5,-769.93 423,-759.93 419.5,-769.93 426.5,-769.93"/>
</g>
<!-- 29&#45;&gt;28 -->
<g id="edge37" class="edge">
<title>29&#45;&gt;28</title>
<path fill="none" stroke="grey" stroke-width="2" d="M426.74,-863.34C426.27,-856.75 425.72,-849.08 425.19,-841.67"/>
<polygon fill="grey" stroke="grey" stroke-width="2" points="428.7,-841.65 424.49,-831.92 421.72,-842.15 428.7,-841.65"/>
</g>
</g>
</svg>
