<?xml version="1.0" encoding="UTF-8" standalone="no"?>
<!DOCTYPE svg PUBLIC "-//W3C//DTD SVG 1.1//EN"
 "http://www.w3.org/Graphics/SVG/1.1/DTD/svg11.dtd">
<!-- Generated by graphviz version 2.30.1 (20201013.1554)
 -->
<!-- Title: snakemake_dag Pages: 1 -->
<svg width="905pt" height="1052pt"
 viewBox="0.00 0.00 904.57 1052.00" xmlns="http://www.w3.org/2000/svg" xmlns:xlink="http://www.w3.org/1999/xlink">
<g id="graph0" class="graph" transform="scale(1 1) rotate(0) translate(4 1048)">
<title>snakemake_dag</title>
<polygon fill="white" stroke="white" points="-4,5 -4,-1048 901.57,-1048 901.57,5 -4,5"/>
<!-- 0 -->
<g id="node1" class="node"><title>0</title>
<path fill="none" stroke="#56d0d8" stroke-width="2" d="M426,-36C426,-36 396,-36 396,-36 390,-36 384,-30 384,-24 384,-24 384,-12 384,-12 384,-6 390,-0 396,-0 396,-0 426,-0 426,-0 432,-0 438,-6 438,-12 438,-12 438,-24 438,-24 438,-30 432,-36 426,-36"/>
<text text-anchor="middle" x="411" y="-15.5" font-family="sans" font-size="10.00">all</text>
</g>
<!-- 1 -->
<g id="node2" class="node"><title>1</title>
<path fill="none" stroke="#56d8c9" stroke-width="2" d="M475,-108C475,-108 347,-108 347,-108 341,-108 335,-102 335,-96 335,-96 335,-84 335,-84 335,-78 341,-72 347,-72 347,-72 475,-72 475,-72 481,-72 487,-78 487,-84 487,-84 487,-96 487,-96 487,-102 481,-108 475,-108"/>
<text text-anchor="middle" x="411" y="-87.5" font-family="sans" font-size="10.00">select_rename_fill_columns</text>
</g>
<!-- 1&#45;&gt;0 -->
<g id="edge1" class="edge"><title>1&#45;&gt;0</title>
<path fill="none" stroke="grey" stroke-width="2" d="M411,-71.6966C411,-63.9827 411,-54.7125 411,-46.1124"/>
<polygon fill="grey" stroke="grey" points="414.5,-46.1043 411,-36.1043 407.5,-46.1044 414.5,-46.1043"/>
</g>
<!-- 2 -->
<g id="node3" class="node"><title>2</title>
<path fill="none" stroke="#56d8a9" stroke-width="2" d="M461.25,-180C461.25,-180 360.75,-180 360.75,-180 354.75,-180 348.75,-174 348.75,-168 348.75,-168 348.75,-156 348.75,-156 348.75,-150 354.75,-144 360.75,-144 360.75,-144 461.25,-144 461.25,-144 467.25,-144 473.25,-150 473.25,-156 473.25,-156 473.25,-168 473.25,-168 473.25,-174 467.25,-180 461.25,-180"/>
<text text-anchor="middle" x="411" y="-159.5" font-family="sans" font-size="10.00">compute_plof_column</text>
</g>
<!-- 2&#45;&gt;1 -->
<g id="edge2" class="edge"><title>2&#45;&gt;1</title>
<path fill="none" stroke="grey" stroke-width="2" d="M411,-143.697C411,-135.983 411,-126.712 411,-118.112"/>
<polygon fill="grey" stroke="grey" points="414.5,-118.104 411,-108.104 407.5,-118.104 414.5,-118.104"/>
</g>
<!-- 3 -->
<g id="node4" class="node"><title>3</title>
<path fill="none" stroke="#56d89a" stroke-width="2" d="M465,-252C465,-252 357,-252 357,-252 351,-252 345,-246 345,-240 345,-240 345,-228 345,-228 345,-222 351,-216 357,-216 357,-216 465,-216 465,-216 471,-216 477,-222 477,-228 477,-228 477,-240 477,-240 477,-246 471,-252 465,-252"/>
<text text-anchor="middle" x="411" y="-231.5" font-family="sans" font-size="10.00">filter_by_exon_distance</text>
</g>
<!-- 3&#45;&gt;2 -->
<g id="edge3" class="edge"><title>3&#45;&gt;2</title>
<path fill="none" stroke="grey" stroke-width="2" d="M411,-215.697C411,-207.983 411,-198.712 411,-190.112"/>
<polygon fill="grey" stroke="grey" points="414.5,-190.104 411,-180.104 407.5,-190.104 414.5,-190.104"/>
</g>
<!-- 4 -->
<g id="node5" class="node"><title>4</title>
<path fill="none" stroke="#5692d8" stroke-width="2" d="M405.25,-324C405.25,-324 346.75,-324 346.75,-324 340.75,-324 334.75,-318 334.75,-312 334.75,-312 334.75,-300 334.75,-300 334.75,-294 340.75,-288 346.75,-288 346.75,-288 405.25,-288 405.25,-288 411.25,-288 417.25,-294 417.25,-300 417.25,-300 417.25,-312 417.25,-312 417.25,-318 411.25,-324 405.25,-324"/>
<text text-anchor="middle" x="376" y="-303.5" font-family="sans" font-size="10.00">add_gene_ids</text>
</g>
<!-- 4&#45;&gt;3 -->
<g id="edge5" class="edge"><title>4&#45;&gt;3</title>
<path fill="none" stroke="grey" stroke-width="2" d="M384.652,-287.697C388.636,-279.728 393.45,-270.1 397.868,-261.264"/>
<polygon fill="grey" stroke="grey" points="401.106,-262.614 402.448,-252.104 394.845,-259.483 401.106,-262.614"/>
</g>
<!-- 5 -->
<g id="node6" class="node"><title>5</title>
<path fill="none" stroke="#56d8b9" stroke-width="2" d="M489.25,-396C489.25,-396 402.75,-396 402.75,-396 396.75,-396 390.75,-390 390.75,-384 390.75,-384 390.75,-372 390.75,-372 390.75,-366 396.75,-360 402.75,-360 402.75,-360 489.25,-360 489.25,-360 495.25,-360 501.25,-366 501.25,-372 501.25,-372 501.25,-384 501.25,-384 501.25,-390 495.25,-396 489.25,-396"/>
<text text-anchor="middle" x="446" y="-375.5" font-family="sans" font-size="10.00">create_gene_id_file</text>
</g>
<!-- 5&#45;&gt;3 -->
<g id="edge4" class="edge"><title>5&#45;&gt;3</title>
<path fill="none" stroke="grey" stroke-width="2" d="M442.442,-359.872C438.642,-341.903 432.308,-312.868 426,-288 423.827,-279.433 421.268,-270.144 418.885,-261.771"/>
<polygon fill="grey" stroke="grey" points="422.236,-260.761 416.103,-252.122 415.51,-262.7 422.236,-260.761"/>
</g>
<!-- 5&#45;&gt;4 -->
<g id="edge7" class="edge"><title>5&#45;&gt;4</title>
<path fill="none" stroke="grey" stroke-width="2" d="M428.697,-359.697C420.135,-351.135 409.656,-340.656 400.304,-331.304"/>
<polygon fill="grey" stroke="grey" points="402.65,-328.701 393.104,-324.104 397.701,-333.65 402.65,-328.701"/>
</g>
<!-- 6 -->
<g id="node7" class="node"><title>6</title>
<path fill="none" stroke="#d8b456" stroke-width="2" d="M360,-396C360,-396 298,-396 298,-396 292,-396 286,-390 286,-384 286,-384 286,-372 286,-372 286,-366 292,-360 298,-360 298,-360 360,-360 360,-360 366,-360 372,-366 372,-372 372,-372 372,-384 372,-384 372,-390 366,-396 360,-396"/>
<text text-anchor="middle" x="329" y="-375.5" font-family="sans" font-size="10.00">calculate_MAF</text>
</g>
<!-- 6&#45;&gt;4 -->
<g id="edge6" class="edge"><title>6&#45;&gt;4</title>
<path fill="none" stroke="grey" stroke-width="2" d="M340.618,-359.697C346.139,-351.474 352.847,-341.483 358.932,-332.421"/>
<polygon fill="grey" stroke="grey" points="361.847,-334.358 364.516,-324.104 356.035,-330.456 361.847,-334.358"/>
</g>
<!-- 7 -->
<g id="node8" class="node"><title>7</title>
<path fill="none" stroke="#9fd856" stroke-width="2" d="M384,-468C384,-468 274,-468 274,-468 268,-468 262,-462 262,-456 262,-456 262,-444 262,-444 262,-438 268,-432 274,-432 274,-432 384,-432 384,-432 390,-432 396,-438 396,-444 396,-444 396,-456 396,-456 396,-462 390,-468 384,-468"/>
<text text-anchor="middle" x="329" y="-447.5" font-family="sans" font-size="10.00">merge_allele_frequency</text>
</g>
<!-- 7&#45;&gt;6 -->
<g id="edge8" class="edge"><title>7&#45;&gt;6</title>
<path fill="none" stroke="grey" stroke-width="2" d="M329,-431.697C329,-423.983 329,-414.712 329,-406.112"/>
<polygon fill="grey" stroke="grey" points="332.5,-406.104 329,-396.104 325.5,-406.104 332.5,-406.104"/>
</g>
<!-- 8 -->
<g id="node9" class="node"><title>8</title>
<path fill="none" stroke="#56c1d8" stroke-width="2" d="M312.25,-540C312.25,-540 189.75,-540 189.75,-540 183.75,-540 177.75,-534 177.75,-528 177.75,-528 177.75,-516 177.75,-516 177.75,-510 183.75,-504 189.75,-504 189.75,-504 312.25,-504 312.25,-504 318.25,-504 324.25,-510 324.25,-516 324.25,-516 324.25,-528 324.25,-528 324.25,-534 318.25,-540 312.25,-540"/>
<text text-anchor="middle" x="251" y="-519.5" font-family="sans" font-size="10.00">calculate_allele_frequency</text>
</g>
<!-- 8&#45;&gt;7 -->
<g id="edge9" class="edge"><title>8&#45;&gt;7</title>
<path fill="none" stroke="grey" stroke-width="2" d="M270.281,-503.697C279.915,-495.05 291.729,-484.449 302.227,-475.027"/>
<polygon fill="grey" stroke="grey" points="304.836,-477.388 309.941,-468.104 300.161,-472.179 304.836,-477.388"/>
</g>
<!-- 9 -->
<g id="node10" class="node"><title>9</title>
<path fill="none" stroke="#5682d8" stroke-width="2" d="M461.25,-540C461.25,-540 354.75,-540 354.75,-540 348.75,-540 342.75,-534 342.75,-528 342.75,-528 342.75,-516 342.75,-516 342.75,-510 348.75,-504 354.75,-504 354.75,-504 461.25,-504 461.25,-504 467.25,-504 473.25,-510 473.25,-516 473.25,-516 473.25,-528 473.25,-528 473.25,-534 467.25,-540 461.25,-540"/>
<text text-anchor="middle" x="408" y="-519.5" font-family="sans" font-size="10.00">merge_absplice_scores</text>
</g>
<!-- 9&#45;&gt;7 -->
<g id="edge10" class="edge"><title>9&#45;&gt;7</title>
<path fill="none" stroke="grey" stroke-width="2" d="M388.472,-503.697C378.618,-494.965 366.514,-484.24 355.804,-474.75"/>
<polygon fill="grey" stroke="grey" points="358.109,-472.117 348.303,-468.104 353.467,-477.356 358.109,-472.117"/>
</g>
<!-- 10 -->
<g id="node11" class="node"><title>10</title>
<path fill="none" stroke="#56d88a" stroke-width="2" d="M418.25,-612C418.25,-612 293.75,-612 293.75,-612 287.75,-612 281.75,-606 281.75,-600 281.75,-600 281.75,-588 281.75,-588 281.75,-582 287.75,-576 293.75,-576 293.75,-576 418.25,-576 418.25,-576 424.25,-576 430.25,-582 430.25,-588 430.25,-588 430.25,-600 430.25,-600 430.25,-606 424.25,-612 418.25,-612"/>
<text text-anchor="middle" x="356" y="-591.5" font-family="sans" font-size="10.00">aggregate_absplice_scores</text>
</g>
<!-- 10&#45;&gt;9 -->
<g id="edge12" class="edge"><title>10&#45;&gt;9</title>
<path fill="none" stroke="grey" stroke-width="2" d="M368.854,-575.697C375.025,-567.389 382.537,-557.277 389.324,-548.141"/>
<polygon fill="grey" stroke="grey" points="392.14,-550.219 395.294,-540.104 386.521,-546.045 392.14,-550.219"/>
</g>
<!-- 11 -->
<g id="node12" class="node"><title>11</title>
<path fill="none" stroke="#bed856" stroke-width="2" d="M375,-900C375,-900 319,-900 319,-900 313,-900 307,-894 307,-888 307,-888 307,-876 307,-876 307,-870 313,-864 319,-864 319,-864 375,-864 375,-864 381,-864 387,-870 387,-876 387,-876 387,-888 387,-888 387,-894 381,-900 375,-900"/>
<text text-anchor="middle" x="347" y="-879.5" font-family="sans" font-size="10.00">absplice_dna</text>
</g>
<!-- 11&#45;&gt;10 -->
<g id="edge13" class="edge"><title>11&#45;&gt;10</title>
<path fill="none" stroke="grey" stroke-width="2" d="M347.536,-863.966C349.036,-816.291 353.288,-681.185 355.131,-622.63"/>
<polygon fill="grey" stroke="grey" points="358.639,-622.412 355.455,-612.306 351.642,-622.191 358.639,-622.412"/>
</g>
<!-- 12 -->
<g id="node13" class="node"><title>12</title>
<path fill="none" stroke="#61d856" stroke-width="2" d="M273,-972C273,-972 177,-972 177,-972 171,-972 165,-966 165,-960 165,-960 165,-948 165,-948 165,-942 171,-936 177,-936 177,-936 273,-936 273,-936 279,-936 285,-942 285,-948 285,-948 285,-960 285,-960 285,-966 279,-972 273,-972"/>
<text text-anchor="middle" x="225" y="-951.5" font-family="sans" font-size="10.00">mmsplice_splicemap</text>
</g>
<!-- 12&#45;&gt;11 -->
<g id="edge15" class="edge"><title>12&#45;&gt;11</title>
<path fill="none" stroke="grey" stroke-width="2" d="M254.845,-935.876C270.944,-926.639 291.001,-915.131 308.288,-905.212"/>
<polygon fill="grey" stroke="grey" points="310.109,-908.202 317.041,-900.19 306.625,-902.131 310.109,-908.202"/>
</g>
<!-- 13 -->
<g id="node14" class="node"><title>13</title>
<path fill="none" stroke="#56b1d8" stroke-width="2" d="M523,-1044C523,-1044 431,-1044 431,-1044 425,-1044 419,-1038 419,-1032 419,-1032 419,-1020 419,-1020 419,-1014 425,-1008 431,-1008 431,-1008 523,-1008 523,-1008 529,-1008 535,-1014 535,-1020 535,-1020 535,-1032 535,-1032 535,-1038 529,-1044 523,-1044"/>
<text text-anchor="middle" x="477" y="-1023.5" font-family="sans" font-size="10.00">extract_with_header</text>
</g>
<!-- 13&#45;&gt;12 -->
<g id="edge19" class="edge"><title>13&#45;&gt;12</title>
<path fill="none" stroke="grey" stroke-width="2" d="M418.87,-1008.85C381.886,-998.579 333.783,-985.217 294.745,-974.374"/>
<polygon fill="grey" stroke="grey" points="295.6,-970.979 285.028,-971.674 293.726,-977.723 295.6,-970.979"/>
</g>
<!-- 16 -->
<g id="node17" class="node"><title>16</title>
<path fill="none" stroke="#d85656" stroke-width="2" d="M362,-972C362,-972 332,-972 332,-972 326,-972 320,-966 320,-960 320,-960 320,-948 320,-948 320,-942 326,-936 332,-936 332,-936 362,-936 362,-936 368,-936 374,-942 374,-948 374,-948 374,-960 374,-960 374,-966 368,-972 362,-972"/>
<text text-anchor="middle" x="347" y="-951.5" font-family="sans" font-size="10.00">spliceai</text>
</g>
<!-- 13&#45;&gt;16 -->
<g id="edge22" class="edge"><title>13&#45;&gt;16</title>
<path fill="none" stroke="grey" stroke-width="2" d="M445.198,-1007.88C426.38,-997.743 402.486,-984.877 382.98,-974.374"/>
<polygon fill="grey" stroke="grey" points="384.545,-971.241 374.08,-969.582 381.226,-977.404 384.545,-971.241"/>
</g>
<!-- 30 -->
<g id="node31" class="node"><title>30</title>
<path fill="none" stroke="#8fd856" stroke-width="2" d="M482.25,-972C482.25,-972 447.75,-972 447.75,-972 441.75,-972 435.75,-966 435.75,-960 435.75,-960 435.75,-948 435.75,-948 435.75,-942 441.75,-936 447.75,-936 447.75,-936 482.25,-936 482.25,-936 488.25,-936 494.25,-942 494.25,-948 494.25,-948 494.25,-960 494.25,-960 494.25,-966 488.25,-972 482.25,-972"/>
<text text-anchor="middle" x="465" y="-951.5" font-family="sans" font-size="10.00">deepSea</text>
</g>
<!-- 13&#45;&gt;30 -->
<g id="edge39" class="edge"><title>13&#45;&gt;30</title>
<path fill="none" stroke="grey" stroke-width="2" d="M474.034,-1007.7C472.711,-999.983 471.122,-990.712 469.648,-982.112"/>
<polygon fill="grey" stroke="grey" points="473.072,-981.369 467.932,-972.104 466.172,-982.552 473.072,-981.369"/>
</g>
<!-- 14 -->
<g id="node15" class="node"><title>14</title>
<path fill="none" stroke="#ced856" stroke-width="2" d="M263.25,-1044C263.25,-1044 154.75,-1044 154.75,-1044 148.75,-1044 142.75,-1038 142.75,-1032 142.75,-1032 142.75,-1020 142.75,-1020 142.75,-1014 148.75,-1008 154.75,-1008 154.75,-1008 263.25,-1008 263.25,-1008 269.25,-1008 275.25,-1014 275.25,-1020 275.25,-1020 275.25,-1032 275.25,-1032 275.25,-1038 269.25,-1044 263.25,-1044"/>
<text text-anchor="middle" x="209" y="-1023.5" font-family="sans" font-size="10.00">download_human_fasta</text>
</g>
<!-- 14&#45;&gt;12 -->
<g id="edge17" class="edge"><title>14&#45;&gt;12</title>
<path fill="none" stroke="grey" stroke-width="2" d="M212.955,-1007.7C214.718,-999.983 216.837,-990.712 218.803,-982.112"/>
<polygon fill="grey" stroke="grey" points="222.274,-982.633 221.09,-972.104 215.45,-981.073 222.274,-982.633"/>
</g>
<!-- 14&#45;&gt;16 -->
<g id="edge20" class="edge"><title>14&#45;&gt;16</title>
<path fill="none" stroke="grey" stroke-width="2" d="M242.759,-1007.88C263.333,-997.44 289.622,-984.105 310.652,-973.438"/>
<polygon fill="grey" stroke="grey" points="312.272,-976.54 319.607,-968.895 309.105,-970.298 312.272,-976.54"/>
</g>
<!-- 15 -->
<g id="node16" class="node"><title>15</title>
<path fill="none" stroke="#56a2d8" stroke-width="2" d="M112.25,-1044C112.25,-1044 11.75,-1044 11.75,-1044 5.75,-1044 -0.25,-1038 -0.25,-1032 -0.25,-1032 -0.25,-1020 -0.25,-1020 -0.25,-1014 5.75,-1008 11.75,-1008 11.75,-1008 112.25,-1008 112.25,-1008 118.25,-1008 124.25,-1014 124.25,-1020 124.25,-1020 124.25,-1032 124.25,-1032 124.25,-1038 118.25,-1044 112.25,-1044"/>
<text text-anchor="middle" x="62" y="-1023.5" font-family="sans" font-size="10.00">download_splicemaps</text>
</g>
<!-- 15&#45;&gt;12 -->
<g id="edge18" class="edge"><title>15&#45;&gt;12</title>
<path fill="none" stroke="grey" stroke-width="2" d="M101.874,-1007.88C124.157,-998.307 152.115,-986.3 175.756,-976.148"/>
<polygon fill="grey" stroke="grey" points="177.448,-979.23 185.255,-972.068 174.686,-972.798 177.448,-979.23"/>
</g>
<!-- 16&#45;&gt;11 -->
<g id="edge16" class="edge"><title>16&#45;&gt;11</title>
<path fill="none" stroke="grey" stroke-width="2" d="M347,-935.697C347,-927.983 347,-918.712 347,-910.112"/>
<polygon fill="grey" stroke="grey" points="350.5,-910.104 347,-900.104 343.5,-910.104 350.5,-910.104"/>
</g>
<!-- 17 -->
<g id="node18" class="node"><title>17</title>
<path fill="none" stroke="#afd856" stroke-width="2" d="M388.25,-1044C388.25,-1044 305.75,-1044 305.75,-1044 299.75,-1044 293.75,-1038 293.75,-1032 293.75,-1032 293.75,-1020 293.75,-1020 293.75,-1014 299.75,-1008 305.75,-1008 305.75,-1008 388.25,-1008 388.25,-1008 394.25,-1008 400.25,-1014 400.25,-1020 400.25,-1020 400.25,-1032 400.25,-1032 400.25,-1038 394.25,-1044 388.25,-1044"/>
<text text-anchor="middle" x="347" y="-1023.5" font-family="sans" font-size="10.00">download_rocksdb</text>
</g>
<!-- 17&#45;&gt;16 -->
<g id="edge21" class="edge"><title>17&#45;&gt;16</title>
<path fill="none" stroke="grey" stroke-width="2" d="M347,-1007.7C347,-999.983 347,-990.712 347,-982.112"/>
<polygon fill="grey" stroke="grey" points="350.5,-982.104 347,-972.104 343.5,-982.104 350.5,-982.104"/>
</g>
<!-- 18 -->
<g id="node19" class="node"><title>18</title>
<path fill="none" stroke="#5673d8" stroke-width="2" d="M508,-684C508,-684 410,-684 410,-684 404,-684 398,-678 398,-672 398,-672 398,-660 398,-660 398,-654 404,-648 410,-648 410,-648 508,-648 508,-648 514,-648 520,-654 520,-660 520,-660 520,-672 520,-672 520,-678 514,-684 508,-684"/>
<text text-anchor="middle" x="459" y="-663.5" font-family="sans" font-size="10.00">merge_deepsea_pcas</text>
</g>
<!-- 18&#45;&gt;9 -->
<g id="edge11" class="edge"><title>18&#45;&gt;9</title>
<path fill="none" stroke="grey" stroke-width="2" d="M456.744,-647.807C453.98,-629.533 448.458,-600.019 439,-576 435.386,-566.822 430.334,-557.355 425.357,-549.006"/>
<polygon fill="grey" stroke="grey" points="428.299,-547.109 420.056,-540.453 422.349,-550.797 428.299,-547.109"/>
</g>
<!-- 18&#45;&gt;10 -->
<g id="edge14" class="edge"><title>18&#45;&gt;10</title>
<path fill="none" stroke="grey" stroke-width="2" d="M433.803,-647.876C420.586,-638.893 404.208,-627.763 389.893,-618.034"/>
<polygon fill="grey" stroke="grey" points="391.532,-614.916 381.293,-612.19 387.597,-620.705 391.532,-614.916"/>
</g>
<!-- 19 -->
<g id="node20" class="node"><title>19</title>
<path fill="none" stroke="#d89556" stroke-width="2" d="M706,-756C706,-756 618,-756 618,-756 612,-756 606,-750 606,-744 606,-744 606,-732 606,-732 606,-726 612,-720 618,-720 618,-720 706,-720 706,-720 712,-720 718,-726 718,-732 718,-732 718,-744 718,-744 718,-750 712,-756 706,-756"/>
<text text-anchor="middle" x="662" y="-735.5" font-family="sans" font-size="10.00">concat_annotations</text>
</g>
<!-- 19&#45;&gt;18 -->
<g id="edge23" class="edge"><title>19&#45;&gt;18</title>
<path fill="none" stroke="grey" stroke-width="2" d="M612.6,-719.966C584.113,-710.142 548.114,-697.729 518.129,-687.389"/>
<polygon fill="grey" stroke="grey" points="519.216,-684.062 508.621,-684.111 516.934,-690.68 519.216,-684.062"/>
</g>
<!-- 20 -->
<g id="node21" class="node"><title>20</title>
<path fill="none" stroke="#d86656" stroke-width="2" d="M783.25,-828C783.25,-828 696.75,-828 696.75,-828 690.75,-828 684.75,-822 684.75,-816 684.75,-816 684.75,-804 684.75,-804 684.75,-798 690.75,-792 696.75,-792 696.75,-792 783.25,-792 783.25,-792 789.25,-792 795.25,-798 795.25,-804 795.25,-804 795.25,-816 795.25,-816 795.25,-822 789.25,-828 783.25,-828"/>
<text text-anchor="middle" x="740" y="-807.5" font-family="sans" font-size="10.00">merge_annotations</text>
</g>
<!-- 20&#45;&gt;19 -->
<g id="edge25" class="edge"><title>20&#45;&gt;19</title>
<path fill="none" stroke="grey" stroke-width="2" d="M720.719,-791.697C711.085,-783.05 699.271,-772.449 688.773,-763.027"/>
<polygon fill="grey" stroke="grey" points="690.839,-760.179 681.059,-756.104 686.164,-765.388 690.839,-760.179"/>
</g>
<!-- 21 -->
<g id="node22" class="node"><title>21</title>
<path fill="none" stroke="#56d85b" stroke-width="2" d="M851,-900C851,-900 821,-900 821,-900 815,-900 809,-894 809,-888 809,-888 809,-876 809,-876 809,-870 815,-864 821,-864 821,-864 851,-864 851,-864 857,-864 863,-870 863,-876 863,-876 863,-888 863,-888 863,-894 857,-900 851,-900"/>
<text text-anchor="middle" x="836" y="-879.5" font-family="sans" font-size="10.00">vep</text>
</g>
<!-- 21&#45;&gt;20 -->
<g id="edge28" class="edge"><title>21&#45;&gt;20</title>
<path fill="none" stroke="grey" stroke-width="2" d="M812.27,-863.697C800.063,-854.796 785.015,-843.823 771.816,-834.199"/>
<polygon fill="grey" stroke="grey" points="773.6,-831.168 763.457,-828.104 769.475,-836.824 773.6,-831.168"/>
</g>
<!-- 22 -->
<g id="node23" class="node"><title>22</title>
<path fill="none" stroke="#d87556" stroke-width="2" d="M870,-972C870,-972 802,-972 802,-972 796,-972 790,-966 790,-960 790,-960 790,-948 790,-948 790,-942 796,-936 802,-936 802,-936 870,-936 870,-936 876,-936 882,-942 882,-948 882,-948 882,-960 882,-960 882,-966 876,-972 870,-972"/>
<text text-anchor="middle" x="836" y="-951.5" font-family="sans" font-size="10.00">strip_chr_name</text>
</g>
<!-- 22&#45;&gt;21 -->
<g id="edge31" class="edge"><title>22&#45;&gt;21</title>
<path fill="none" stroke="grey" stroke-width="2" d="M836,-935.697C836,-927.983 836,-918.712 836,-910.112"/>
<polygon fill="grey" stroke="grey" points="839.5,-910.104 836,-900.104 832.5,-910.104 839.5,-910.104"/>
</g>
<!-- 23 -->
<g id="node24" class="node"><title>23</title>
<path fill="none" stroke="#d8a456" stroke-width="2" d="M751,-1044C751,-1044 679,-1044 679,-1044 673,-1044 667,-1038 667,-1032 667,-1032 667,-1020 667,-1020 667,-1014 673,-1008 679,-1008 679,-1008 751,-1008 751,-1008 757,-1008 763,-1014 763,-1020 763,-1020 763,-1032 763,-1032 763,-1038 757,-1044 751,-1044"/>
<text text-anchor="middle" x="715" y="-1023.5" font-family="sans" font-size="10.00">extract_variants</text>
</g>
<!-- 23&#45;&gt;20 -->
<g id="edge29" class="edge"><title>23&#45;&gt;20</title>
<path fill="none" stroke="grey" stroke-width="2" d="M763.403,-1025.2C804.698,-1022.46 861.876,-1011.19 891,-972 908.478,-948.483 878.738,-871.628 872,-864 854.758,-844.479 829.318,-832.047 805.361,-824.176"/>
<polygon fill="grey" stroke="grey" points="806.156,-820.759 795.569,-821.176 804.105,-827.452 806.156,-820.759"/>
</g>
<!-- 23&#45;&gt;22 -->
<g id="edge32" class="edge"><title>23&#45;&gt;22</title>
<path fill="none" stroke="grey" stroke-width="2" d="M744.6,-1007.88C760.567,-998.639 780.46,-987.131 797.606,-977.212"/>
<polygon fill="grey" stroke="grey" points="799.383,-980.227 806.286,-972.19 795.878,-974.168 799.383,-980.227"/>
</g>
<!-- 24 -->
<g id="node25" class="node"><title>24</title>
<path fill="none" stroke="#d8c356" stroke-width="2" d="M614.25,-900C614.25,-900 537.75,-900 537.75,-900 531.75,-900 525.75,-894 525.75,-888 525.75,-888 525.75,-876 525.75,-876 525.75,-870 531.75,-864 537.75,-864 537.75,-864 614.25,-864 614.25,-864 620.25,-864 626.25,-870 626.25,-876 626.25,-876 626.25,-888 626.25,-888 626.25,-894 620.25,-900 614.25,-900"/>
<text text-anchor="middle" x="576" y="-879.5" font-family="sans" font-size="10.00">deepRiPe_parclip</text>
</g>
<!-- 23&#45;&gt;24 -->
<g id="edge33" class="edge"><title>23&#45;&gt;24</title>
<path fill="none" stroke="grey" stroke-width="2" d="M686.217,-1007.9C671.492,-998.377 653.811,-985.698 640,-972 620.723,-952.882 603.057,-927.434 591.192,-908.647"/>
<polygon fill="grey" stroke="grey" points="594.09,-906.679 585.851,-900.017 588.137,-910.362 594.09,-906.679"/>
</g>
<!-- 25 -->
<g id="node26" class="node"><title>25</title>
<path fill="none" stroke="#70d856" stroke-width="2" d="M741,-900C741,-900 657,-900 657,-900 651,-900 645,-894 645,-888 645,-888 645,-876 645,-876 645,-870 651,-864 657,-864 657,-864 741,-864 741,-864 747,-864 753,-870 753,-876 753,-876 753,-888 753,-888 753,-894 747,-900 741,-900"/>
<text text-anchor="middle" x="699" y="-879.5" font-family="sans" font-size="10.00">deepRiPe_eclip_k5</text>
</g>
<!-- 23&#45;&gt;25 -->
<g id="edge34" class="edge"><title>23&#45;&gt;25</title>
<path fill="none" stroke="grey" stroke-width="2" d="M682.947,-1007.88C669.88,-999.055 656.18,-986.974 649,-972 642.082,-957.573 643.093,-950.87 649,-936 653.291,-925.199 660.942,-915.324 668.988,-907.102"/>
<polygon fill="grey" stroke="grey" points="671.578,-909.469 676.404,-900.037 666.75,-904.401 671.578,-909.469"/>
</g>
<!-- 26 -->
<g id="node27" class="node"><title>26</title>
<path fill="none" stroke="#5663d8" stroke-width="2" d="M760,-972C760,-972 670,-972 670,-972 664,-972 658,-966 658,-960 658,-960 658,-948 658,-948 658,-942 664,-936 670,-936 670,-936 760,-936 760,-936 766,-936 772,-942 772,-948 772,-948 772,-960 772,-960 772,-966 766,-972 760,-972"/>
<text text-anchor="middle" x="715" y="-951.5" font-family="sans" font-size="10.00">deepRiPe_eclip_hg2</text>
</g>
<!-- 23&#45;&gt;26 -->
<g id="edge35" class="edge"><title>23&#45;&gt;26</title>
<path fill="none" stroke="grey" stroke-width="2" d="M715,-1007.7C715,-999.983 715,-990.712 715,-982.112"/>
<polygon fill="grey" stroke="grey" points="718.5,-982.104 715,-972.104 711.5,-982.104 718.5,-982.104"/>
</g>
<!-- 24&#45;&gt;20 -->
<g id="edge27" class="edge"><title>24&#45;&gt;20</title>
<path fill="none" stroke="grey" stroke-width="2" d="M616.119,-863.876C638.638,-854.264 666.918,-842.193 690.771,-832.013"/>
<polygon fill="grey" stroke="grey" points="692.188,-835.213 700.011,-828.068 689.44,-828.775 692.188,-835.213"/>
</g>
<!-- 25&#45;&gt;20 -->
<g id="edge26" class="edge"><title>25&#45;&gt;20</title>
<path fill="none" stroke="grey" stroke-width="2" d="M709.135,-863.697C713.852,-855.644 719.562,-845.894 724.782,-836.982"/>
<polygon fill="grey" stroke="grey" points="727.948,-838.502 729.982,-828.104 721.908,-834.964 727.948,-838.502"/>
</g>
<!-- 26&#45;&gt;20 -->
<g id="edge30" class="edge"><title>26&#45;&gt;20</title>
<path fill="none" stroke="grey" stroke-width="2" d="M736.267,-935.701C746.109,-926.305 756.763,-913.798 762,-900 769.767,-879.534 762.839,-855.371 754.764,-837.39"/>
<polygon fill="grey" stroke="grey" points="757.767,-835.562 750.245,-828.1 751.472,-838.623 757.767,-835.562"/>
</g>
<!-- 27 -->
<g id="node28" class="node"><title>27</title>
<path fill="none" stroke="#d88556" stroke-width="2" d="M497.25,-756C497.25,-756 420.75,-756 420.75,-756 414.75,-756 408.75,-750 408.75,-744 408.75,-744 408.75,-732 408.75,-732 408.75,-726 414.75,-720 420.75,-720 420.75,-720 497.25,-720 497.25,-720 503.25,-720 509.25,-726 509.25,-732 509.25,-732 509.25,-744 509.25,-744 509.25,-750 503.25,-756 497.25,-756"/>
<text text-anchor="middle" x="459" y="-735.5" font-family="sans" font-size="10.00">add_ids_deepSea</text>
</g>
<!-- 27&#45;&gt;18 -->
<g id="edge24" class="edge"><title>27&#45;&gt;18</title>
<path fill="none" stroke="grey" stroke-width="2" d="M459,-719.697C459,-711.983 459,-702.712 459,-694.112"/>
<polygon fill="grey" stroke="grey" points="462.5,-694.104 459,-684.104 455.5,-694.104 462.5,-694.104"/>
</g>
<!-- 28 -->
<g id="node29" class="node"><title>28</title>
<path fill="none" stroke="#d8d356" stroke-width="2" d="M488.25,-828C488.25,-828 429.75,-828 429.75,-828 423.75,-828 417.75,-822 417.75,-816 417.75,-816 417.75,-804 417.75,-804 417.75,-798 423.75,-792 429.75,-792 429.75,-792 488.25,-792 488.25,-792 494.25,-792 500.25,-798 500.25,-804 500.25,-804 500.25,-816 500.25,-816 500.25,-822 494.25,-828 488.25,-828"/>
<text text-anchor="middle" x="459" y="-807.5" font-family="sans" font-size="10.00">deepSea_PCA</text>
</g>
<!-- 28&#45;&gt;27 -->
<g id="edge36" class="edge"><title>28&#45;&gt;27</title>
<path fill="none" stroke="grey" stroke-width="2" d="M459,-791.697C459,-783.983 459,-774.712 459,-766.112"/>
<polygon fill="grey" stroke="grey" points="462.5,-766.104 459,-756.104 455.5,-766.104 462.5,-766.104"/>
</g>
<!-- 29 -->
<g id="node30" class="node"><title>29</title>
<path fill="none" stroke="#56d87b" stroke-width="2" d="M495,-900C495,-900 423,-900 423,-900 417,-900 411,-894 411,-888 411,-888 411,-876 411,-876 411,-870 417,-864 423,-864 423,-864 495,-864 495,-864 501,-864 507,-870 507,-876 507,-876 507,-888 507,-888 507,-894 501,-900 495,-900"/>
<text text-anchor="middle" x="459" y="-879.5" font-family="sans" font-size="10.00">concat_deepSea</text>
</g>
<!-- 29&#45;&gt;28 -->
<g id="edge37" class="edge"><title>29&#45;&gt;28</title>
<path fill="none" stroke="grey" stroke-width="2" d="M459,-863.697C459,-855.983 459,-846.712 459,-838.112"/>
<polygon fill="grey" stroke="grey" points="462.5,-838.104 459,-828.104 455.5,-838.104 462.5,-838.104"/>
</g>
<!-- 30&#45;&gt;29 -->
<g id="edge38" class="edge"><title>30&#45;&gt;29</title>
<path fill="none" stroke="grey" stroke-width="2" d="M463.517,-935.697C462.856,-927.983 462.061,-918.712 461.324,-910.112"/>
<polygon fill="grey" stroke="grey" points="464.807,-909.769 460.466,-900.104 457.833,-910.367 464.807,-909.769"/>
</g>
</g>
</svg>
