<?xml version="1.0" encoding="UTF-8" standalone="no"?>
<!DOCTYPE svg PUBLIC "-//W3C//DTD SVG 1.1//EN"
 "http://www.w3.org/Graphics/SVG/1.1/DTD/svg11.dtd">
<!-- Generated by graphviz version 2.30.1 (20201013.1554)
 -->
<!-- Title: snakemake_dag Pages: 1 -->
<svg width="499pt" height="980pt"
 viewBox="0.00 0.00 498.77 980.00" xmlns="http://www.w3.org/2000/svg" xmlns:xlink="http://www.w3.org/1999/xlink">
<g id="graph0" class="graph" transform="scale(1 1) rotate(0) translate(4 976)">
<title>snakemake_dag</title>
<polygon fill="white" stroke="white" points="-4,5 -4,-976 495.769,-976 495.769,5 -4,5"/>
<!-- 0 -->
<g id="node1" class="node"><title>0</title>
<path fill="none" stroke="#56b1d8" stroke-width="2" d="M209.769,-36C209.769,-36 179.769,-36 179.769,-36 173.769,-36 167.769,-30 167.769,-24 167.769,-24 167.769,-12 167.769,-12 167.769,-6 173.769,-0 179.769,-0 179.769,-0 209.769,-0 209.769,-0 215.769,-0 221.769,-6 221.769,-12 221.769,-12 221.769,-24 221.769,-24 221.769,-30 215.769,-36 209.769,-36"/>
<text text-anchor="middle" x="194.769" y="-15.5" font-family="sans" font-size="10.00">all</text>
</g>
<!-- 1 -->
<g id="node2" class="node"><title>1</title>
<path fill="none" stroke="#56c9d8" stroke-width="2" d="M258.769,-108C258.769,-108 130.769,-108 130.769,-108 124.769,-108 118.769,-102 118.769,-96 118.769,-96 118.769,-84 118.769,-84 118.769,-78 124.769,-72 130.769,-72 130.769,-72 258.769,-72 258.769,-72 264.769,-72 270.769,-78 270.769,-84 270.769,-84 270.769,-96 270.769,-96 270.769,-102 264.769,-108 258.769,-108"/>
<text text-anchor="middle" x="194.769" y="-87.5" font-family="sans" font-size="10.00">select_rename_fill_columns</text>
</g>
<!-- 1&#45;&gt;0 -->
<g id="edge1" class="edge"><title>1&#45;&gt;0</title>
<path fill="none" stroke="grey" stroke-width="2" d="M194.769,-71.6966C194.769,-63.9827 194.769,-54.7125 194.769,-46.1124"/>
<polygon fill="grey" stroke="grey" points="198.269,-46.1043 194.769,-36.1043 191.269,-46.1044 198.269,-46.1043"/>
</g>
<!-- 2 -->
<g id="node3" class="node"><title>2</title>
<path fill="none" stroke="#56d8b9" stroke-width="2" d="M248.769,-180C248.769,-180 140.769,-180 140.769,-180 134.769,-180 128.769,-174 128.769,-168 128.769,-168 128.769,-156 128.769,-156 128.769,-150 134.769,-144 140.769,-144 140.769,-144 248.769,-144 248.769,-144 254.769,-144 260.769,-150 260.769,-156 260.769,-156 260.769,-168 260.769,-168 260.769,-174 254.769,-180 248.769,-180"/>
<text text-anchor="middle" x="194.769" y="-159.5" font-family="sans" font-size="10.00">filter_by_exon_distance</text>
</g>
<!-- 2&#45;&gt;1 -->
<g id="edge2" class="edge"><title>2&#45;&gt;1</title>
<path fill="none" stroke="grey" stroke-width="2" d="M194.769,-143.697C194.769,-135.983 194.769,-126.712 194.769,-118.112"/>
<polygon fill="grey" stroke="grey" points="198.269,-118.104 194.769,-108.104 191.269,-118.104 198.269,-118.104"/>
</g>
<!-- 3 -->
<g id="node4" class="node"><title>3</title>
<path fill="none" stroke="#d85656" stroke-width="2" d="M224.019,-252C224.019,-252 165.519,-252 165.519,-252 159.519,-252 153.519,-246 153.519,-240 153.519,-240 153.519,-228 153.519,-228 153.519,-222 159.519,-216 165.519,-216 165.519,-216 224.019,-216 224.019,-216 230.019,-216 236.019,-222 236.019,-228 236.019,-228 236.019,-240 236.019,-240 236.019,-246 230.019,-252 224.019,-252"/>
<text text-anchor="middle" x="194.769" y="-231.5" font-family="sans" font-size="10.00">add_gene_ids</text>
</g>
<!-- 3&#45;&gt;2 -->
<g id="edge3" class="edge"><title>3&#45;&gt;2</title>
<path fill="none" stroke="grey" stroke-width="2" d="M194.769,-215.697C194.769,-207.983 194.769,-198.712 194.769,-190.112"/>
<polygon fill="grey" stroke="grey" points="198.269,-190.104 194.769,-180.104 191.269,-190.104 198.269,-190.104"/>
</g>
<!-- 4 -->
<g id="node5" class="node"><title>4</title>
<path fill="none" stroke="#56d8d0" stroke-width="2" d="M225.769,-324C225.769,-324 163.769,-324 163.769,-324 157.769,-324 151.769,-318 151.769,-312 151.769,-312 151.769,-300 151.769,-300 151.769,-294 157.769,-288 163.769,-288 163.769,-288 225.769,-288 225.769,-288 231.769,-288 237.769,-294 237.769,-300 237.769,-300 237.769,-312 237.769,-312 237.769,-318 231.769,-324 225.769,-324"/>
<text text-anchor="middle" x="194.769" y="-303.5" font-family="sans" font-size="10.00">calculate_MAF</text>
</g>
<!-- 4&#45;&gt;3 -->
<g id="edge4" class="edge"><title>4&#45;&gt;3</title>
<path fill="none" stroke="grey" stroke-width="2" d="M194.769,-287.697C194.769,-279.983 194.769,-270.712 194.769,-262.112"/>
<polygon fill="grey" stroke="grey" points="198.269,-262.104 194.769,-252.104 191.269,-262.104 198.269,-262.104"/>
</g>
<!-- 5 -->
<g id="node6" class="node"><title>5</title>
<path fill="none" stroke="#5682d8" stroke-width="2" d="M249.769,-396C249.769,-396 139.769,-396 139.769,-396 133.769,-396 127.769,-390 127.769,-384 127.769,-384 127.769,-372 127.769,-372 127.769,-366 133.769,-360 139.769,-360 139.769,-360 249.769,-360 249.769,-360 255.769,-360 261.769,-366 261.769,-372 261.769,-372 261.769,-384 261.769,-384 261.769,-390 255.769,-396 249.769,-396"/>
<text text-anchor="middle" x="194.769" y="-375.5" font-family="sans" font-size="10.00">merge_allele_frequency</text>
</g>
<!-- 5&#45;&gt;4 -->
<g id="edge5" class="edge"><title>5&#45;&gt;4</title>
<path fill="none" stroke="grey" stroke-width="2" d="M194.769,-359.697C194.769,-351.983 194.769,-342.712 194.769,-334.112"/>
<polygon fill="grey" stroke="grey" points="198.269,-334.104 194.769,-324.104 191.269,-334.104 198.269,-334.104"/>
</g>
<!-- 6 -->
<g id="node7" class="node"><title>6</title>
<path fill="none" stroke="#bed856" stroke-width="2" d="M178.019,-468C178.019,-468 55.5187,-468 55.5187,-468 49.5187,-468 43.5187,-462 43.5187,-456 43.5187,-456 43.5187,-444 43.5187,-444 43.5187,-438 49.5187,-432 55.5187,-432 55.5187,-432 178.019,-432 178.019,-432 184.019,-432 190.019,-438 190.019,-444 190.019,-444 190.019,-456 190.019,-456 190.019,-462 184.019,-468 178.019,-468"/>
<text text-anchor="middle" x="116.769" y="-447.5" font-family="sans" font-size="10.00">calculate_allele_frequency</text>
</g>
<!-- 6&#45;&gt;5 -->
<g id="edge6" class="edge"><title>6&#45;&gt;5</title>
<path fill="none" stroke="grey" stroke-width="2" d="M136.05,-431.697C145.684,-423.05 157.497,-412.449 167.996,-403.027"/>
<polygon fill="grey" stroke="grey" points="170.605,-405.388 175.71,-396.104 165.929,-400.179 170.605,-405.388"/>
</g>
<!-- 7 -->
<g id="node8" class="node"><title>7</title>
<path fill="none" stroke="#d88556" stroke-width="2" d="M327.019,-468C327.019,-468 220.519,-468 220.519,-468 214.519,-468 208.519,-462 208.519,-456 208.519,-456 208.519,-444 208.519,-444 208.519,-438 214.519,-432 220.519,-432 220.519,-432 327.019,-432 327.019,-432 333.019,-432 339.019,-438 339.019,-444 339.019,-444 339.019,-456 339.019,-456 339.019,-462 333.019,-468 327.019,-468"/>
<text text-anchor="middle" x="273.769" y="-447.5" font-family="sans" font-size="10.00">merge_absplice_scores</text>
</g>
<!-- 7&#45;&gt;5 -->
<g id="edge7" class="edge"><title>7&#45;&gt;5</title>
<path fill="none" stroke="grey" stroke-width="2" d="M254.241,-431.697C244.387,-422.965 232.283,-412.24 221.573,-402.75"/>
<polygon fill="grey" stroke="grey" points="223.878,-400.117 214.072,-396.104 219.236,-405.356 223.878,-400.117"/>
</g>
<!-- 8 -->
<g id="node9" class="node"><title>8</title>
<path fill="none" stroke="#d8b456" stroke-width="2" d="M387.019,-540C387.019,-540 262.519,-540 262.519,-540 256.519,-540 250.519,-534 250.519,-528 250.519,-528 250.519,-516 250.519,-516 250.519,-510 256.519,-504 262.519,-504 262.519,-504 387.019,-504 387.019,-504 393.019,-504 399.019,-510 399.019,-516 399.019,-516 399.019,-528 399.019,-528 399.019,-534 393.019,-540 387.019,-540"/>
<text text-anchor="middle" x="324.769" y="-519.5" font-family="sans" font-size="10.00">aggregate_absplice_scores</text>
</g>
<!-- 8&#45;&gt;7 -->
<g id="edge8" class="edge"><title>8&#45;&gt;7</title>
<path fill="none" stroke="grey" stroke-width="2" d="M312.162,-503.697C306.171,-495.474 298.892,-485.483 292.289,-476.421"/>
<polygon fill="grey" stroke="grey" points="294.948,-474.126 286.23,-468.104 289.29,-478.248 294.948,-474.126"/>
</g>
<!-- 9 -->
<g id="node10" class="node"><title>9</title>
<path fill="none" stroke="#569ad8" stroke-width="2" d="M321.769,-612C321.769,-612 223.769,-612 223.769,-612 217.769,-612 211.769,-606 211.769,-600 211.769,-600 211.769,-588 211.769,-588 211.769,-582 217.769,-576 223.769,-576 223.769,-576 321.769,-576 321.769,-576 327.769,-576 333.769,-582 333.769,-588 333.769,-588 333.769,-600 333.769,-600 333.769,-606 327.769,-612 321.769,-612"/>
<text text-anchor="middle" x="272.769" y="-591.5" font-family="sans" font-size="10.00">merge_deepsea_pcas</text>
</g>
<!-- 9&#45;&gt;7 -->
<g id="edge9" class="edge"><title>9&#45;&gt;7</title>
<path fill="none" stroke="grey" stroke-width="2" d="M259.204,-575.972C252.211,-566.09 244.402,-553.047 240.769,-540 236.476,-524.586 236.371,-519.384 240.769,-504 243.482,-494.51 248.44,-485.065 253.703,-476.834"/>
<polygon fill="grey" stroke="grey" points="256.691,-478.666 259.442,-468.434 250.911,-474.717 256.691,-478.666"/>
</g>
<!-- 9&#45;&gt;8 -->
<g id="edge10" class="edge"><title>9&#45;&gt;8</title>
<path fill="none" stroke="grey" stroke-width="2" d="M285.623,-575.697C291.794,-567.389 299.306,-557.277 306.093,-548.141"/>
<polygon fill="grey" stroke="grey" points="308.909,-550.219 312.063,-540.104 303.29,-546.045 308.909,-550.219"/>
</g>
<!-- 10 -->
<g id="node11" class="node"><title>10</title>
<path fill="none" stroke="#56d892" stroke-width="2" d="M244.769,-684C244.769,-684 156.769,-684 156.769,-684 150.769,-684 144.769,-678 144.769,-672 144.769,-672 144.769,-660 144.769,-660 144.769,-654 150.769,-648 156.769,-648 156.769,-648 244.769,-648 244.769,-648 250.769,-648 256.769,-654 256.769,-660 256.769,-660 256.769,-672 256.769,-672 256.769,-678 250.769,-684 244.769,-684"/>
<text text-anchor="middle" x="200.769" y="-663.5" font-family="sans" font-size="10.00">concat_annotations</text>
</g>
<!-- 10&#45;&gt;9 -->
<g id="edge12" class="edge"><title>10&#45;&gt;9</title>
<path fill="none" stroke="grey" stroke-width="2" d="M218.566,-647.697C227.373,-639.135 238.151,-628.656 247.77,-619.304"/>
<polygon fill="grey" stroke="grey" points="250.445,-621.585 255.176,-612.104 245.566,-616.566 250.445,-621.585"/>
</g>
<!-- 11 -->
<g id="node12" class="node"><title>11</title>
<path fill="none" stroke="#8fd856" stroke-width="2" d="M205.019,-756C205.019,-756 118.519,-756 118.519,-756 112.519,-756 106.519,-750 106.519,-744 106.519,-744 106.519,-732 106.519,-732 106.519,-726 112.519,-720 118.519,-720 118.519,-720 205.019,-720 205.019,-720 211.019,-720 217.019,-726 217.019,-732 217.019,-732 217.019,-744 217.019,-744 217.019,-750 211.019,-756 205.019,-756"/>
<text text-anchor="middle" x="161.769" y="-735.5" font-family="sans" font-size="10.00">merge_annotations</text>
</g>
<!-- 11&#45;&gt;10 -->
<g id="edge13" class="edge"><title>11&#45;&gt;10</title>
<path fill="none" stroke="grey" stroke-width="2" d="M171.409,-719.697C175.896,-711.644 181.327,-701.894 186.293,-692.982"/>
<polygon fill="grey" stroke="grey" points="189.43,-694.544 191.239,-684.104 183.315,-691.137 189.43,-694.544"/>
</g>
<!-- 12 -->
<g id="node13" class="node"><title>12</title>
<path fill="none" stroke="#56d863" stroke-width="2" d="M70.7687,-828C70.7687,-828 40.7687,-828 40.7687,-828 34.7687,-828 28.7687,-822 28.7687,-816 28.7687,-816 28.7687,-804 28.7687,-804 28.7687,-798 34.7687,-792 40.7687,-792 40.7687,-792 70.7687,-792 70.7687,-792 76.7687,-792 82.7687,-798 82.7687,-804 82.7687,-804 82.7687,-816 82.7687,-816 82.7687,-822 76.7687,-828 70.7687,-828"/>
<text text-anchor="middle" x="55.7687" y="-807.5" font-family="sans" font-size="10.00">vep</text>
</g>
<!-- 12&#45;&gt;11 -->
<g id="edge17" class="edge"><title>12&#45;&gt;11</title>
<path fill="none" stroke="grey" stroke-width="2" d="M81.6992,-791.876C95.4304,-782.808 112.475,-771.552 127.305,-761.759"/>
<polygon fill="grey" stroke="grey" points="129.323,-764.621 135.738,-756.19 125.465,-758.78 129.323,-764.621"/>
</g>
<!-- 13 -->
<g id="node14" class="node"><title>13</title>
<path fill="none" stroke="#a7d856" stroke-width="2" d="M110.769,-900C110.769,-900 42.7687,-900 42.7687,-900 36.7687,-900 30.7687,-894 30.7687,-888 30.7687,-888 30.7687,-876 30.7687,-876 30.7687,-870 36.7687,-864 42.7687,-864 42.7687,-864 110.769,-864 110.769,-864 116.769,-864 122.769,-870 122.769,-876 122.769,-876 122.769,-888 122.769,-888 122.769,-894 116.769,-900 110.769,-900"/>
<text text-anchor="middle" x="76.7687" y="-879.5" font-family="sans" font-size="10.00">strip_chr_name</text>
</g>
<!-- 13&#45;&gt;12 -->
<g id="edge19" class="edge"><title>13&#45;&gt;12</title>
<path fill="none" stroke="grey" stroke-width="2" d="M71.5777,-863.697C69.2381,-855.898 66.4212,-846.509 63.8174,-837.829"/>
<polygon fill="grey" stroke="grey" points="67.1259,-836.677 60.9,-828.104 60.4211,-838.688 67.1259,-836.677"/>
</g>
<!-- 14 -->
<g id="node15" class="node"><title>14</title>
<path fill="none" stroke="#d89c56" stroke-width="2" d="M187.769,-972C187.769,-972 115.769,-972 115.769,-972 109.769,-972 103.769,-966 103.769,-960 103.769,-960 103.769,-948 103.769,-948 103.769,-942 109.769,-936 115.769,-936 115.769,-936 187.769,-936 187.769,-936 193.769,-936 199.769,-942 199.769,-948 199.769,-948 199.769,-960 199.769,-960 199.769,-966 193.769,-972 187.769,-972"/>
<text text-anchor="middle" x="151.769" y="-951.5" font-family="sans" font-size="10.00">extract_variants</text>
</g>
<!-- 14&#45;&gt;11 -->
<g id="edge15" class="edge"><title>14&#45;&gt;11</title>
<path fill="none" stroke="grey" stroke-width="2" d="M103.681,-946.582C74.8514,-940.013 40.2944,-926.749 21.7687,-900 -5.56513,-860.533 -7.60701,-831.438 19.7687,-792 37.1507,-766.959 67.8781,-753.728 96.3138,-746.746"/>
<polygon fill="grey" stroke="grey" points="97.2534,-750.123 106.251,-744.528 95.7284,-743.291 97.2534,-750.123"/>
</g>
<!-- 14&#45;&gt;13 -->
<g id="edge20" class="edge"><title>14&#45;&gt;13</title>
<path fill="none" stroke="grey" stroke-width="2" d="M133.229,-935.697C123.965,-927.05 112.606,-916.449 102.512,-907.027"/>
<polygon fill="grey" stroke="grey" points="104.793,-904.369 95.0948,-900.104 100.017,-909.486 104.793,-904.369"/>
</g>
<!-- 15 -->
<g id="node16" class="node"><title>15</title>
<path fill="none" stroke="#d86e56" stroke-width="2" d="M190.019,-828C190.019,-828 113.519,-828 113.519,-828 107.519,-828 101.519,-822 101.519,-816 101.519,-816 101.519,-804 101.519,-804 101.519,-798 107.519,-792 113.519,-792 113.519,-792 190.019,-792 190.019,-792 196.019,-792 202.019,-798 202.019,-804 202.019,-804 202.019,-816 202.019,-816 202.019,-822 196.019,-828 190.019,-828"/>
<text text-anchor="middle" x="151.769" y="-807.5" font-family="sans" font-size="10.00">deepRiPe_parclip</text>
</g>
<!-- 14&#45;&gt;15 -->
<g id="edge21" class="edge"><title>14&#45;&gt;15</title>
<path fill="none" stroke="grey" stroke-width="2" d="M151.769,-935.871C151.769,-911.67 151.769,-867.211 151.769,-838.393"/>
<polygon fill="grey" stroke="grey" points="155.269,-838.189 151.769,-828.189 148.269,-838.189 155.269,-838.189"/>
</g>
<!-- 16 -->
<g id="node17" class="node"><title>16</title>
<path fill="none" stroke="#566bd8" stroke-width="2" d="M316.769,-828C316.769,-828 232.769,-828 232.769,-828 226.769,-828 220.769,-822 220.769,-816 220.769,-816 220.769,-804 220.769,-804 220.769,-798 226.769,-792 232.769,-792 232.769,-792 316.769,-792 316.769,-792 322.769,-792 328.769,-798 328.769,-804 328.769,-804 328.769,-816 328.769,-816 328.769,-822 322.769,-828 316.769,-828"/>
<text text-anchor="middle" x="274.769" y="-807.5" font-family="sans" font-size="10.00">deepRiPe_eclip_k5</text>
</g>
<!-- 14&#45;&gt;16 -->
<g id="edge22" class="edge"><title>14&#45;&gt;16</title>
<path fill="none" stroke="grey" stroke-width="2" d="M166.605,-935.871C188.215,-910.924 228.471,-864.45 253.31,-835.773"/>
<polygon fill="grey" stroke="grey" points="255.978,-838.039 259.879,-828.189 250.687,-833.456 255.978,-838.039"/>
</g>
<!-- 17 -->
<g id="node18" class="node"><title>17</title>
<path fill="none" stroke="#61d856" stroke-width="2" d="M359.769,-900C359.769,-900 269.769,-900 269.769,-900 263.769,-900 257.769,-894 257.769,-888 257.769,-888 257.769,-876 257.769,-876 257.769,-870 263.769,-864 269.769,-864 269.769,-864 359.769,-864 359.769,-864 365.769,-864 371.769,-870 371.769,-876 371.769,-876 371.769,-888 371.769,-888 371.769,-894 365.769,-900 359.769,-900"/>
<text text-anchor="middle" x="314.769" y="-879.5" font-family="sans" font-size="10.00">deepRiPe_eclip_hg2</text>
</g>
<!-- 14&#45;&gt;17 -->
<g id="edge23" class="edge"><title>14&#45;&gt;17</title>
<path fill="none" stroke="grey" stroke-width="2" d="M191.643,-935.876C213.926,-926.307 241.884,-914.3 265.525,-904.148"/>
<polygon fill="grey" stroke="grey" points="267.216,-907.23 275.024,-900.068 264.454,-900.798 267.216,-907.23"/>
</g>
<!-- 15&#45;&gt;11 -->
<g id="edge14" class="edge"><title>15&#45;&gt;11</title>
<path fill="none" stroke="grey" stroke-width="2" d="M154.241,-791.697C155.343,-783.983 156.667,-774.712 157.895,-766.112"/>
<polygon fill="grey" stroke="grey" points="161.376,-766.499 159.325,-756.104 154.446,-765.509 161.376,-766.499"/>
</g>
<!-- 16&#45;&gt;11 -->
<g id="edge18" class="edge"><title>16&#45;&gt;11</title>
<path fill="none" stroke="grey" stroke-width="2" d="M247.126,-791.876C232.351,-782.724 213.977,-771.342 198.066,-761.485"/>
<polygon fill="grey" stroke="grey" points="199.862,-758.481 189.518,-756.19 196.176,-764.431 199.862,-758.481"/>
</g>
<!-- 17&#45;&gt;11 -->
<g id="edge16" class="edge"><title>17&#45;&gt;11</title>
<path fill="none" stroke="grey" stroke-width="2" d="M326.94,-863.965C339.035,-844.747 353.667,-813.391 337.769,-792 312.519,-758.027 266.183,-745.031 227.392,-740.394"/>
<polygon fill="grey" stroke="grey" points="227.5,-736.887 217.194,-739.342 226.782,-743.85 227.5,-736.887"/>
</g>
<!-- 18 -->
<g id="node19" class="node"><title>18</title>
<path fill="none" stroke="#56d87b" stroke-width="2" d="M383.019,-684C383.019,-684 306.519,-684 306.519,-684 300.519,-684 294.519,-678 294.519,-672 294.519,-672 294.519,-660 294.519,-660 294.519,-654 300.519,-648 306.519,-648 306.519,-648 383.019,-648 383.019,-648 389.019,-648 395.019,-654 395.019,-660 395.019,-660 395.019,-672 395.019,-672 395.019,-678 389.019,-684 383.019,-684"/>
<text text-anchor="middle" x="344.769" y="-663.5" font-family="sans" font-size="10.00">add_ids_deepSea</text>
</g>
<!-- 18&#45;&gt;9 -->
<g id="edge11" class="edge"><title>18&#45;&gt;9</title>
<path fill="none" stroke="grey" stroke-width="2" d="M326.971,-647.697C318.165,-639.135 307.387,-628.656 297.768,-619.304"/>
<polygon fill="grey" stroke="grey" points="299.971,-616.566 290.362,-612.104 295.092,-621.585 299.971,-616.566"/>
</g>
<!-- 19 -->
<g id="node20" class="node"><title>19</title>
<path fill="none" stroke="#56d8a2" stroke-width="2" d="M452.019,-756C452.019,-756 393.519,-756 393.519,-756 387.519,-756 381.519,-750 381.519,-744 381.519,-744 381.519,-732 381.519,-732 381.519,-726 387.519,-720 393.519,-720 393.519,-720 452.019,-720 452.019,-720 458.019,-720 464.019,-726 464.019,-732 464.019,-732 464.019,-744 464.019,-744 464.019,-750 458.019,-756 452.019,-756"/>
<text text-anchor="middle" x="422.769" y="-735.5" font-family="sans" font-size="10.00">deepSea_PCA</text>
</g>
<!-- 19&#45;&gt;18 -->
<g id="edge24" class="edge"><title>19&#45;&gt;18</title>
<path fill="none" stroke="grey" stroke-width="2" d="M403.488,-719.697C393.853,-711.05 382.04,-700.449 371.542,-691.027"/>
<polygon fill="grey" stroke="grey" points="373.608,-688.179 363.828,-684.104 368.933,-693.388 373.608,-688.179"/>
</g>
<!-- 20 -->
<g id="node21" class="node"><title>20</title>
<path fill="none" stroke="#78d856" stroke-width="2" d="M468.769,-828C468.769,-828 396.769,-828 396.769,-828 390.769,-828 384.769,-822 384.769,-816 384.769,-816 384.769,-804 384.769,-804 384.769,-798 390.769,-792 396.769,-792 396.769,-792 468.769,-792 468.769,-792 474.769,-792 480.769,-798 480.769,-804 480.769,-804 480.769,-816 480.769,-816 480.769,-822 474.769,-828 468.769,-828"/>
<text text-anchor="middle" x="432.769" y="-807.5" font-family="sans" font-size="10.00">concat_deepSea</text>
</g>
<!-- 20&#45;&gt;19 -->
<g id="edge25" class="edge"><title>20&#45;&gt;19</title>
<path fill="none" stroke="grey" stroke-width="2" d="M430.297,-791.697C429.195,-783.983 427.87,-774.712 426.642,-766.112"/>
<polygon fill="grey" stroke="grey" points="430.091,-765.509 425.212,-756.104 423.162,-766.499 430.091,-765.509"/>
</g>
<!-- 21 -->
<g id="node22" class="node"><title>21</title>
<path fill="none" stroke="#d8c356" stroke-width="2" d="M450.019,-900C450.019,-900 415.519,-900 415.519,-900 409.519,-900 403.519,-894 403.519,-888 403.519,-888 403.519,-876 403.519,-876 403.519,-870 409.519,-864 415.519,-864 415.519,-864 450.019,-864 450.019,-864 456.019,-864 462.019,-870 462.019,-876 462.019,-876 462.019,-888 462.019,-888 462.019,-894 456.019,-900 450.019,-900"/>
<text text-anchor="middle" x="432.769" y="-879.5" font-family="sans" font-size="10.00">deepSea</text>
</g>
<!-- 21&#45;&gt;20 -->
<g id="edge26" class="edge"><title>21&#45;&gt;20</title>
<path fill="none" stroke="grey" stroke-width="2" d="M432.769,-863.697C432.769,-855.983 432.769,-846.712 432.769,-838.112"/>
<polygon fill="grey" stroke="grey" points="436.269,-838.104 432.769,-828.104 429.269,-838.104 436.269,-838.104"/>
</g>
<!-- 22 -->
<g id="node23" class="node"><title>22</title>
<path fill="none" stroke="#d6d856" stroke-width="2" d="M478.769,-972C478.769,-972 386.769,-972 386.769,-972 380.769,-972 374.769,-966 374.769,-960 374.769,-960 374.769,-948 374.769,-948 374.769,-942 380.769,-936 386.769,-936 386.769,-936 478.769,-936 478.769,-936 484.769,-936 490.769,-942 490.769,-948 490.769,-948 490.769,-960 490.769,-960 490.769,-966 484.769,-972 478.769,-972"/>
<text text-anchor="middle" x="432.769" y="-951.5" font-family="sans" font-size="10.00">extract_with_header</text>
</g>
<!-- 22&#45;&gt;21 -->
<g id="edge27" class="edge"><title>22&#45;&gt;21</title>
<path fill="none" stroke="grey" stroke-width="2" d="M432.769,-935.697C432.769,-927.983 432.769,-918.712 432.769,-910.112"/>
<polygon fill="grey" stroke="grey" points="436.269,-910.104 432.769,-900.104 429.269,-910.104 436.269,-910.104"/>
</g>
</g>
</svg>
