<?xml version="1.0" encoding="UTF-8" standalone="no"?>
<!DOCTYPE svg PUBLIC "-//W3C//DTD SVG 1.1//EN"
 "http://www.w3.org/Graphics/SVG/1.1/DTD/svg11.dtd">
<!-- Generated by graphviz version 10.0.1 (20240210.2158)
 -->
<!-- Title: snakemake_dag Pages: 1 -->
<svg width="362pt" height="692pt"
 viewBox="0.00 0.00 362.12 692.00" xmlns="http://www.w3.org/2000/svg" xmlns:xlink="http://www.w3.org/1999/xlink">
<g id="graph0" class="graph" transform="scale(1 1) rotate(0) translate(4 688)">
<title>snakemake_dag</title>
<polygon fill="white" stroke="none" points="-4,4 -4,-688 358.12,-688 358.12,4 -4,4"/>
<!-- 0 -->
<g id="node1" class="node">
<title>0</title>
<path fill="none" stroke="black" stroke-width="2" d="M222,-36C222,-36 192,-36 192,-36 186,-36 180,-30 180,-24 180,-24 180,-12 180,-12 180,-6 186,0 192,0 192,0 222,0 222,0 228,0 234,-6 234,-12 234,-12 234,-24 234,-24 234,-30 228,-36 222,-36"/>
<text text-anchor="middle" x="207" y="-14.12" font-family="sans" font-size="10.00">all</text>
</g>
<!-- 1 -->
<g id="node2" class="node">
<title>1</title>
<path fill="none" stroke="black" stroke-width="2" d="M166.5,-108C166.5,-108 87.5,-108 87.5,-108 81.5,-108 75.5,-102 75.5,-96 75.5,-96 75.5,-84 75.5,-84 75.5,-78 81.5,-72 87.5,-72 87.5,-72 166.5,-72 166.5,-72 172.5,-72 178.5,-78 178.5,-84 178.5,-84 178.5,-96 178.5,-96 178.5,-102 172.5,-108 166.5,-108"/>
<text text-anchor="middle" x="127" y="-86.12" font-family="sans" font-size="10.00">combine_genotypes</text>
</g>
<!-- 1&#45;&gt;0 -->
<g id="edge1" class="edge">
<title>1&#45;&gt;0</title>
<path fill="none" stroke="grey" stroke-width="2" d="M147.19,-71.34C156.21,-63.44 167.04,-53.96 176.99,-45.26"/>
<polygon fill="grey" stroke="grey" stroke-width="2" points="179.04,-48.11 184.26,-38.9 174.43,-42.85 179.04,-48.11"/>
</g>
<!-- 2 -->
<g id="node3" class="node">
<title>2</title>
<path fill="none" stroke="black" stroke-width="2" d="M162.75,-180C162.75,-180 91.25,-180 91.25,-180 85.25,-180 79.25,-174 79.25,-168 79.25,-168 79.25,-156 79.25,-156 79.25,-150 85.25,-144 91.25,-144 91.25,-144 162.75,-144 162.75,-144 168.75,-144 174.75,-150 174.75,-156 174.75,-156 174.75,-168 174.75,-168 174.75,-174 168.75,-180 162.75,-180"/>
<text text-anchor="middle" x="127" y="-158.12" font-family="sans" font-size="10.00">preprocess_no_qc</text>
</g>
<!-- 2&#45;&gt;1 -->
<g id="edge4" class="edge">
<title>2&#45;&gt;1</title>
<path fill="none" stroke="grey" stroke-width="2" d="M127,-143.34C127,-136.75 127,-129.08 127,-121.67"/>
<polygon fill="grey" stroke="grey" stroke-width="2" points="130.5,-121.93 127,-111.93 123.5,-121.93 130.5,-121.93"/>
</g>
<!-- 3 -->
<g id="node4" class="node">
<title>3</title>
<path fill="none" stroke="black" stroke-width="2" d="M342.12,-252C342.12,-252 281.88,-252 281.88,-252 275.88,-252 269.88,-246 269.88,-240 269.88,-240 269.88,-228 269.88,-228 269.88,-222 275.88,-216 281.88,-216 281.88,-216 342.12,-216 342.12,-216 348.12,-216 354.12,-222 354.12,-228 354.12,-228 354.12,-240 354.12,-240 354.12,-246 348.12,-252 342.12,-252"/>
<text text-anchor="middle" x="312" y="-230.12" font-family="sans" font-size="10.00">add_variant_ids</text>
</g>
<!-- 3&#45;&gt;0 -->
<g id="edge2" class="edge">
<title>3&#45;&gt;0</title>
<path fill="none" stroke="grey" stroke-width="2" d="M303.23,-215.12C285.16,-178.3 243.65,-93.69 221.51,-48.58"/>
<polygon fill="grey" stroke="grey" stroke-width="2" points="224.7,-47.13 217.15,-39.69 218.42,-50.21 224.7,-47.13"/>
</g>
<!-- 3&#45;&gt;2 -->
<g id="edge6" class="edge">
<title>3&#45;&gt;2</title>
<path fill="none" stroke="grey" stroke-width="2" d="M269.09,-216.76C244.56,-207.48 213.43,-195.7 186.56,-185.54"/>
<polygon fill="grey" stroke="grey" stroke-width="2" points="187.97,-182.33 177.38,-182.06 185.5,-188.88 187.97,-182.33"/>
</g>
<!-- 4 -->
<g id="node5" class="node">
<title>4</title>
<path fill="none" stroke="black" stroke-width="2" d="M241.5,-324C241.5,-324 156.5,-324 156.5,-324 150.5,-324 144.5,-318 144.5,-312 144.5,-312 144.5,-300 144.5,-300 144.5,-294 150.5,-288 156.5,-288 156.5,-288 241.5,-288 241.5,-288 247.5,-288 253.5,-294 253.5,-300 253.5,-300 253.5,-312 253.5,-312 253.5,-318 247.5,-324 241.5,-324"/>
<text text-anchor="middle" x="199" y="-302.12" font-family="sans" font-size="10.00">concatenate_variants</text>
</g>
<!-- 4&#45;&gt;3 -->
<g id="edge9" class="edge">
<title>4&#45;&gt;3</title>
<path fill="none" stroke="grey" stroke-width="2" d="M227.81,-287.15C241.35,-278.76 257.72,-268.62 272.41,-259.52"/>
<polygon fill="grey" stroke="grey" stroke-width="2" points="274.01,-262.65 280.67,-254.41 270.33,-256.7 274.01,-262.65"/>
</g>
<!-- 12 -->
<g id="node13" class="node">
<title>12</title>
<path fill="none" stroke="black" stroke-width="2" d="M239.5,-252C239.5,-252 130.5,-252 130.5,-252 124.5,-252 118.5,-246 118.5,-240 118.5,-240 118.5,-228 118.5,-228 118.5,-222 124.5,-216 130.5,-216 130.5,-216 239.5,-216 239.5,-216 245.5,-216 251.5,-222 251.5,-228 251.5,-228 251.5,-240 251.5,-240 251.5,-246 245.5,-252 239.5,-252"/>
<text text-anchor="middle" x="185" y="-230.12" font-family="sans" font-size="10.00">create_parquet_variant_ids</text>
</g>
<!-- 4&#45;&gt;12 -->
<g id="edge18" class="edge">
<title>4&#45;&gt;12</title>
<path fill="none" stroke="grey" stroke-width="2" d="M195.47,-287.34C194.15,-280.75 192.62,-273.08 191.13,-265.67"/>
<polygon fill="grey" stroke="grey" stroke-width="2" points="194.57,-264.99 189.17,-255.87 187.7,-266.36 194.57,-264.99"/>
</g>
<!-- 5 -->
<g id="node6" class="node">
<title>5</title>
<path fill="none" stroke="black" stroke-width="2" d="M202,-396C202,-396 172,-396 172,-396 166,-396 160,-390 160,-384 160,-384 160,-372 160,-372 160,-366 166,-360 172,-360 172,-360 202,-360 202,-360 208,-360 214,-366 214,-372 214,-372 214,-384 214,-384 214,-390 208,-396 202,-396"/>
<text text-anchor="middle" x="187" y="-374.12" font-family="sans" font-size="10.00">variants</text>
</g>
<!-- 5&#45;&gt;4 -->
<g id="edge10" class="edge">
<title>5&#45;&gt;4</title>
<path fill="none" stroke="grey" stroke-width="2" d="M190.03,-359.34C191.16,-352.75 192.47,-345.08 193.74,-337.67"/>
<polygon fill="grey" stroke="grey" stroke-width="2" points="197.18,-338.33 195.42,-327.89 190.28,-337.15 197.18,-338.33"/>
</g>
<!-- 6 -->
<g id="node7" class="node">
<title>6</title>
<path fill="none" stroke="black" stroke-width="2" d="M165,-468C165,-468 131,-468 131,-468 125,-468 119,-462 119,-456 119,-456 119,-444 119,-444 119,-438 125,-432 131,-432 131,-432 165,-432 165,-432 171,-432 177,-438 177,-444 177,-444 177,-456 177,-456 177,-462 171,-468 165,-468"/>
<text text-anchor="middle" x="148" y="-446.12" font-family="sans" font-size="10.00">normalize</text>
</g>
<!-- 6&#45;&gt;5 -->
<g id="edge11" class="edge">
<title>6&#45;&gt;5</title>
<path fill="none" stroke="grey" stroke-width="2" d="M157.84,-431.34C161.74,-424.34 166.32,-416.12 170.69,-408.28"/>
<polygon fill="grey" stroke="grey" stroke-width="2" points="173.74,-409.99 175.55,-399.55 167.63,-406.58 173.74,-409.99"/>
</g>
<!-- 13 -->
<g id="node14" class="node">
<title>13</title>
<path fill="none" stroke="black" stroke-width="2" d="M114,-324C114,-324 84,-324 84,-324 78,-324 72,-318 72,-312 72,-312 72,-300 72,-300 72,-294 78,-288 84,-288 84,-288 114,-288 114,-288 120,-288 126,-294 126,-300 126,-300 126,-312 126,-312 126,-318 120,-324 114,-324"/>
<text text-anchor="middle" x="99" y="-302.12" font-family="sans" font-size="10.00">sparsify</text>
</g>
<!-- 6&#45;&gt;13 -->
<g id="edge19" class="edge">
<title>6&#45;&gt;13</title>
<path fill="none" stroke="grey" stroke-width="2" d="M141.79,-431.02C133.62,-407.33 119.14,-365.35 109.31,-336.86"/>
<polygon fill="grey" stroke="grey" stroke-width="2" points="112.71,-336.01 106.14,-327.7 106.1,-338.29 112.71,-336.01"/>
</g>
<!-- 7 -->
<g id="node8" class="node">
<title>7</title>
<path fill="none" stroke="black" stroke-width="2" d="M76,-540C76,-540 12,-540 12,-540 6,-540 0,-534 0,-528 0,-528 0,-516 0,-516 0,-510 6,-504 12,-504 12,-504 76,-504 76,-504 82,-504 88,-510 88,-516 88,-516 88,-528 88,-528 88,-534 82,-540 76,-540"/>
<text text-anchor="middle" x="44" y="-518.12" font-family="sans" font-size="10.00">extract_samples</text>
</g>
<!-- 7&#45;&gt;2 -->
<g id="edge7" class="edge">
<title>7&#45;&gt;2</title>
<path fill="none" stroke="grey" stroke-width="2" d="M44,-503.07C44,-476.13 44,-423.62 44,-379 44,-379 44,-379 44,-305 44,-260.18 75.2,-216.95 99.34,-190.2"/>
<polygon fill="grey" stroke="grey" stroke-width="2" points="101.81,-192.68 106.1,-182.99 96.7,-187.89 101.81,-192.68"/>
</g>
<!-- 7&#45;&gt;6 -->
<g id="edge12" class="edge">
<title>7&#45;&gt;6</title>
<path fill="none" stroke="grey" stroke-width="2" d="M70.51,-503.15C82.74,-494.93 97.46,-485.02 110.77,-476.06"/>
<polygon fill="grey" stroke="grey" stroke-width="2" points="112.68,-478.99 119.02,-470.5 108.77,-473.18 112.68,-478.99"/>
</g>
<!-- 8 -->
<g id="node9" class="node">
<title>8</title>
<path fill="none" stroke="black" stroke-width="2" d="M239.12,-612C239.12,-612 196.88,-612 196.88,-612 190.88,-612 184.88,-606 184.88,-600 184.88,-600 184.88,-588 184.88,-588 184.88,-582 190.88,-576 196.88,-576 196.88,-576 239.12,-576 239.12,-576 245.12,-576 251.12,-582 251.12,-588 251.12,-588 251.12,-600 251.12,-600 251.12,-606 245.12,-612 239.12,-612"/>
<text text-anchor="middle" x="218" y="-590.12" font-family="sans" font-size="10.00">index_fasta</text>
</g>
<!-- 8&#45;&gt;6 -->
<g id="edge13" class="edge">
<title>8&#45;&gt;6</title>
<path fill="none" stroke="grey" stroke-width="2" d="M217.08,-575.3C215.48,-556.61 211.08,-526.74 199,-504 194.03,-494.64 186.92,-485.78 179.59,-478.08"/>
<polygon fill="grey" stroke="grey" stroke-width="2" points="182.07,-475.62 172.48,-471.12 177.17,-480.62 182.07,-475.62"/>
</g>
<!-- 9 -->
<g id="node10" class="node">
<title>9</title>
<path fill="none" stroke="black" stroke-width="2" d="M178.12,-540C178.12,-540 117.88,-540 117.88,-540 111.88,-540 105.88,-534 105.88,-528 105.88,-528 105.88,-516 105.88,-516 105.88,-510 111.88,-504 117.88,-504 117.88,-504 178.12,-504 178.12,-504 184.12,-504 190.12,-510 190.12,-516 190.12,-516 190.12,-528 190.12,-528 190.12,-534 184.12,-540 178.12,-540"/>
<text text-anchor="middle" x="148" y="-518.12" font-family="sans" font-size="10.00">expand_regions</text>
</g>
<!-- 8&#45;&gt;9 -->
<g id="edge15" class="edge">
<title>8&#45;&gt;9</title>
<path fill="none" stroke="grey" stroke-width="2" d="M200.34,-575.34C192.69,-567.69 183.56,-558.56 175.08,-550.08"/>
<polygon fill="grey" stroke="grey" stroke-width="2" points="177.59,-547.64 168.04,-543.04 172.64,-552.59 177.59,-547.64"/>
</g>
<!-- 9&#45;&gt;6 -->
<g id="edge14" class="edge">
<title>9&#45;&gt;6</title>
<path fill="none" stroke="grey" stroke-width="2" d="M148,-503.34C148,-496.75 148,-489.08 148,-481.67"/>
<polygon fill="grey" stroke="grey" stroke-width="2" points="151.5,-481.93 148,-471.93 144.5,-481.93 151.5,-481.93"/>
</g>
<!-- 10 -->
<g id="node11" class="node">
<title>10</title>
<path fill="none" stroke="black" stroke-width="2" d="M155,-612C155,-612 115,-612 115,-612 109,-612 103,-606 103,-600 103,-600 103,-588 103,-588 103,-582 109,-576 115,-576 115,-576 155,-576 155,-576 161,-576 167,-582 167,-588 167,-588 167,-600 167,-600 167,-606 161,-612 155,-612"/>
<text text-anchor="middle" x="135" y="-590.12" font-family="sans" font-size="10.00">create_bed</text>
</g>
<!-- 10&#45;&gt;9 -->
<g id="edge16" class="edge">
<title>10&#45;&gt;9</title>
<path fill="none" stroke="grey" stroke-width="2" d="M138.28,-575.34C139.5,-568.75 140.93,-561.08 142.3,-553.67"/>
<polygon fill="grey" stroke="grey" stroke-width="2" points="145.74,-554.35 144.12,-543.88 138.86,-553.07 145.74,-554.35"/>
</g>
<!-- 11 -->
<g id="node12" class="node">
<title>11</title>
<path fill="none" stroke="black" stroke-width="2" d="M150,-684C150,-684 120,-684 120,-684 114,-684 108,-678 108,-672 108,-672 108,-660 108,-660 108,-654 114,-648 120,-648 120,-648 150,-648 150,-648 156,-648 162,-654 162,-660 162,-660 162,-672 162,-672 162,-678 156,-684 150,-684"/>
<text text-anchor="middle" x="135" y="-662.12" font-family="sans" font-size="10.00">fiter_gtf</text>
</g>
<!-- 11&#45;&gt;10 -->
<g id="edge17" class="edge">
<title>11&#45;&gt;10</title>
<path fill="none" stroke="grey" stroke-width="2" d="M135,-647.34C135,-640.75 135,-633.08 135,-625.67"/>
<polygon fill="grey" stroke="grey" stroke-width="2" points="138.5,-625.93 135,-615.93 131.5,-625.93 138.5,-625.93"/>
</g>
<!-- 12&#45;&gt;0 -->
<g id="edge3" class="edge">
<title>12&#45;&gt;0</title>
<path fill="none" stroke="grey" stroke-width="2" d="M186.84,-215.12C190.59,-178.62 199.17,-95.13 203.84,-49.74"/>
<polygon fill="grey" stroke="grey" stroke-width="2" points="207.3,-50.29 204.84,-39.99 200.34,-49.58 207.3,-50.29"/>
</g>
<!-- 12&#45;&gt;2 -->
<g id="edge5" class="edge">
<title>12&#45;&gt;2</title>
<path fill="none" stroke="grey" stroke-width="2" d="M170.36,-215.34C164.23,-207.93 156.95,-199.14 150.12,-190.9"/>
<polygon fill="grey" stroke="grey" stroke-width="2" points="152.84,-188.7 143.76,-183.23 147.45,-193.17 152.84,-188.7"/>
</g>
<!-- 13&#45;&gt;2 -->
<g id="edge8" class="edge">
<title>13&#45;&gt;2</title>
<path fill="none" stroke="grey" stroke-width="2" d="M99.88,-287.08C101.03,-268.98 103.58,-240.28 109,-216 110.69,-208.44 113.07,-200.44 115.55,-193.02"/>
<polygon fill="grey" stroke="grey" stroke-width="2" points="118.8,-194.32 118.84,-183.73 112.21,-191.99 118.8,-194.32"/>
</g>
</g>
</svg>
