<?xml version="1.0" encoding="UTF-8" standalone="no"?>
<!DOCTYPE svg PUBLIC "-//W3C//DTD SVG 1.1//EN"
 "http://www.w3.org/Graphics/SVG/1.1/DTD/svg11.dtd">
<!-- Generated by graphviz version 9.0.0 (20230911.1827)
 -->
<!-- Title: snakemake_dag Pages: 1 -->
<svg width="629pt" height="620pt"
 viewBox="0.00 0.00 628.60 620.00" xmlns="http://www.w3.org/2000/svg" xmlns:xlink="http://www.w3.org/1999/xlink">
<g id="graph0" class="graph" transform="scale(1 1) rotate(0) translate(4 616)">
<title>snakemake_dag</title>
<polygon fill="white" stroke="none" points="-4,4 -4,-616 624.6,-616 624.6,4 -4,4"/>
<!-- 0 -->
<g id="node1" class="node">
<title>0</title>
<path fill="none" stroke="#bed856" stroke-width="2" d="M466.48,-36C466.48,-36 436.48,-36 436.48,-36 430.48,-36 424.48,-30 424.48,-24 424.48,-24 424.48,-12 424.48,-12 424.48,-6 430.48,0 436.48,0 436.48,0 466.48,0 466.48,0 472.48,0 478.48,-6 478.48,-12 478.48,-12 478.48,-24 478.48,-24 478.48,-30 472.48,-36 466.48,-36"/>
<text text-anchor="middle" x="451.48" y="-14.12" font-family="sans" font-size="10.00">all</text>
</g>
<!-- 1 -->
<g id="node2" class="node">
<title>1</title>
<path fill="none" stroke="#9fd856" stroke-width="2" d="M365.98,-108C365.98,-108 286.98,-108 286.98,-108 280.98,-108 274.98,-102 274.98,-96 274.98,-96 274.98,-84 274.98,-84 274.98,-78 280.98,-72 286.98,-72 286.98,-72 365.98,-72 365.98,-72 371.98,-72 377.98,-78 377.98,-84 377.98,-84 377.98,-96 377.98,-96 377.98,-102 371.98,-108 365.98,-108"/>
<text text-anchor="middle" x="326.48" y="-86.12" font-family="sans" font-size="10.00">combine_genotypes</text>
</g>
<!-- 1&#45;&gt;0 -->
<g id="edge2" class="edge">
<title>1&#45;&gt;0</title>
<path fill="none" stroke="grey" stroke-width="2" d="M358.34,-71.15C374.84,-61.92 395.12,-50.56 412.54,-40.81"/>
<polygon fill="grey" stroke="grey" stroke-width="2" points="413.84,-44.09 420.86,-36.15 410.42,-37.98 413.84,-44.09"/>
</g>
<!-- 2 -->
<g id="node3" class="node">
<title>2</title>
<path fill="none" stroke="#56d8a2" stroke-width="2" d="M338.98,-180C338.98,-180 259.98,-180 259.98,-180 253.98,-180 247.98,-174 247.98,-168 247.98,-168 247.98,-156 247.98,-156 247.98,-150 253.98,-144 259.98,-144 259.98,-144 338.98,-144 338.98,-144 344.98,-144 350.98,-150 350.98,-156 350.98,-156 350.98,-168 350.98,-168 350.98,-174 344.98,-180 338.98,-180"/>
<text text-anchor="middle" x="299.48" y="-158.12" font-family="sans" font-size="10.00">preprocess_with_qc</text>
</g>
<!-- 2&#45;&gt;1 -->
<g id="edge4" class="edge">
<title>2&#45;&gt;1</title>
<path fill="none" stroke="grey" stroke-width="2" d="M306.29,-143.34C308.93,-136.51 312.01,-128.5 314.97,-120.83"/>
<polygon fill="grey" stroke="grey" stroke-width="2" points="318.15,-122.32 318.48,-111.73 311.62,-119.8 318.15,-122.32"/>
</g>
<!-- 3 -->
<g id="node4" class="node">
<title>3</title>
<path fill="none" stroke="#5692d8" stroke-width="2" d="M608.6,-252C608.6,-252 548.35,-252 548.35,-252 542.35,-252 536.35,-246 536.35,-240 536.35,-240 536.35,-228 536.35,-228 536.35,-222 542.35,-216 548.35,-216 548.35,-216 608.6,-216 608.6,-216 614.6,-216 620.6,-222 620.6,-228 620.6,-228 620.6,-240 620.6,-240 620.6,-246 614.6,-252 608.6,-252"/>
<text text-anchor="middle" x="578.48" y="-230.12" font-family="sans" font-size="10.00">add_variant_ids</text>
</g>
<!-- 3&#45;&gt;0 -->
<g id="edge3" class="edge">
<title>3&#45;&gt;0</title>
<path fill="none" stroke="grey" stroke-width="2" d="M567.87,-215.12C545.92,-178.14 495.37,-92.96 468.69,-48"/>
<polygon fill="grey" stroke="grey" stroke-width="2" points="471.81,-46.39 463.69,-39.58 465.79,-49.97 471.81,-46.39"/>
</g>
<!-- 3&#45;&gt;2 -->
<g id="edge12" class="edge">
<title>3&#45;&gt;2</title>
<path fill="none" stroke="grey" stroke-width="2" d="M535.44,-218.34C532.75,-217.52 530.08,-216.74 527.48,-216 472.96,-200.61 410.21,-186.27 364.36,-176.39"/>
<polygon fill="grey" stroke="grey" stroke-width="2" points="365.37,-173.03 354.86,-174.36 363.91,-179.88 365.37,-173.03"/>
</g>
<!-- 4 -->
<g id="node5" class="node">
<title>4</title>
<path fill="none" stroke="#88d856" stroke-width="2" d="M575.98,-324C575.98,-324 490.98,-324 490.98,-324 484.98,-324 478.98,-318 478.98,-312 478.98,-312 478.98,-300 478.98,-300 478.98,-294 484.98,-288 490.98,-288 490.98,-288 575.98,-288 575.98,-288 581.98,-288 587.98,-294 587.98,-300 587.98,-300 587.98,-312 587.98,-312 587.98,-318 581.98,-324 575.98,-324"/>
<text text-anchor="middle" x="533.48" y="-302.12" font-family="sans" font-size="10.00">concatenate_variants</text>
</g>
<!-- 4&#45;&gt;3 -->
<g id="edge14" class="edge">
<title>4&#45;&gt;3</title>
<path fill="none" stroke="grey" stroke-width="2" d="M544.83,-287.34C549.43,-280.18 554.87,-271.73 560.01,-263.73"/>
<polygon fill="grey" stroke="grey" stroke-width="2" points="562.87,-265.75 565.33,-255.45 556.98,-261.97 562.87,-265.75"/>
</g>
<!-- 10 -->
<g id="node11" class="node">
<title>10</title>
<path fill="none" stroke="#56b1d8" stroke-width="2" d="M505.98,-252C505.98,-252 396.98,-252 396.98,-252 390.98,-252 384.98,-246 384.98,-240 384.98,-240 384.98,-228 384.98,-228 384.98,-222 390.98,-216 396.98,-216 396.98,-216 505.98,-216 505.98,-216 511.98,-216 517.98,-222 517.98,-228 517.98,-228 517.98,-240 517.98,-240 517.98,-246 511.98,-252 505.98,-252"/>
<text text-anchor="middle" x="451.48" y="-230.12" font-family="sans" font-size="10.00">create_parquet_variant_ids</text>
</g>
<!-- 4&#45;&gt;10 -->
<g id="edge21" class="edge">
<title>4&#45;&gt;10</title>
<path fill="none" stroke="grey" stroke-width="2" d="M512.79,-287.34C503.53,-279.44 492.44,-269.96 482.24,-261.26"/>
<polygon fill="grey" stroke="grey" stroke-width="2" points="484.63,-258.7 474.75,-254.87 480.08,-264.02 484.63,-258.7"/>
</g>
<!-- 5 -->
<g id="node6" class="node">
<title>5</title>
<path fill="none" stroke="#d8d356" stroke-width="2" d="M515.48,-396C515.48,-396 485.48,-396 485.48,-396 479.48,-396 473.48,-390 473.48,-384 473.48,-384 473.48,-372 473.48,-372 473.48,-366 479.48,-360 485.48,-360 485.48,-360 515.48,-360 515.48,-360 521.48,-360 527.48,-366 527.48,-372 527.48,-372 527.48,-384 527.48,-384 527.48,-390 521.48,-396 515.48,-396"/>
<text text-anchor="middle" x="500.48" y="-374.12" font-family="sans" font-size="10.00">variants</text>
</g>
<!-- 5&#45;&gt;4 -->
<g id="edge15" class="edge">
<title>5&#45;&gt;4</title>
<path fill="none" stroke="grey" stroke-width="2" d="M508.81,-359.34C512.06,-352.43 515.89,-344.31 519.54,-336.56"/>
<polygon fill="grey" stroke="grey" stroke-width="2" points="522.65,-338.18 523.75,-327.64 516.32,-335.19 522.65,-338.18"/>
</g>
<!-- 6 -->
<g id="node7" class="node">
<title>6</title>
<path fill="none" stroke="#56d863" stroke-width="2" d="M317.48,-468C317.48,-468 283.48,-468 283.48,-468 277.48,-468 271.48,-462 271.48,-456 271.48,-456 271.48,-444 271.48,-444 271.48,-438 277.48,-432 283.48,-432 283.48,-432 317.48,-432 317.48,-432 323.48,-432 329.48,-438 329.48,-444 329.48,-444 329.48,-456 329.48,-456 329.48,-462 323.48,-468 317.48,-468"/>
<text text-anchor="middle" x="300.48" y="-446.12" font-family="sans" font-size="10.00">normalize</text>
</g>
<!-- 6&#45;&gt;5 -->
<g id="edge16" class="edge">
<title>6&#45;&gt;5</title>
<path fill="none" stroke="grey" stroke-width="2" d="M330.42,-438.52C364.98,-426.42 421.98,-406.48 460.35,-393.04"/>
<polygon fill="grey" stroke="grey" stroke-width="2" points="461.45,-396.37 469.74,-389.76 459.14,-389.76 461.45,-396.37"/>
</g>
<!-- 11 -->
<g id="node12" class="node">
<title>11</title>
<path fill="none" stroke="#5673d8" stroke-width="2" d="M315.48,-396C315.48,-396 285.48,-396 285.48,-396 279.48,-396 273.48,-390 273.48,-384 273.48,-384 273.48,-372 273.48,-372 273.48,-366 279.48,-360 285.48,-360 285.48,-360 315.48,-360 315.48,-360 321.48,-360 327.48,-366 327.48,-372 327.48,-372 327.48,-384 327.48,-384 327.48,-390 321.48,-396 315.48,-396"/>
<text text-anchor="middle" x="300.48" y="-374.12" font-family="sans" font-size="10.00">sparsify</text>
</g>
<!-- 6&#45;&gt;11 -->
<g id="edge22" class="edge">
<title>6&#45;&gt;11</title>
<path fill="none" stroke="grey" stroke-width="2" d="M300.48,-431.34C300.48,-424.75 300.48,-417.08 300.48,-409.67"/>
<polygon fill="grey" stroke="grey" stroke-width="2" points="303.98,-409.93 300.48,-399.93 296.98,-409.93 303.98,-409.93"/>
</g>
<!-- 12 -->
<g id="node13" class="node">
<title>12</title>
<path fill="none" stroke="#56d882" stroke-width="2" d="M243.6,-396C243.6,-396 201.35,-396 201.35,-396 195.35,-396 189.35,-390 189.35,-384 189.35,-384 189.35,-372 189.35,-372 189.35,-366 195.35,-360 201.35,-360 201.35,-360 243.6,-360 243.6,-360 249.6,-360 255.6,-366 255.6,-372 255.6,-372 255.6,-384 255.6,-384 255.6,-390 249.6,-396 243.6,-396"/>
<text text-anchor="middle" x="222.48" y="-374.12" font-family="sans" font-size="10.00">qc_varmiss</text>
</g>
<!-- 6&#45;&gt;12 -->
<g id="edge23" class="edge">
<title>6&#45;&gt;12</title>
<path fill="none" stroke="grey" stroke-width="2" d="M280.8,-431.34C272.09,-423.52 261.66,-414.16 252.04,-405.53"/>
<polygon fill="grey" stroke="grey" stroke-width="2" points="254.46,-403 244.68,-398.92 249.78,-408.21 254.46,-403"/>
</g>
<!-- 13 -->
<g id="node14" class="node">
<title>13</title>
<path fill="none" stroke="#56d8c1" stroke-width="2" d="M448.48,-324C448.48,-324 418.48,-324 418.48,-324 412.48,-324 406.48,-318 406.48,-312 406.48,-312 406.48,-300 406.48,-300 406.48,-294 412.48,-288 418.48,-288 418.48,-288 448.48,-288 448.48,-288 454.48,-288 460.48,-294 460.48,-300 460.48,-300 460.48,-312 460.48,-312 460.48,-318 454.48,-324 448.48,-324"/>
<text text-anchor="middle" x="433.48" y="-302.12" font-family="sans" font-size="10.00">qc_hwe</text>
</g>
<!-- 6&#45;&gt;13 -->
<g id="edge24" class="edge">
<title>6&#45;&gt;13</title>
<path fill="none" stroke="grey" stroke-width="2" d="M319.29,-431.16C329.81,-421.02 343.07,-407.99 354.48,-396 373.64,-375.85 394.49,-352.29 409.96,-334.47"/>
<polygon fill="grey" stroke="grey" stroke-width="2" points="412.52,-336.86 416.41,-327.01 407.22,-332.28 412.52,-336.86"/>
</g>
<!-- 14 -->
<g id="node15" class="node">
<title>14</title>
<path fill="none" stroke="#d87556" stroke-width="2" d="M376.35,-324C376.35,-324 320.6,-324 320.6,-324 314.6,-324 308.6,-318 308.6,-312 308.6,-312 308.6,-300 308.6,-300 308.6,-294 314.6,-288 320.6,-288 320.6,-288 376.35,-288 376.35,-288 382.35,-288 388.35,-294 388.35,-300 388.35,-300 388.35,-312 388.35,-312 388.35,-318 382.35,-324 376.35,-324"/>
<text text-anchor="middle" x="348.48" y="-302.12" font-family="sans" font-size="10.00">qc_read_depth</text>
</g>
<!-- 6&#45;&gt;14 -->
<g id="edge25" class="edge">
<title>6&#45;&gt;14</title>
<path fill="none" stroke="grey" stroke-width="2" d="M315.76,-431.06C323.23,-421.31 331.63,-408.67 336.48,-396 343.55,-377.5 346.56,-355.44 347.8,-337.92"/>
<polygon fill="grey" stroke="grey" stroke-width="2" points="351.29,-338.17 348.3,-328.01 344.3,-337.82 351.29,-338.17"/>
</g>
<!-- 15 -->
<g id="node16" class="node">
<title>15</title>
<path fill="none" stroke="#d85656" stroke-width="2" d="M202.48,-324C202.48,-324 120.48,-324 120.48,-324 114.48,-324 108.48,-318 108.48,-312 108.48,-312 108.48,-300 108.48,-300 108.48,-294 114.48,-288 120.48,-288 120.48,-288 202.48,-288 202.48,-288 208.48,-288 214.48,-294 214.48,-300 214.48,-300 214.48,-312 214.48,-312 214.48,-318 208.48,-324 202.48,-324"/>
<text text-anchor="middle" x="161.48" y="-302.12" font-family="sans" font-size="10.00">qc_allelic_imbalance</text>
</g>
<!-- 6&#45;&gt;15 -->
<g id="edge26" class="edge">
<title>6&#45;&gt;15</title>
<path fill="none" stroke="grey" stroke-width="2" d="M270.64,-443.8C243.06,-437.39 203.03,-423.74 180.48,-396 167.23,-379.7 162.62,-356.33 161.24,-337.63"/>
<polygon fill="grey" stroke="grey" stroke-width="2" points="164.75,-337.6 160.86,-327.74 157.75,-337.87 164.75,-337.6"/>
</g>
<!-- 7 -->
<g id="node8" class="node">
<title>7</title>
<path fill="none" stroke="#d89556" stroke-width="2" d="M106.48,-540C106.48,-540 42.48,-540 42.48,-540 36.48,-540 30.48,-534 30.48,-528 30.48,-528 30.48,-516 30.48,-516 30.48,-510 36.48,-504 42.48,-504 42.48,-504 106.48,-504 106.48,-504 112.48,-504 118.48,-510 118.48,-516 118.48,-516 118.48,-528 118.48,-528 118.48,-534 112.48,-540 106.48,-540"/>
<text text-anchor="middle" x="74.48" y="-518.12" font-family="sans" font-size="10.00">extract_samples</text>
</g>
<!-- 7&#45;&gt;2 -->
<g id="edge8" class="edge">
<title>7&#45;&gt;2</title>
<path fill="none" stroke="grey" stroke-width="2" d="M58.5,-503.19C37.29,-477.63 2.48,-428.2 2.48,-379 2.48,-379 2.48,-379 2.48,-305 2.48,-264.55 -7.43,-244.28 21.48,-216 51.05,-187.07 162,-173.27 234.48,-167.21"/>
<polygon fill="grey" stroke="grey" stroke-width="2" points="234.38,-170.73 244.07,-166.44 233.82,-163.75 234.38,-170.73"/>
</g>
<!-- 7&#45;&gt;6 -->
<g id="edge19" class="edge">
<title>7&#45;&gt;6</title>
<path fill="none" stroke="grey" stroke-width="2" d="M119.4,-507.09C159.85,-494.56 218.86,-476.28 258.41,-464.03"/>
<polygon fill="grey" stroke="grey" stroke-width="2" points="259.36,-467.4 267.87,-461.1 257.29,-460.71 259.36,-467.4"/>
</g>
<!-- 8 -->
<g id="node9" class="node">
<title>8</title>
<path fill="none" stroke="#68d856" stroke-width="2" d="M332.48,-612C332.48,-612 268.48,-612 268.48,-612 262.48,-612 256.48,-606 256.48,-600 256.48,-600 256.48,-588 256.48,-588 256.48,-582 262.48,-576 268.48,-576 268.48,-576 332.48,-576 332.48,-576 338.48,-576 344.48,-582 344.48,-588 344.48,-588 344.48,-600 344.48,-600 344.48,-606 338.48,-612 332.48,-612"/>
<text text-anchor="middle" x="300.48" y="-590.12" font-family="sans" font-size="10.00">uppercase_fasta</text>
</g>
<!-- 8&#45;&gt;6 -->
<g id="edge18" class="edge">
<title>8&#45;&gt;6</title>
<path fill="none" stroke="grey" stroke-width="2" d="M305.6,-575.02C308.23,-564.84 311.16,-551.81 312.48,-540 314.26,-524.1 314.26,-519.9 312.48,-504 311.65,-496.62 310.2,-488.76 308.58,-481.42"/>
<polygon fill="grey" stroke="grey" stroke-width="2" points="312.04,-480.83 306.3,-471.93 305.23,-482.47 312.04,-480.83"/>
</g>
<!-- 9 -->
<g id="node10" class="node">
<title>9</title>
<path fill="none" stroke="#d8b456" stroke-width="2" d="M291.6,-540C291.6,-540 249.35,-540 249.35,-540 243.35,-540 237.35,-534 237.35,-528 237.35,-528 237.35,-516 237.35,-516 237.35,-510 243.35,-504 249.35,-504 249.35,-504 291.6,-504 291.6,-504 297.6,-504 303.6,-510 303.6,-516 303.6,-516 303.6,-528 303.6,-528 303.6,-534 297.6,-540 291.6,-540"/>
<text text-anchor="middle" x="270.48" y="-518.12" font-family="sans" font-size="10.00">index_fasta</text>
</g>
<!-- 8&#45;&gt;9 -->
<g id="edge20" class="edge">
<title>8&#45;&gt;9</title>
<path fill="none" stroke="grey" stroke-width="2" d="M292.91,-575.34C289.98,-568.51 286.55,-560.5 283.26,-552.83"/>
<polygon fill="grey" stroke="grey" stroke-width="2" points="286.5,-551.5 279.34,-543.68 280.06,-554.25 286.5,-551.5"/>
</g>
<!-- 9&#45;&gt;6 -->
<g id="edge17" class="edge">
<title>9&#45;&gt;6</title>
<path fill="none" stroke="grey" stroke-width="2" d="M278.05,-503.34C280.97,-496.51 284.41,-488.5 287.69,-480.83"/>
<polygon fill="grey" stroke="grey" stroke-width="2" points="290.89,-482.25 291.61,-471.68 284.46,-479.5 290.89,-482.25"/>
</g>
<!-- 10&#45;&gt;0 -->
<g id="edge1" class="edge">
<title>10&#45;&gt;0</title>
<path fill="none" stroke="grey" stroke-width="2" d="M451.48,-215.12C451.48,-178.62 451.48,-95.13 451.48,-49.74"/>
<polygon fill="grey" stroke="grey" stroke-width="2" points="454.98,-50 451.48,-40 447.98,-50 454.98,-50"/>
</g>
<!-- 10&#45;&gt;2 -->
<g id="edge11" class="edge">
<title>10&#45;&gt;2</title>
<path fill="none" stroke="grey" stroke-width="2" d="M412.73,-215.15C393.69,-206.38 370.5,-195.71 350.07,-186.3"/>
<polygon fill="grey" stroke="grey" stroke-width="2" points="351.72,-183.2 341.17,-182.2 348.79,-189.56 351.72,-183.2"/>
</g>
<!-- 11&#45;&gt;2 -->
<g id="edge6" class="edge">
<title>11&#45;&gt;2</title>
<path fill="none" stroke="grey" stroke-width="2" d="M300.06,-359.33C299.84,-349.03 299.59,-335.78 299.48,-324 299.05,-278.71 299.16,-226.26 299.31,-193.85"/>
<polygon fill="grey" stroke="grey" stroke-width="2" points="302.81,-193.91 299.35,-183.9 295.81,-193.88 302.81,-193.91"/>
</g>
<!-- 12&#45;&gt;2 -->
<g id="edge13" class="edge">
<title>12&#45;&gt;2</title>
<path fill="none" stroke="grey" stroke-width="2" d="M228.91,-359.12C242.1,-322.46 272.34,-238.41 288.63,-193.16"/>
<polygon fill="grey" stroke="grey" stroke-width="2" points="291.89,-194.42 291.98,-183.83 285.31,-192.05 291.89,-194.42"/>
</g>
<!-- 13&#45;&gt;2 -->
<g id="edge9" class="edge">
<title>13&#45;&gt;2</title>
<path fill="none" stroke="grey" stroke-width="2" d="M413.19,-287.12C402.07,-277.08 388.21,-264.16 376.48,-252 357.39,-232.21 337.09,-208.63 322.13,-190.71"/>
<polygon fill="grey" stroke="grey" stroke-width="2" points="324.99,-188.69 315.92,-183.22 319.6,-193.16 324.99,-188.69"/>
</g>
<!-- 14&#45;&gt;2 -->
<g id="edge7" class="edge">
<title>14&#45;&gt;2</title>
<path fill="none" stroke="grey" stroke-width="2" d="M342.27,-287.02C334.1,-263.33 319.61,-221.35 309.78,-192.86"/>
<polygon fill="grey" stroke="grey" stroke-width="2" points="313.19,-192.01 306.62,-183.7 306.57,-194.29 313.19,-192.01"/>
</g>
<!-- 15&#45;&gt;2 -->
<g id="edge5" class="edge">
<title>15&#45;&gt;2</title>
<path fill="none" stroke="grey" stroke-width="2" d="M172.74,-287.1C185.09,-268.24 206.14,-238.25 228.48,-216 238.39,-206.13 250.22,-196.58 261.35,-188.38"/>
<polygon fill="grey" stroke="grey" stroke-width="2" points="263.17,-191.38 269.27,-182.71 259.1,-185.69 263.17,-191.38"/>
</g>
<!-- 16 -->
<g id="node17" class="node">
<title>16</title>
<path fill="none" stroke="#56d0d8" stroke-width="2" d="M163.98,-252C163.98,-252 42.98,-252 42.98,-252 36.98,-252 30.98,-246 30.98,-240 30.98,-240 30.98,-228 30.98,-228 30.98,-222 36.98,-216 42.98,-216 42.98,-216 163.98,-216 163.98,-216 169.98,-216 175.98,-222 175.98,-228 175.98,-228 175.98,-240 175.98,-240 175.98,-246 169.98,-252 163.98,-252"/>
<text text-anchor="middle" x="103.48" y="-230.12" font-family="sans" font-size="10.00">create_excluded_samples_dir</text>
</g>
<!-- 16&#45;&gt;2 -->
<g id="edge10" class="edge">
<title>16&#45;&gt;2</title>
<path fill="none" stroke="grey" stroke-width="2" d="M153.7,-215.06C179.17,-205.97 210.35,-194.83 237.33,-185.2"/>
<polygon fill="grey" stroke="grey" stroke-width="2" points="238.3,-188.57 246.54,-181.91 235.94,-181.97 238.3,-188.57"/>
</g>
</g>
</svg>
