<?xml version="1.0" encoding="UTF-8" standalone="no"?>
<!DOCTYPE svg PUBLIC "-//W3C//DTD SVG 1.1//EN"
 "http://www.w3.org/Graphics/SVG/1.1/DTD/svg11.dtd">
<!-- Generated by graphviz version 11.0.0 (20240428.1522)
 -->
<!-- Title: snakemake_dag Pages: 1 -->
<svg width="621pt" height="548pt"
 viewBox="0.00 0.00 620.50 548.00" xmlns="http://www.w3.org/2000/svg" xmlns:xlink="http://www.w3.org/1999/xlink">
<g id="graph0" class="graph" transform="scale(1 1) rotate(0) translate(4 544)">
<title>snakemake_dag</title>
<polygon fill="white" stroke="none" points="-4,4 -4,-544 616.5,-544 616.5,4 -4,4"/>
<!-- 0 -->
<g id="node1" class="node">
<title>0</title>
<path fill="none" stroke="black" stroke-width="2" d="M449,-36C449,-36 419,-36 419,-36 413,-36 407,-30 407,-24 407,-24 407,-12 407,-12 407,-6 413,0 419,0 419,0 449,0 449,0 455,0 461,-6 461,-12 461,-12 461,-24 461,-24 461,-30 455,-36 449,-36"/>
<text text-anchor="middle" x="434" y="-14.12" font-family="sans" font-size="10.00">all</text>
</g>
<!-- 1 -->
<g id="node2" class="node">
<title>1</title>
<path fill="none" stroke="black" stroke-width="2" d="M333.5,-108C333.5,-108 254.5,-108 254.5,-108 248.5,-108 242.5,-102 242.5,-96 242.5,-96 242.5,-84 242.5,-84 242.5,-78 248.5,-72 254.5,-72 254.5,-72 333.5,-72 333.5,-72 339.5,-72 345.5,-78 345.5,-84 345.5,-84 345.5,-96 345.5,-96 345.5,-102 339.5,-108 333.5,-108"/>
<text text-anchor="middle" x="294" y="-86.12" font-family="sans" font-size="10.00">combine_genotypes</text>
</g>
<!-- 1&#45;&gt;0 -->
<g id="edge2" class="edge">
<title>1&#45;&gt;0</title>
<path fill="none" stroke="grey" stroke-width="2" d="M329.69,-71.15C349.6,-61.2 374.43,-48.78 394.87,-38.57"/>
<polygon fill="grey" stroke="grey" stroke-width="2" points="396.24,-41.79 403.62,-34.19 393.11,-35.53 396.24,-41.79"/>
</g>
<!-- 2 -->
<g id="node3" class="node">
<title>2</title>
<path fill="none" stroke="black" stroke-width="2" d="M283,-180C283,-180 243,-180 243,-180 237,-180 231,-174 231,-168 231,-168 231,-156 231,-156 231,-150 237,-144 243,-144 243,-144 283,-144 283,-144 289,-144 295,-150 295,-156 295,-156 295,-168 295,-168 295,-174 289,-180 283,-180"/>
<text text-anchor="middle" x="263" y="-158.12" font-family="sans" font-size="10.00">preprocess</text>
</g>
<!-- 2&#45;&gt;1 -->
<g id="edge4" class="edge">
<title>2&#45;&gt;1</title>
<path fill="none" stroke="grey" stroke-width="2" d="M270.82,-143.34C273.88,-136.43 277.48,-128.31 280.91,-120.56"/>
<polygon fill="grey" stroke="grey" stroke-width="2" points="284,-122.23 284.85,-111.67 277.6,-119.4 284,-122.23"/>
</g>
<!-- 3 -->
<g id="node4" class="node">
<title>3</title>
<path fill="none" stroke="black" stroke-width="2" d="M591.12,-252C591.12,-252 530.88,-252 530.88,-252 524.88,-252 518.88,-246 518.88,-240 518.88,-240 518.88,-228 518.88,-228 518.88,-222 524.88,-216 530.88,-216 530.88,-216 591.12,-216 591.12,-216 597.12,-216 603.12,-222 603.12,-228 603.12,-228 603.12,-240 603.12,-240 603.12,-246 597.12,-252 591.12,-252"/>
<text text-anchor="middle" x="561" y="-230.12" font-family="sans" font-size="10.00">add_variant_ids</text>
</g>
<!-- 3&#45;&gt;0 -->
<g id="edge3" class="edge">
<title>3&#45;&gt;0</title>
<path fill="none" stroke="grey" stroke-width="2" d="M550.39,-215.12C528.45,-178.14 477.89,-92.96 451.21,-48"/>
<polygon fill="grey" stroke="grey" stroke-width="2" points="454.33,-46.39 446.21,-39.58 448.31,-49.97 454.33,-46.39"/>
</g>
<!-- 3&#45;&gt;2 -->
<g id="edge5" class="edge">
<title>3&#45;&gt;2</title>
<path fill="none" stroke="grey" stroke-width="2" d="M517.97,-218.29C515.28,-217.48 512.61,-216.71 510,-216 440.29,-196.96 357.98,-180.48 308.18,-171.14"/>
<polygon fill="grey" stroke="grey" stroke-width="2" points="309.09,-167.75 298.62,-169.37 307.81,-174.63 309.09,-167.75"/>
</g>
<!-- 4 -->
<g id="node5" class="node">
<title>4</title>
<path fill="none" stroke="black" stroke-width="2" d="M600.5,-324C600.5,-324 515.5,-324 515.5,-324 509.5,-324 503.5,-318 503.5,-312 503.5,-312 503.5,-300 503.5,-300 503.5,-294 509.5,-288 515.5,-288 515.5,-288 600.5,-288 600.5,-288 606.5,-288 612.5,-294 612.5,-300 612.5,-300 612.5,-312 612.5,-312 612.5,-318 606.5,-324 600.5,-324"/>
<text text-anchor="middle" x="558" y="-302.12" font-family="sans" font-size="10.00">concatenate_variants</text>
</g>
<!-- 4&#45;&gt;3 -->
<g id="edge14" class="edge">
<title>4&#45;&gt;3</title>
<path fill="none" stroke="grey" stroke-width="2" d="M558.76,-287.34C559.04,-280.75 559.37,-273.08 559.69,-265.67"/>
<polygon fill="grey" stroke="grey" stroke-width="2" points="563.17,-266.07 560.1,-255.93 556.18,-265.77 563.17,-266.07"/>
</g>
<!-- 9 -->
<g id="node10" class="node">
<title>9</title>
<path fill="none" stroke="black" stroke-width="2" d="M488.5,-252C488.5,-252 379.5,-252 379.5,-252 373.5,-252 367.5,-246 367.5,-240 367.5,-240 367.5,-228 367.5,-228 367.5,-222 373.5,-216 379.5,-216 379.5,-216 488.5,-216 488.5,-216 494.5,-216 500.5,-222 500.5,-228 500.5,-228 500.5,-240 500.5,-240 500.5,-246 494.5,-252 488.5,-252"/>
<text text-anchor="middle" x="434" y="-230.12" font-family="sans" font-size="10.00">create_parquet_variant_ids</text>
</g>
<!-- 4&#45;&gt;9 -->
<g id="edge19" class="edge">
<title>4&#45;&gt;9</title>
<path fill="none" stroke="grey" stroke-width="2" d="M526.39,-287.15C511.23,-278.6 492.85,-268.22 476.49,-258.99"/>
<polygon fill="grey" stroke="grey" stroke-width="2" points="478.62,-256.17 468.19,-254.3 475.18,-262.26 478.62,-256.17"/>
</g>
<!-- 5 -->
<g id="node6" class="node">
<title>5</title>
<path fill="none" stroke="black" stroke-width="2" d="M536,-396C536,-396 506,-396 506,-396 500,-396 494,-390 494,-384 494,-384 494,-372 494,-372 494,-366 500,-360 506,-360 506,-360 536,-360 536,-360 542,-360 548,-366 548,-372 548,-372 548,-384 548,-384 548,-390 542,-396 536,-396"/>
<text text-anchor="middle" x="521" y="-374.12" font-family="sans" font-size="10.00">variants</text>
</g>
<!-- 5&#45;&gt;4 -->
<g id="edge15" class="edge">
<title>5&#45;&gt;4</title>
<path fill="none" stroke="grey" stroke-width="2" d="M530.34,-359.34C534.03,-352.34 538.38,-344.12 542.52,-336.28"/>
<polygon fill="grey" stroke="grey" stroke-width="2" points="545.54,-338.05 547.12,-327.58 539.36,-334.78 545.54,-338.05"/>
</g>
<!-- 6 -->
<g id="node7" class="node">
<title>6</title>
<path fill="none" stroke="black" stroke-width="2" d="M217,-468C217,-468 183,-468 183,-468 177,-468 171,-462 171,-456 171,-456 171,-444 171,-444 171,-438 177,-432 183,-432 183,-432 217,-432 217,-432 223,-432 229,-438 229,-444 229,-444 229,-456 229,-456 229,-462 223,-468 217,-468"/>
<text text-anchor="middle" x="200" y="-446.12" font-family="sans" font-size="10.00">normalize</text>
</g>
<!-- 6&#45;&gt;5 -->
<g id="edge16" class="edge">
<title>6&#45;&gt;5</title>
<path fill="none" stroke="grey" stroke-width="2" d="M229.81,-442.81C276.43,-433.1 369.37,-413.56 448,-396 458.65,-393.62 470.16,-390.98 480.83,-388.49"/>
<polygon fill="grey" stroke="grey" stroke-width="2" points="481.41,-391.95 490.35,-386.27 479.81,-385.14 481.41,-391.95"/>
</g>
<!-- 10 -->
<g id="node11" class="node">
<title>10</title>
<path fill="none" stroke="black" stroke-width="2" d="M70,-324C70,-324 40,-324 40,-324 34,-324 28,-318 28,-312 28,-312 28,-300 28,-300 28,-294 34,-288 40,-288 40,-288 70,-288 70,-288 76,-288 82,-294 82,-300 82,-300 82,-312 82,-312 82,-318 76,-324 70,-324"/>
<text text-anchor="middle" x="55" y="-302.12" font-family="sans" font-size="10.00">sparsify</text>
</g>
<!-- 6&#45;&gt;10 -->
<g id="edge20" class="edge">
<title>6&#45;&gt;10</title>
<path fill="none" stroke="grey" stroke-width="2" d="M170.25,-439.87C147.45,-431.57 116.5,-417.33 96,-396 80.18,-379.54 69.67,-355.87 63.26,-337.08"/>
<polygon fill="grey" stroke="grey" stroke-width="2" points="66.62,-336.1 60.29,-327.6 59.95,-338.19 66.62,-336.1"/>
</g>
<!-- 11 -->
<g id="node12" class="node">
<title>11</title>
<path fill="none" stroke="black" stroke-width="2" d="M125.12,-252C125.12,-252 82.88,-252 82.88,-252 76.88,-252 70.88,-246 70.88,-240 70.88,-240 70.88,-228 70.88,-228 70.88,-222 76.88,-216 82.88,-216 82.88,-216 125.12,-216 125.12,-216 131.12,-216 137.12,-222 137.12,-228 137.12,-228 137.12,-240 137.12,-240 137.12,-246 131.12,-252 125.12,-252"/>
<text text-anchor="middle" x="104" y="-230.12" font-family="sans" font-size="10.00">qc_varmiss</text>
</g>
<!-- 6&#45;&gt;11 -->
<g id="edge21" class="edge">
<title>6&#45;&gt;11</title>
<path fill="none" stroke="grey" stroke-width="2" d="M187.96,-431.08C172.51,-407.42 145.72,-364.08 129,-324 121.11,-305.09 114.87,-282.91 110.6,-265.42"/>
<polygon fill="grey" stroke="grey" stroke-width="2" points="114.03,-264.71 108.35,-255.77 107.21,-266.3 114.03,-264.71"/>
</g>
<!-- 12 -->
<g id="node13" class="node">
<title>12</title>
<path fill="none" stroke="black" stroke-width="2" d="M180,-324C180,-324 150,-324 150,-324 144,-324 138,-318 138,-312 138,-312 138,-300 138,-300 138,-294 144,-288 150,-288 150,-288 180,-288 180,-288 186,-288 192,-294 192,-300 192,-300 192,-312 192,-312 192,-318 186,-324 180,-324"/>
<text text-anchor="middle" x="165" y="-302.12" font-family="sans" font-size="10.00">qc_hwe</text>
</g>
<!-- 6&#45;&gt;12 -->
<g id="edge22" class="edge">
<title>6&#45;&gt;12</title>
<path fill="none" stroke="grey" stroke-width="2" d="M195.57,-431.02C189.76,-407.44 179.48,-365.73 172.46,-337.25"/>
<polygon fill="grey" stroke="grey" stroke-width="2" points="175.91,-336.65 170.12,-327.78 169.12,-338.32 175.91,-336.65"/>
</g>
<!-- 13 -->
<g id="node14" class="node">
<title>13</title>
<path fill="none" stroke="black" stroke-width="2" d="M260.88,-252C260.88,-252 205.12,-252 205.12,-252 199.12,-252 193.12,-246 193.12,-240 193.12,-240 193.12,-228 193.12,-228 193.12,-222 199.12,-216 205.12,-216 205.12,-216 260.88,-216 260.88,-216 266.88,-216 272.88,-222 272.88,-228 272.88,-228 272.88,-240 272.88,-240 272.88,-246 266.88,-252 260.88,-252"/>
<text text-anchor="middle" x="233" y="-230.12" font-family="sans" font-size="10.00">qc_read_depth</text>
</g>
<!-- 6&#45;&gt;13 -->
<g id="edge23" class="edge">
<title>6&#45;&gt;13</title>
<path fill="none" stroke="grey" stroke-width="2" d="M202.76,-431.12C208.39,-394.62 221.26,-311.13 228.26,-265.74"/>
<polygon fill="grey" stroke="grey" stroke-width="2" points="231.7,-266.39 229.77,-255.97 224.78,-265.32 231.7,-266.39"/>
</g>
<!-- 14 -->
<g id="node15" class="node">
<title>14</title>
<path fill="none" stroke="black" stroke-width="2" d="M342,-396C342,-396 260,-396 260,-396 254,-396 248,-390 248,-384 248,-384 248,-372 248,-372 248,-366 254,-360 260,-360 260,-360 342,-360 342,-360 348,-360 354,-366 354,-372 354,-372 354,-384 354,-384 354,-390 348,-396 342,-396"/>
<text text-anchor="middle" x="301" y="-374.12" font-family="sans" font-size="10.00">qc_allelic_imbalance</text>
</g>
<!-- 6&#45;&gt;14 -->
<g id="edge24" class="edge">
<title>6&#45;&gt;14</title>
<path fill="none" stroke="grey" stroke-width="2" d="M225.75,-431.15C237.62,-422.93 251.92,-413.02 264.84,-404.06"/>
<polygon fill="grey" stroke="grey" stroke-width="2" points="266.59,-407.11 272.81,-398.54 262.6,-401.36 266.59,-407.11"/>
</g>
<!-- 16 -->
<g id="node17" class="node">
<title>16</title>
<path fill="none" stroke="black" stroke-width="2" d="M426.75,-396C426.75,-396 385.25,-396 385.25,-396 379.25,-396 373.25,-390 373.25,-384 373.25,-384 373.25,-372 373.25,-372 373.25,-366 379.25,-360 385.25,-360 385.25,-360 426.75,-360 426.75,-360 432.75,-360 438.75,-366 438.75,-372 438.75,-372 438.75,-384 438.75,-384 438.75,-390 432.75,-396 426.75,-396"/>
<text text-anchor="middle" x="406" y="-374.12" font-family="sans" font-size="10.00">qc_indmiss</text>
</g>
<!-- 6&#45;&gt;16 -->
<g id="edge26" class="edge">
<title>6&#45;&gt;16</title>
<path fill="none" stroke="grey" stroke-width="2" d="M229.93,-439.88C260.4,-430.47 309.22,-415.02 360.3,-396.85"/>
<polygon fill="grey" stroke="grey" stroke-width="2" points="361.19,-400.25 369.42,-393.58 358.83,-393.67 361.19,-400.25"/>
</g>
<!-- 7 -->
<g id="node8" class="node">
<title>7</title>
<path fill="none" stroke="black" stroke-width="2" d="M102,-540C102,-540 38,-540 38,-540 32,-540 26,-534 26,-528 26,-528 26,-516 26,-516 26,-510 32,-504 38,-504 38,-504 102,-504 102,-504 108,-504 114,-510 114,-516 114,-516 114,-528 114,-528 114,-534 108,-540 102,-540"/>
<text text-anchor="middle" x="70" y="-518.12" font-family="sans" font-size="10.00">extract_samples</text>
</g>
<!-- 7&#45;&gt;2 -->
<g id="edge7" class="edge">
<title>7&#45;&gt;2</title>
<path fill="none" stroke="grey" stroke-width="2" d="M54.46,-503.11C33.84,-477.46 0,-427.92 0,-379 0,-379 0,-379 0,-305 0,-260.47 11.01,-243.53 46,-216 95.62,-176.96 169.9,-166.14 217.4,-163.44"/>
<polygon fill="grey" stroke="grey" stroke-width="2" points="217.48,-166.94 227.31,-163 217.17,-159.94 217.48,-166.94"/>
</g>
<!-- 7&#45;&gt;6 -->
<g id="edge18" class="edge">
<title>7&#45;&gt;6</title>
<path fill="none" stroke="grey" stroke-width="2" d="M103.14,-503.15C120.05,-494.05 140.78,-482.89 158.72,-473.23"/>
<polygon fill="grey" stroke="grey" stroke-width="2" points="160.22,-476.39 167.37,-468.57 156.9,-470.23 160.22,-476.39"/>
</g>
<!-- 8 -->
<g id="node9" class="node">
<title>8</title>
<path fill="none" stroke="black" stroke-width="2" d="M221.12,-540C221.12,-540 178.88,-540 178.88,-540 172.88,-540 166.88,-534 166.88,-528 166.88,-528 166.88,-516 166.88,-516 166.88,-510 172.88,-504 178.88,-504 178.88,-504 221.12,-504 221.12,-504 227.12,-504 233.12,-510 233.12,-516 233.12,-516 233.12,-528 233.12,-528 233.12,-534 227.12,-540 221.12,-540"/>
<text text-anchor="middle" x="200" y="-518.12" font-family="sans" font-size="10.00">index_fasta</text>
</g>
<!-- 8&#45;&gt;6 -->
<g id="edge17" class="edge">
<title>8&#45;&gt;6</title>
<path fill="none" stroke="grey" stroke-width="2" d="M200,-503.34C200,-496.75 200,-489.08 200,-481.67"/>
<polygon fill="grey" stroke="grey" stroke-width="2" points="203.5,-481.93 200,-471.93 196.5,-481.93 203.5,-481.93"/>
</g>
<!-- 9&#45;&gt;0 -->
<g id="edge1" class="edge">
<title>9&#45;&gt;0</title>
<path fill="none" stroke="grey" stroke-width="2" d="M434,-215.12C434,-178.62 434,-95.13 434,-49.74"/>
<polygon fill="grey" stroke="grey" stroke-width="2" points="437.5,-50 434,-40 430.5,-50 437.5,-50"/>
</g>
<!-- 9&#45;&gt;2 -->
<g id="edge13" class="edge">
<title>9&#45;&gt;2</title>
<path fill="none" stroke="grey" stroke-width="2" d="M390.41,-215.15C365.15,-204.82 333.41,-191.82 307.93,-181.39"/>
<polygon fill="grey" stroke="grey" stroke-width="2" points="309.37,-178.2 298.79,-177.65 306.71,-184.68 309.37,-178.2"/>
</g>
<!-- 10&#45;&gt;2 -->
<g id="edge11" class="edge">
<title>10&#45;&gt;2</title>
<path fill="none" stroke="grey" stroke-width="2" d="M50.87,-287.06C47.46,-267.31 45.51,-235.75 62,-216 81.72,-192.38 164.38,-176.71 217.36,-168.88"/>
<polygon fill="grey" stroke="grey" stroke-width="2" points="217.73,-172.36 227.13,-167.48 216.74,-165.43 217.73,-172.36"/>
</g>
<!-- 11&#45;&gt;2 -->
<g id="edge12" class="edge">
<title>11&#45;&gt;2</title>
<path fill="none" stroke="grey" stroke-width="2" d="M138.11,-217.98C161.58,-207.65 193,-193.82 218.45,-182.61"/>
<polygon fill="grey" stroke="grey" stroke-width="2" points="219.52,-185.97 227.27,-178.73 216.7,-179.56 219.52,-185.97"/>
</g>
<!-- 12&#45;&gt;2 -->
<g id="edge9" class="edge">
<title>12&#45;&gt;2</title>
<path fill="none" stroke="grey" stroke-width="2" d="M164.97,-287.09C165.76,-267.95 169.47,-237.46 184,-216 192.82,-202.96 206.03,-192.29 219.13,-184.02"/>
<polygon fill="grey" stroke="grey" stroke-width="2" points="220.54,-187.25 227.4,-179.18 217,-181.21 220.54,-187.25"/>
</g>
<!-- 13&#45;&gt;2 -->
<g id="edge6" class="edge">
<title>13&#45;&gt;2</title>
<path fill="none" stroke="grey" stroke-width="2" d="M240.57,-215.34C243.5,-208.51 246.93,-200.5 250.21,-192.83"/>
<polygon fill="grey" stroke="grey" stroke-width="2" points="253.41,-194.25 254.14,-183.68 246.98,-191.5 253.41,-194.25"/>
</g>
<!-- 14&#45;&gt;2 -->
<g id="edge10" class="edge">
<title>14&#45;&gt;2</title>
<path fill="none" stroke="grey" stroke-width="2" d="M300.23,-359.38C298.63,-329.53 294.04,-267.24 282,-216 280.22,-208.41 277.7,-200.41 275.08,-192.99"/>
<polygon fill="grey" stroke="grey" stroke-width="2" points="278.38,-191.82 271.6,-183.68 271.83,-194.27 278.38,-191.82"/>
</g>
<!-- 15 -->
<g id="node16" class="node">
<title>15</title>
<path fill="none" stroke="black" stroke-width="2" d="M473.12,-324C473.12,-324 340.88,-324 340.88,-324 334.88,-324 328.88,-318 328.88,-312 328.88,-312 328.88,-300 328.88,-300 328.88,-294 334.88,-288 340.88,-288 340.88,-288 473.12,-288 473.12,-288 479.12,-288 485.12,-294 485.12,-300 485.12,-300 485.12,-312 485.12,-312 485.12,-318 479.12,-324 473.12,-324"/>
<text text-anchor="middle" x="407" y="-302.12" font-family="sans" font-size="10.00">process_individual_missingness</text>
</g>
<!-- 15&#45;&gt;2 -->
<g id="edge8" class="edge">
<title>15&#45;&gt;2</title>
<path fill="none" stroke="grey" stroke-width="2" d="M388.76,-287.02C363.88,-262.48 319.08,-218.3 290.22,-189.84"/>
<polygon fill="grey" stroke="grey" stroke-width="2" points="292.82,-187.49 283.25,-182.96 287.91,-192.48 292.82,-187.49"/>
</g>
<!-- 16&#45;&gt;15 -->
<g id="edge25" class="edge">
<title>16&#45;&gt;15</title>
<path fill="none" stroke="grey" stroke-width="2" d="M406.25,-359.34C406.35,-352.75 406.46,-345.08 406.56,-337.67"/>
<polygon fill="grey" stroke="grey" stroke-width="2" points="410.06,-337.98 406.7,-327.93 403.06,-337.88 410.06,-337.98"/>
</g>
</g>
</svg>
