<?xml version="1.0" encoding="UTF-8" standalone="no"?>
<!DOCTYPE svg PUBLIC "-//W3C//DTD SVG 1.1//EN"
 "http://www.w3.org/Graphics/SVG/1.1/DTD/svg11.dtd">
<!-- Generated by graphviz version 9.0.0 (20230911.1827)
 -->
<!-- Title: snakemake_dag Pages: 1 -->
<svg width="653pt" height="548pt"
 viewBox="0.00 0.00 652.60 548.00" xmlns="http://www.w3.org/2000/svg" xmlns:xlink="http://www.w3.org/1999/xlink">
<g id="graph0" class="graph" transform="scale(1 1) rotate(0) translate(4 544)">
<title>snakemake_dag</title>
<polygon fill="white" stroke="none" points="-4,4 -4,-544 648.6,-544 648.6,4 -4,4"/>
<!-- 0 -->
<g id="node1" class="node">
<title>0</title>
<path fill="none" stroke="#567bd8" stroke-width="2" d="M490.48,-36C490.48,-36 460.48,-36 460.48,-36 454.48,-36 448.48,-30 448.48,-24 448.48,-24 448.48,-12 448.48,-12 448.48,-6 454.48,0 460.48,0 460.48,0 490.48,0 490.48,0 496.48,0 502.48,-6 502.48,-12 502.48,-12 502.48,-24 502.48,-24 502.48,-30 496.48,-36 490.48,-36"/>
<text text-anchor="middle" x="475.48" y="-14.12" font-family="sans" font-size="10.00">all</text>
</g>
<!-- 1 -->
<g id="node2" class="node">
<title>1</title>
<path fill="none" stroke="#56d87b" stroke-width="2" d="M389.98,-108C389.98,-108 310.98,-108 310.98,-108 304.98,-108 298.98,-102 298.98,-96 298.98,-96 298.98,-84 298.98,-84 298.98,-78 304.98,-72 310.98,-72 310.98,-72 389.98,-72 389.98,-72 395.98,-72 401.98,-78 401.98,-84 401.98,-84 401.98,-96 401.98,-96 401.98,-102 395.98,-108 389.98,-108"/>
<text text-anchor="middle" x="350.48" y="-86.12" font-family="sans" font-size="10.00">combine_genotypes</text>
</g>
<!-- 1&#45;&gt;0 -->
<g id="edge3" class="edge">
<title>1&#45;&gt;0</title>
<path fill="none" stroke="grey" stroke-width="2" d="M382.34,-71.15C398.84,-61.92 419.12,-50.56 436.54,-40.81"/>
<polygon fill="grey" stroke="grey" stroke-width="2" points="437.84,-44.09 444.86,-36.15 434.42,-37.98 437.84,-44.09"/>
</g>
<!-- 2 -->
<g id="node3" class="node">
<title>2</title>
<path fill="none" stroke="#56d8b9" stroke-width="2" d="M338.98,-180C338.98,-180 259.98,-180 259.98,-180 253.98,-180 247.98,-174 247.98,-168 247.98,-168 247.98,-156 247.98,-156 247.98,-150 253.98,-144 259.98,-144 259.98,-144 338.98,-144 338.98,-144 344.98,-144 350.98,-150 350.98,-156 350.98,-156 350.98,-168 350.98,-168 350.98,-174 344.98,-180 338.98,-180"/>
<text text-anchor="middle" x="299.48" y="-158.12" font-family="sans" font-size="10.00">preprocess_with_qc</text>
</g>
<!-- 2&#45;&gt;1 -->
<g id="edge4" class="edge">
<title>2&#45;&gt;1</title>
<path fill="none" stroke="grey" stroke-width="2" d="M312.35,-143.34C317.68,-136.01 324,-127.34 329.95,-119.18"/>
<polygon fill="grey" stroke="grey" stroke-width="2" points="332.59,-121.49 335.65,-111.35 326.94,-117.37 332.59,-121.49"/>
</g>
<!-- 3 -->
<g id="node4" class="node">
<title>3</title>
<path fill="none" stroke="#d85656" stroke-width="2" d="M632.6,-252C632.6,-252 572.35,-252 572.35,-252 566.35,-252 560.35,-246 560.35,-240 560.35,-240 560.35,-228 560.35,-228 560.35,-222 566.35,-216 572.35,-216 572.35,-216 632.6,-216 632.6,-216 638.6,-216 644.6,-222 644.6,-228 644.6,-228 644.6,-240 644.6,-240 644.6,-246 638.6,-252 632.6,-252"/>
<text text-anchor="middle" x="602.48" y="-230.12" font-family="sans" font-size="10.00">add_variant_ids</text>
</g>
<!-- 3&#45;&gt;0 -->
<g id="edge1" class="edge">
<title>3&#45;&gt;0</title>
<path fill="none" stroke="grey" stroke-width="2" d="M591.87,-215.12C569.92,-178.14 519.37,-92.96 492.69,-48"/>
<polygon fill="grey" stroke="grey" stroke-width="2" points="495.81,-46.39 487.69,-39.58 489.79,-49.97 495.81,-46.39"/>
</g>
<!-- 3&#45;&gt;2 -->
<g id="edge5" class="edge">
<title>3&#45;&gt;2</title>
<path fill="none" stroke="grey" stroke-width="2" d="M559.46,-218.27C556.77,-217.47 554.09,-216.71 551.48,-216 488.43,-198.92 415.25,-184.07 364.06,-174.47"/>
<polygon fill="grey" stroke="grey" stroke-width="2" points="364.98,-171.08 354.51,-172.7 363.7,-177.97 364.98,-171.08"/>
</g>
<!-- 4 -->
<g id="node5" class="node">
<title>4</title>
<path fill="none" stroke="#d87556" stroke-width="2" d="M533.98,-324C533.98,-324 448.98,-324 448.98,-324 442.98,-324 436.98,-318 436.98,-312 436.98,-312 436.98,-300 436.98,-300 436.98,-294 442.98,-288 448.98,-288 448.98,-288 533.98,-288 533.98,-288 539.98,-288 545.98,-294 545.98,-300 545.98,-300 545.98,-312 545.98,-312 545.98,-318 539.98,-324 533.98,-324"/>
<text text-anchor="middle" x="491.48" y="-302.12" font-family="sans" font-size="10.00">concatenate_variants</text>
</g>
<!-- 4&#45;&gt;3 -->
<g id="edge14" class="edge">
<title>4&#45;&gt;3</title>
<path fill="none" stroke="grey" stroke-width="2" d="M519.78,-287.15C533.08,-278.76 549.16,-268.62 563.59,-259.52"/>
<polygon fill="grey" stroke="grey" stroke-width="2" points="565.08,-262.72 571.67,-254.43 561.35,-256.8 565.08,-262.72"/>
</g>
<!-- 9 -->
<g id="node10" class="node">
<title>9</title>
<path fill="none" stroke="#97d856" stroke-width="2" d="M529.98,-252C529.98,-252 420.98,-252 420.98,-252 414.98,-252 408.98,-246 408.98,-240 408.98,-240 408.98,-228 408.98,-228 408.98,-222 414.98,-216 420.98,-216 420.98,-216 529.98,-216 529.98,-216 535.98,-216 541.98,-222 541.98,-228 541.98,-228 541.98,-240 541.98,-240 541.98,-246 535.98,-252 529.98,-252"/>
<text text-anchor="middle" x="475.48" y="-230.12" font-family="sans" font-size="10.00">create_parquet_variant_ids</text>
</g>
<!-- 4&#45;&gt;9 -->
<g id="edge19" class="edge">
<title>4&#45;&gt;9</title>
<path fill="none" stroke="grey" stroke-width="2" d="M487.44,-287.34C485.92,-280.67 484.14,-272.89 482.42,-265.39"/>
<polygon fill="grey" stroke="grey" stroke-width="2" points="485.88,-264.82 480.24,-255.85 479.06,-266.38 485.88,-264.82"/>
</g>
<!-- 5 -->
<g id="node6" class="node">
<title>5</title>
<path fill="none" stroke="#59d856" stroke-width="2" d="M495.48,-396C495.48,-396 465.48,-396 465.48,-396 459.48,-396 453.48,-390 453.48,-384 453.48,-384 453.48,-372 453.48,-372 453.48,-366 459.48,-360 465.48,-360 465.48,-360 495.48,-360 495.48,-360 501.48,-360 507.48,-366 507.48,-372 507.48,-372 507.48,-384 507.48,-384 507.48,-390 501.48,-396 495.48,-396"/>
<text text-anchor="middle" x="480.48" y="-374.12" font-family="sans" font-size="10.00">variants</text>
</g>
<!-- 5&#45;&gt;4 -->
<g id="edge15" class="edge">
<title>5&#45;&gt;4</title>
<path fill="none" stroke="grey" stroke-width="2" d="M483.25,-359.34C484.29,-352.75 485.49,-345.08 486.66,-337.67"/>
<polygon fill="grey" stroke="grey" stroke-width="2" points="490.1,-338.31 488.19,-327.89 483.18,-337.23 490.1,-338.31"/>
</g>
<!-- 6 -->
<g id="node7" class="node">
<title>6</title>
<path fill="none" stroke="#78d856" stroke-width="2" d="M289.48,-468C289.48,-468 255.48,-468 255.48,-468 249.48,-468 243.48,-462 243.48,-456 243.48,-456 243.48,-444 243.48,-444 243.48,-438 249.48,-432 255.48,-432 255.48,-432 289.48,-432 289.48,-432 295.48,-432 301.48,-438 301.48,-444 301.48,-444 301.48,-456 301.48,-456 301.48,-462 295.48,-468 289.48,-468"/>
<text text-anchor="middle" x="272.48" y="-446.12" font-family="sans" font-size="10.00">normalize</text>
</g>
<!-- 6&#45;&gt;5 -->
<g id="edge16" class="edge">
<title>6&#45;&gt;5</title>
<path fill="none" stroke="grey" stroke-width="2" d="M302.45,-439.57C335.05,-429.22 388.65,-411.96 434.48,-396 436.52,-395.29 438.62,-394.55 440.73,-393.8"/>
<polygon fill="grey" stroke="grey" stroke-width="2" points="441.75,-397.15 449.96,-390.45 439.37,-390.57 441.75,-397.15"/>
</g>
<!-- 10 -->
<g id="node11" class="node">
<title>10</title>
<path fill="none" stroke="#569ad8" stroke-width="2" d="M287.48,-396C287.48,-396 257.48,-396 257.48,-396 251.48,-396 245.48,-390 245.48,-384 245.48,-384 245.48,-372 245.48,-372 245.48,-366 251.48,-360 257.48,-360 257.48,-360 287.48,-360 287.48,-360 293.48,-360 299.48,-366 299.48,-372 299.48,-372 299.48,-384 299.48,-384 299.48,-390 293.48,-396 287.48,-396"/>
<text text-anchor="middle" x="272.48" y="-374.12" font-family="sans" font-size="10.00">sparsify</text>
</g>
<!-- 6&#45;&gt;10 -->
<g id="edge20" class="edge">
<title>6&#45;&gt;10</title>
<path fill="none" stroke="grey" stroke-width="2" d="M272.48,-431.34C272.48,-424.75 272.48,-417.08 272.48,-409.67"/>
<polygon fill="grey" stroke="grey" stroke-width="2" points="275.98,-409.93 272.48,-399.93 268.98,-409.93 275.98,-409.93"/>
</g>
<!-- 11 -->
<g id="node12" class="node">
<title>11</title>
<path fill="none" stroke="#b6d856" stroke-width="2" d="M232.6,-324C232.6,-324 190.35,-324 190.35,-324 184.35,-324 178.35,-318 178.35,-312 178.35,-312 178.35,-300 178.35,-300 178.35,-294 184.35,-288 190.35,-288 190.35,-288 232.6,-288 232.6,-288 238.6,-288 244.6,-294 244.6,-300 244.6,-300 244.6,-312 244.6,-312 244.6,-318 238.6,-324 232.6,-324"/>
<text text-anchor="middle" x="211.48" y="-302.12" font-family="sans" font-size="10.00">qc_varmiss</text>
</g>
<!-- 6&#45;&gt;11 -->
<g id="edge21" class="edge">
<title>6&#45;&gt;11</title>
<path fill="none" stroke="grey" stroke-width="2" d="M258.27,-431.23C250.92,-421.33 242.29,-408.51 236.48,-396 227.84,-377.42 221.6,-355.24 217.51,-337.67"/>
<polygon fill="grey" stroke="grey" stroke-width="2" points="220.95,-336.97 215.4,-327.95 214.11,-338.47 220.95,-336.97"/>
</g>
<!-- 12 -->
<g id="node13" class="node">
<title>12</title>
<path fill="none" stroke="#d6d856" stroke-width="2" d="M413.48,-396C413.48,-396 383.48,-396 383.48,-396 377.48,-396 371.48,-390 371.48,-384 371.48,-384 371.48,-372 371.48,-372 371.48,-366 377.48,-360 383.48,-360 383.48,-360 413.48,-360 413.48,-360 419.48,-360 425.48,-366 425.48,-372 425.48,-372 425.48,-384 425.48,-384 425.48,-390 419.48,-396 413.48,-396"/>
<text text-anchor="middle" x="398.48" y="-374.12" font-family="sans" font-size="10.00">qc_hwe</text>
</g>
<!-- 6&#45;&gt;12 -->
<g id="edge22" class="edge">
<title>6&#45;&gt;12</title>
<path fill="none" stroke="grey" stroke-width="2" d="M302.34,-432.41C319.37,-422.95 340.93,-410.97 359.31,-400.76"/>
<polygon fill="grey" stroke="grey" stroke-width="2" points="360.87,-403.9 367.91,-395.98 357.47,-397.78 360.87,-403.9"/>
</g>
<!-- 13 -->
<g id="node14" class="node">
<title>13</title>
<path fill="none" stroke="#d8b456" stroke-width="2" d="M368.35,-324C368.35,-324 312.6,-324 312.6,-324 306.6,-324 300.6,-318 300.6,-312 300.6,-312 300.6,-300 300.6,-300 300.6,-294 306.6,-288 312.6,-288 312.6,-288 368.35,-288 368.35,-288 374.35,-288 380.35,-294 380.35,-300 380.35,-300 380.35,-312 380.35,-312 380.35,-318 374.35,-324 368.35,-324"/>
<text text-anchor="middle" x="340.48" y="-302.12" font-family="sans" font-size="10.00">qc_read_depth</text>
</g>
<!-- 6&#45;&gt;13 -->
<g id="edge23" class="edge">
<title>6&#45;&gt;13</title>
<path fill="none" stroke="grey" stroke-width="2" d="M286.33,-431.06C293.58,-421.11 302.22,-408.29 308.48,-396 318.04,-377.23 326.05,-354.92 331.67,-337.33"/>
<polygon fill="grey" stroke="grey" stroke-width="2" points="335,-338.42 334.59,-327.83 328.31,-336.36 335,-338.42"/>
</g>
<!-- 14 -->
<g id="node15" class="node">
<title>14</title>
<path fill="none" stroke="#56d89a" stroke-width="2" d="M148.48,-324C148.48,-324 66.48,-324 66.48,-324 60.48,-324 54.48,-318 54.48,-312 54.48,-312 54.48,-300 54.48,-300 54.48,-294 60.48,-288 66.48,-288 66.48,-288 148.48,-288 148.48,-288 154.48,-288 160.48,-294 160.48,-300 160.48,-300 160.48,-312 160.48,-312 160.48,-318 154.48,-324 148.48,-324"/>
<text text-anchor="middle" x="107.48" y="-302.12" font-family="sans" font-size="10.00">qc_allelic_imbalance</text>
</g>
<!-- 6&#45;&gt;14 -->
<g id="edge24" class="edge">
<title>6&#45;&gt;14</title>
<path fill="none" stroke="grey" stroke-width="2" d="M251.58,-431.02C222.82,-406.26 170.84,-361.53 137.8,-333.1"/>
<polygon fill="grey" stroke="grey" stroke-width="2" points="140.36,-330.68 130.5,-326.81 135.8,-335.99 140.36,-330.68"/>
</g>
<!-- 7 -->
<g id="node8" class="node">
<title>7</title>
<path fill="none" stroke="#56d8d8" stroke-width="2" d="M133.48,-540C133.48,-540 69.48,-540 69.48,-540 63.48,-540 57.48,-534 57.48,-528 57.48,-528 57.48,-516 57.48,-516 57.48,-510 63.48,-504 69.48,-504 69.48,-504 133.48,-504 133.48,-504 139.48,-504 145.48,-510 145.48,-516 145.48,-516 145.48,-528 145.48,-528 145.48,-534 139.48,-540 133.48,-540"/>
<text text-anchor="middle" x="101.48" y="-518.12" font-family="sans" font-size="10.00">extract_samples</text>
</g>
<!-- 7&#45;&gt;2 -->
<g id="edge12" class="edge">
<title>7&#45;&gt;2</title>
<path fill="none" stroke="grey" stroke-width="2" d="M78.02,-503.14C48.74,-478.64 2.48,-431.59 2.48,-379 2.48,-379 2.48,-379 2.48,-305 2.48,-264.55 -7.43,-244.28 21.48,-216 51.05,-187.07 162,-173.27 234.48,-167.21"/>
<polygon fill="grey" stroke="grey" stroke-width="2" points="234.38,-170.73 244.07,-166.44 233.82,-163.75 234.38,-170.73"/>
</g>
<!-- 7&#45;&gt;6 -->
<g id="edge18" class="edge">
<title>7&#45;&gt;6</title>
<path fill="none" stroke="grey" stroke-width="2" d="M145.07,-503.15C171.47,-492.35 204.94,-478.65 230.95,-468"/>
<polygon fill="grey" stroke="grey" stroke-width="2" points="231.96,-471.37 239.89,-464.34 229.31,-464.89 231.96,-471.37"/>
</g>
<!-- 8 -->
<g id="node9" class="node">
<title>8</title>
<path fill="none" stroke="#56b9d8" stroke-width="2" d="M293.6,-540C293.6,-540 251.35,-540 251.35,-540 245.35,-540 239.35,-534 239.35,-528 239.35,-528 239.35,-516 239.35,-516 239.35,-510 245.35,-504 251.35,-504 251.35,-504 293.6,-504 293.6,-504 299.6,-504 305.6,-510 305.6,-516 305.6,-516 305.6,-528 305.6,-528 305.6,-534 299.6,-540 293.6,-540"/>
<text text-anchor="middle" x="272.48" y="-518.12" font-family="sans" font-size="10.00">index_fasta</text>
</g>
<!-- 8&#45;&gt;6 -->
<g id="edge17" class="edge">
<title>8&#45;&gt;6</title>
<path fill="none" stroke="grey" stroke-width="2" d="M272.48,-503.34C272.48,-496.75 272.48,-489.08 272.48,-481.67"/>
<polygon fill="grey" stroke="grey" stroke-width="2" points="275.98,-481.93 272.48,-471.93 268.98,-481.93 275.98,-481.93"/>
</g>
<!-- 9&#45;&gt;0 -->
<g id="edge2" class="edge">
<title>9&#45;&gt;0</title>
<path fill="none" stroke="grey" stroke-width="2" d="M475.48,-215.12C475.48,-178.62 475.48,-95.13 475.48,-49.74"/>
<polygon fill="grey" stroke="grey" stroke-width="2" points="478.98,-50 475.48,-40 471.98,-50 478.98,-50"/>
</g>
<!-- 9&#45;&gt;2 -->
<g id="edge10" class="edge">
<title>9&#45;&gt;2</title>
<path fill="none" stroke="grey" stroke-width="2" d="M430.61,-215.15C408.05,-206.18 380.45,-195.21 356.41,-185.64"/>
<polygon fill="grey" stroke="grey" stroke-width="2" points="357.97,-182.5 347.38,-182.05 355.38,-189 357.97,-182.5"/>
</g>
<!-- 10&#45;&gt;2 -->
<g id="edge13" class="edge">
<title>10&#45;&gt;2</title>
<path fill="none" stroke="grey" stroke-width="2" d="M274.73,-359.12C279.34,-322.62 289.87,-239.13 295.6,-193.74"/>
<polygon fill="grey" stroke="grey" stroke-width="2" points="299.05,-194.34 296.83,-183.98 292.11,-193.46 299.05,-194.34"/>
</g>
<!-- 11&#45;&gt;2 -->
<g id="edge9" class="edge">
<title>11&#45;&gt;2</title>
<path fill="none" stroke="grey" stroke-width="2" d="M222.42,-287.26C233.5,-269.29 251.16,-240.7 266.48,-216 271.39,-208.08 276.73,-199.5 281.65,-191.6"/>
<polygon fill="grey" stroke="grey" stroke-width="2" points="284.55,-193.57 286.86,-183.23 278.6,-189.86 284.55,-193.57"/>
</g>
<!-- 12&#45;&gt;2 -->
<g id="edge8" class="edge">
<title>12&#45;&gt;2</title>
<path fill="none" stroke="grey" stroke-width="2" d="M399.34,-359.33C399.63,-340.92 398.4,-311.52 389.48,-288 375.21,-250.37 346.61,-213.78 325.47,-190.02"/>
<polygon fill="grey" stroke="grey" stroke-width="2" points="328.29,-187.92 318.96,-182.89 323.12,-192.63 328.29,-187.92"/>
</g>
<!-- 13&#45;&gt;2 -->
<g id="edge7" class="edge">
<title>13&#45;&gt;2</title>
<path fill="none" stroke="grey" stroke-width="2" d="M335.29,-287.02C328.48,-263.44 316.44,-221.73 308.21,-193.25"/>
<polygon fill="grey" stroke="grey" stroke-width="2" points="311.61,-192.38 305.47,-183.75 304.88,-194.33 311.61,-192.38"/>
</g>
<!-- 14&#45;&gt;2 -->
<g id="edge11" class="edge">
<title>14&#45;&gt;2</title>
<path fill="none" stroke="grey" stroke-width="2" d="M134.86,-287.04C149.96,-276.97 168.94,-264.05 185.48,-252 213.68,-231.44 244.86,-206.97 267.48,-188.9"/>
<polygon fill="grey" stroke="grey" stroke-width="2" points="269.56,-191.72 275.17,-182.73 265.18,-186.26 269.56,-191.72"/>
</g>
<!-- 15 -->
<g id="node16" class="node">
<title>15</title>
<path fill="none" stroke="#d89556" stroke-width="2" d="M163.98,-252C163.98,-252 42.98,-252 42.98,-252 36.98,-252 30.98,-246 30.98,-240 30.98,-240 30.98,-228 30.98,-228 30.98,-222 36.98,-216 42.98,-216 42.98,-216 163.98,-216 163.98,-216 169.98,-216 175.98,-222 175.98,-228 175.98,-228 175.98,-240 175.98,-240 175.98,-246 169.98,-252 163.98,-252"/>
<text text-anchor="middle" x="103.48" y="-230.12" font-family="sans" font-size="10.00">create_excluded_samples_dir</text>
</g>
<!-- 15&#45;&gt;2 -->
<g id="edge6" class="edge">
<title>15&#45;&gt;2</title>
<path fill="none" stroke="grey" stroke-width="2" d="M153.7,-215.06C179.17,-205.97 210.35,-194.83 237.33,-185.2"/>
<polygon fill="grey" stroke="grey" stroke-width="2" points="238.3,-188.57 246.54,-181.91 235.94,-181.97 238.3,-188.57"/>
</g>
</g>
</svg>
