<?xml version="1.0" encoding="UTF-8" standalone="no"?>
<!DOCTYPE svg PUBLIC "-//W3C//DTD SVG 1.1//EN"
 "http://www.w3.org/Graphics/SVG/1.1/DTD/svg11.dtd">
<!-- Generated by graphviz version 10.0.1 (20240210.2158)
 -->
<!-- Title: snakemake_dag Pages: 1 -->
<svg width="620pt" height="692pt"
 viewBox="0.00 0.00 619.50 692.00" xmlns="http://www.w3.org/2000/svg" xmlns:xlink="http://www.w3.org/1999/xlink">
<g id="graph0" class="graph" transform="scale(1 1) rotate(0) translate(4 688)">
<title>snakemake_dag</title>
<polygon fill="white" stroke="none" points="-4,4 -4,-688 615.5,-688 615.5,4 -4,4"/>
<!-- 0 -->
<g id="node1" class="node">
<title>0</title>
<path fill="none" stroke="black" stroke-width="2" d="M448,-36C448,-36 418,-36 418,-36 412,-36 406,-30 406,-24 406,-24 406,-12 406,-12 406,-6 412,0 418,0 418,0 448,0 448,0 454,0 460,-6 460,-12 460,-12 460,-24 460,-24 460,-30 454,-36 448,-36"/>
<text text-anchor="middle" x="433" y="-14.12" font-family="sans" font-size="10.00">all</text>
</g>
<!-- 1 -->
<g id="node2" class="node">
<title>1</title>
<path fill="none" stroke="black" stroke-width="2" d="M332.5,-108C332.5,-108 253.5,-108 253.5,-108 247.5,-108 241.5,-102 241.5,-96 241.5,-96 241.5,-84 241.5,-84 241.5,-78 247.5,-72 253.5,-72 253.5,-72 332.5,-72 332.5,-72 338.5,-72 344.5,-78 344.5,-84 344.5,-84 344.5,-96 344.5,-96 344.5,-102 338.5,-108 332.5,-108"/>
<text text-anchor="middle" x="293" y="-86.12" font-family="sans" font-size="10.00">combine_genotypes</text>
</g>
<!-- 1&#45;&gt;0 -->
<g id="edge2" class="edge">
<title>1&#45;&gt;0</title>
<path fill="none" stroke="grey" stroke-width="2" d="M328.69,-71.15C348.6,-61.2 373.43,-48.78 393.87,-38.57"/>
<polygon fill="grey" stroke="grey" stroke-width="2" points="395.24,-41.79 402.62,-34.19 392.11,-35.53 395.24,-41.79"/>
</g>
<!-- 2 -->
<g id="node3" class="node">
<title>2</title>
<path fill="none" stroke="black" stroke-width="2" d="M301.5,-180C301.5,-180 222.5,-180 222.5,-180 216.5,-180 210.5,-174 210.5,-168 210.5,-168 210.5,-156 210.5,-156 210.5,-150 216.5,-144 222.5,-144 222.5,-144 301.5,-144 301.5,-144 307.5,-144 313.5,-150 313.5,-156 313.5,-156 313.5,-168 313.5,-168 313.5,-174 307.5,-180 301.5,-180"/>
<text text-anchor="middle" x="262" y="-158.12" font-family="sans" font-size="10.00">preprocess_with_qc</text>
</g>
<!-- 2&#45;&gt;1 -->
<g id="edge4" class="edge">
<title>2&#45;&gt;1</title>
<path fill="none" stroke="grey" stroke-width="2" d="M269.82,-143.34C272.88,-136.43 276.48,-128.31 279.91,-120.56"/>
<polygon fill="grey" stroke="grey" stroke-width="2" points="283,-122.23 283.85,-111.67 276.6,-119.4 283,-122.23"/>
</g>
<!-- 3 -->
<g id="node4" class="node">
<title>3</title>
<path fill="none" stroke="black" stroke-width="2" d="M590.12,-252C590.12,-252 529.88,-252 529.88,-252 523.88,-252 517.88,-246 517.88,-240 517.88,-240 517.88,-228 517.88,-228 517.88,-222 523.88,-216 529.88,-216 529.88,-216 590.12,-216 590.12,-216 596.12,-216 602.12,-222 602.12,-228 602.12,-228 602.12,-240 602.12,-240 602.12,-246 596.12,-252 590.12,-252"/>
<text text-anchor="middle" x="560" y="-230.12" font-family="sans" font-size="10.00">add_variant_ids</text>
</g>
<!-- 3&#45;&gt;0 -->
<g id="edge3" class="edge">
<title>3&#45;&gt;0</title>
<path fill="none" stroke="grey" stroke-width="2" d="M549.39,-215.12C527.45,-178.14 476.89,-92.96 450.21,-48"/>
<polygon fill="grey" stroke="grey" stroke-width="2" points="453.33,-46.39 445.21,-39.58 447.31,-49.97 453.33,-46.39"/>
</g>
<!-- 3&#45;&gt;2 -->
<g id="edge11" class="edge">
<title>3&#45;&gt;2</title>
<path fill="none" stroke="grey" stroke-width="2" d="M516.97,-218.29C514.28,-217.48 511.61,-216.71 509,-216 447.89,-199.31 377.12,-184.59 327.03,-174.92"/>
<polygon fill="grey" stroke="grey" stroke-width="2" points="327.9,-171.52 317.42,-173.08 326.58,-178.4 327.9,-171.52"/>
</g>
<!-- 4 -->
<g id="node5" class="node">
<title>4</title>
<path fill="none" stroke="black" stroke-width="2" d="M599.5,-324C599.5,-324 514.5,-324 514.5,-324 508.5,-324 502.5,-318 502.5,-312 502.5,-312 502.5,-300 502.5,-300 502.5,-294 508.5,-288 514.5,-288 514.5,-288 599.5,-288 599.5,-288 605.5,-288 611.5,-294 611.5,-300 611.5,-300 611.5,-312 611.5,-312 611.5,-318 605.5,-324 599.5,-324"/>
<text text-anchor="middle" x="557" y="-302.12" font-family="sans" font-size="10.00">concatenate_variants</text>
</g>
<!-- 4&#45;&gt;3 -->
<g id="edge14" class="edge">
<title>4&#45;&gt;3</title>
<path fill="none" stroke="grey" stroke-width="2" d="M557.76,-287.34C558.04,-280.75 558.37,-273.08 558.69,-265.67"/>
<polygon fill="grey" stroke="grey" stroke-width="2" points="562.17,-266.07 559.1,-255.93 555.18,-265.77 562.17,-266.07"/>
</g>
<!-- 12 -->
<g id="node13" class="node">
<title>12</title>
<path fill="none" stroke="black" stroke-width="2" d="M487.5,-252C487.5,-252 378.5,-252 378.5,-252 372.5,-252 366.5,-246 366.5,-240 366.5,-240 366.5,-228 366.5,-228 366.5,-222 372.5,-216 378.5,-216 378.5,-216 487.5,-216 487.5,-216 493.5,-216 499.5,-222 499.5,-228 499.5,-228 499.5,-240 499.5,-240 499.5,-246 493.5,-252 487.5,-252"/>
<text text-anchor="middle" x="433" y="-230.12" font-family="sans" font-size="10.00">create_parquet_variant_ids</text>
</g>
<!-- 4&#45;&gt;12 -->
<g id="edge23" class="edge">
<title>4&#45;&gt;12</title>
<path fill="none" stroke="grey" stroke-width="2" d="M525.39,-287.15C510.23,-278.6 491.85,-268.22 475.49,-258.99"/>
<polygon fill="grey" stroke="grey" stroke-width="2" points="477.62,-256.17 467.19,-254.3 474.18,-262.26 477.62,-256.17"/>
</g>
<!-- 5 -->
<g id="node6" class="node">
<title>5</title>
<path fill="none" stroke="black" stroke-width="2" d="M536,-396C536,-396 506,-396 506,-396 500,-396 494,-390 494,-384 494,-384 494,-372 494,-372 494,-366 500,-360 506,-360 506,-360 536,-360 536,-360 542,-360 548,-366 548,-372 548,-372 548,-384 548,-384 548,-390 542,-396 536,-396"/>
<text text-anchor="middle" x="521" y="-374.12" font-family="sans" font-size="10.00">variants</text>
</g>
<!-- 5&#45;&gt;4 -->
<g id="edge15" class="edge">
<title>5&#45;&gt;4</title>
<path fill="none" stroke="grey" stroke-width="2" d="M530.08,-359.34C533.68,-352.34 537.91,-344.12 541.94,-336.28"/>
<polygon fill="grey" stroke="grey" stroke-width="2" points="544.95,-338.09 546.41,-327.59 538.72,-334.89 544.95,-338.09"/>
</g>
<!-- 6 -->
<g id="node7" class="node">
<title>6</title>
<path fill="none" stroke="black" stroke-width="2" d="M220,-468C220,-468 186,-468 186,-468 180,-468 174,-462 174,-456 174,-456 174,-444 174,-444 174,-438 180,-432 186,-432 186,-432 220,-432 220,-432 226,-432 232,-438 232,-444 232,-444 232,-456 232,-456 232,-462 226,-468 220,-468"/>
<text text-anchor="middle" x="203" y="-446.12" font-family="sans" font-size="10.00">normalize</text>
</g>
<!-- 6&#45;&gt;5 -->
<g id="edge16" class="edge">
<title>6&#45;&gt;5</title>
<path fill="none" stroke="grey" stroke-width="2" d="M232.96,-442.74C279.32,-433.02 371.23,-413.56 449,-396 459.31,-393.67 470.42,-391.09 480.77,-388.65"/>
<polygon fill="grey" stroke="grey" stroke-width="2" points="481.47,-392.08 490.39,-386.36 479.85,-385.27 481.47,-392.08"/>
</g>
<!-- 13 -->
<g id="node14" class="node">
<title>13</title>
<path fill="none" stroke="black" stroke-width="2" d="M79,-252C79,-252 49,-252 49,-252 43,-252 37,-246 37,-240 37,-240 37,-228 37,-228 37,-222 43,-216 49,-216 49,-216 79,-216 79,-216 85,-216 91,-222 91,-228 91,-228 91,-240 91,-240 91,-246 85,-252 79,-252"/>
<text text-anchor="middle" x="64" y="-230.12" font-family="sans" font-size="10.00">sparsify</text>
</g>
<!-- 6&#45;&gt;13 -->
<g id="edge24" class="edge">
<title>6&#45;&gt;13</title>
<path fill="none" stroke="grey" stroke-width="2" d="M173.2,-432.98C139.19,-412.77 85.51,-374.46 64,-324 56.22,-305.74 56.25,-283.4 58.21,-265.66"/>
<polygon fill="grey" stroke="grey" stroke-width="2" points="61.65,-266.26 59.6,-255.87 54.72,-265.27 61.65,-266.26"/>
</g>
<!-- 14 -->
<g id="node15" class="node">
<title>14</title>
<path fill="none" stroke="black" stroke-width="2" d="M127.12,-324C127.12,-324 84.88,-324 84.88,-324 78.88,-324 72.88,-318 72.88,-312 72.88,-312 72.88,-300 72.88,-300 72.88,-294 78.88,-288 84.88,-288 84.88,-288 127.12,-288 127.12,-288 133.12,-288 139.12,-294 139.12,-300 139.12,-300 139.12,-312 139.12,-312 139.12,-318 133.12,-324 127.12,-324"/>
<text text-anchor="middle" x="106" y="-302.12" font-family="sans" font-size="10.00">qc_varmiss</text>
</g>
<!-- 6&#45;&gt;14 -->
<g id="edge25" class="edge">
<title>6&#45;&gt;14</title>
<path fill="none" stroke="grey" stroke-width="2" d="M190.71,-431.02C174.24,-406.9 144.82,-363.83 125.36,-335.34"/>
<polygon fill="grey" stroke="grey" stroke-width="2" points="128.42,-333.62 119.89,-327.34 122.64,-337.57 128.42,-333.62"/>
</g>
<!-- 15 -->
<g id="node16" class="node">
<title>15</title>
<path fill="none" stroke="black" stroke-width="2" d="M199,-324C199,-324 169,-324 169,-324 163,-324 157,-318 157,-312 157,-312 157,-300 157,-300 157,-294 163,-288 169,-288 169,-288 199,-288 199,-288 205,-288 211,-294 211,-300 211,-300 211,-312 211,-312 211,-318 205,-324 199,-324"/>
<text text-anchor="middle" x="184" y="-302.12" font-family="sans" font-size="10.00">qc_hwe</text>
</g>
<!-- 6&#45;&gt;15 -->
<g id="edge26" class="edge">
<title>6&#45;&gt;15</title>
<path fill="none" stroke="grey" stroke-width="2" d="M200.59,-431.02C197.45,-407.54 191.91,-366.11 188.1,-337.64"/>
<polygon fill="grey" stroke="grey" stroke-width="2" points="191.58,-337.29 186.79,-327.84 184.65,-338.21 191.58,-337.29"/>
</g>
<!-- 16 -->
<g id="node17" class="node">
<title>16</title>
<path fill="none" stroke="black" stroke-width="2" d="M259.88,-252C259.88,-252 204.12,-252 204.12,-252 198.12,-252 192.12,-246 192.12,-240 192.12,-240 192.12,-228 192.12,-228 192.12,-222 198.12,-216 204.12,-216 204.12,-216 259.88,-216 259.88,-216 265.88,-216 271.88,-222 271.88,-228 271.88,-228 271.88,-240 271.88,-240 271.88,-246 265.88,-252 259.88,-252"/>
<text text-anchor="middle" x="232" y="-230.12" font-family="sans" font-size="10.00">qc_read_depth</text>
</g>
<!-- 6&#45;&gt;16 -->
<g id="edge27" class="edge">
<title>6&#45;&gt;16</title>
<path fill="none" stroke="grey" stroke-width="2" d="M205.43,-431.2C208.73,-406.96 214.83,-362.2 220,-324 222.63,-304.59 225.57,-282.8 227.88,-265.64"/>
<polygon fill="grey" stroke="grey" stroke-width="2" points="231.35,-266.11 229.21,-255.73 224.41,-265.17 231.35,-266.11"/>
</g>
<!-- 17 -->
<g id="node18" class="node">
<title>17</title>
<path fill="none" stroke="black" stroke-width="2" d="M344,-396C344,-396 262,-396 262,-396 256,-396 250,-390 250,-384 250,-384 250,-372 250,-372 250,-366 256,-360 262,-360 262,-360 344,-360 344,-360 350,-360 356,-366 356,-372 356,-372 356,-384 356,-384 356,-390 350,-396 344,-396"/>
<text text-anchor="middle" x="303" y="-374.12" font-family="sans" font-size="10.00">qc_allelic_imbalance</text>
</g>
<!-- 6&#45;&gt;17 -->
<g id="edge28" class="edge">
<title>6&#45;&gt;17</title>
<path fill="none" stroke="grey" stroke-width="2" d="M228.49,-431.15C240.25,-422.93 254.4,-413.02 267.2,-404.06"/>
<polygon fill="grey" stroke="grey" stroke-width="2" points="268.89,-407.15 275.07,-398.55 264.87,-401.42 268.89,-407.15"/>
</g>
<!-- 19 -->
<g id="node20" class="node">
<title>19</title>
<path fill="none" stroke="black" stroke-width="2" d="M427.75,-396C427.75,-396 386.25,-396 386.25,-396 380.25,-396 374.25,-390 374.25,-384 374.25,-384 374.25,-372 374.25,-372 374.25,-366 380.25,-360 386.25,-360 386.25,-360 427.75,-360 427.75,-360 433.75,-360 439.75,-366 439.75,-372 439.75,-372 439.75,-384 439.75,-384 439.75,-390 433.75,-396 427.75,-396"/>
<text text-anchor="middle" x="407" y="-374.12" font-family="sans" font-size="10.00">qc_indmiss</text>
</g>
<!-- 6&#45;&gt;19 -->
<g id="edge30" class="edge">
<title>6&#45;&gt;19</title>
<path fill="none" stroke="grey" stroke-width="2" d="M232.77,-439.93C263,-430.58 311.4,-415.21 361.53,-397.15"/>
<polygon fill="grey" stroke="grey" stroke-width="2" points="362.56,-400.5 370.76,-393.79 360.17,-393.92 362.56,-400.5"/>
</g>
<!-- 7 -->
<g id="node8" class="node">
<title>7</title>
<path fill="none" stroke="black" stroke-width="2" d="M76,-540C76,-540 12,-540 12,-540 6,-540 0,-534 0,-528 0,-528 0,-516 0,-516 0,-510 6,-504 12,-504 12,-504 76,-504 76,-504 82,-504 88,-510 88,-516 88,-516 88,-528 88,-528 88,-534 82,-540 76,-540"/>
<text text-anchor="middle" x="44" y="-518.12" font-family="sans" font-size="10.00">extract_samples</text>
</g>
<!-- 7&#45;&gt;2 -->
<g id="edge8" class="edge">
<title>7&#45;&gt;2</title>
<path fill="none" stroke="grey" stroke-width="2" d="M36.15,-503.01C25.29,-476.43 7,-424.86 7,-379 7,-379 7,-379 7,-305 7,-264.36 -0.87,-244.61 28,-216 51.55,-192.66 136.28,-177.86 197.01,-169.99"/>
<polygon fill="grey" stroke="grey" stroke-width="2" points="197.08,-173.51 206.57,-168.8 196.21,-166.57 197.08,-173.51"/>
</g>
<!-- 7&#45;&gt;6 -->
<g id="edge17" class="edge">
<title>7&#45;&gt;6</title>
<path fill="none" stroke="grey" stroke-width="2" d="M84.53,-503.15C108.04,-492.81 137.58,-479.8 161.28,-469.37"/>
<polygon fill="grey" stroke="grey" stroke-width="2" points="162.57,-472.62 170.31,-465.39 159.75,-466.22 162.57,-472.62"/>
</g>
<!-- 8 -->
<g id="node9" class="node">
<title>8</title>
<path fill="none" stroke="black" stroke-width="2" d="M189.12,-612C189.12,-612 146.88,-612 146.88,-612 140.88,-612 134.88,-606 134.88,-600 134.88,-600 134.88,-588 134.88,-588 134.88,-582 140.88,-576 146.88,-576 146.88,-576 189.12,-576 189.12,-576 195.12,-576 201.12,-582 201.12,-588 201.12,-588 201.12,-600 201.12,-600 201.12,-606 195.12,-612 189.12,-612"/>
<text text-anchor="middle" x="168" y="-590.12" font-family="sans" font-size="10.00">index_fasta</text>
</g>
<!-- 8&#45;&gt;6 -->
<g id="edge18" class="edge">
<title>8&#45;&gt;6</title>
<path fill="none" stroke="grey" stroke-width="2" d="M171.36,-575.17C174.86,-557.13 180.7,-528.48 187,-504 188.94,-496.46 191.25,-488.39 193.51,-480.87"/>
<polygon fill="grey" stroke="grey" stroke-width="2" points="196.81,-482.04 196.41,-471.46 190.12,-479.98 196.81,-482.04"/>
</g>
<!-- 9 -->
<g id="node10" class="node">
<title>9</title>
<path fill="none" stroke="black" stroke-width="2" d="M268.12,-540C268.12,-540 207.88,-540 207.88,-540 201.88,-540 195.88,-534 195.88,-528 195.88,-528 195.88,-516 195.88,-516 195.88,-510 201.88,-504 207.88,-504 207.88,-504 268.12,-504 268.12,-504 274.12,-504 280.12,-510 280.12,-516 280.12,-516 280.12,-528 280.12,-528 280.12,-534 274.12,-540 268.12,-540"/>
<text text-anchor="middle" x="238" y="-518.12" font-family="sans" font-size="10.00">expand_regions</text>
</g>
<!-- 8&#45;&gt;9 -->
<g id="edge20" class="edge">
<title>8&#45;&gt;9</title>
<path fill="none" stroke="grey" stroke-width="2" d="M185.66,-575.34C193.31,-567.69 202.44,-558.56 210.92,-550.08"/>
<polygon fill="grey" stroke="grey" stroke-width="2" points="213.36,-552.59 217.96,-543.04 208.41,-547.64 213.36,-552.59"/>
</g>
<!-- 9&#45;&gt;6 -->
<g id="edge19" class="edge">
<title>9&#45;&gt;6</title>
<path fill="none" stroke="grey" stroke-width="2" d="M229.17,-503.34C225.67,-496.34 221.56,-488.12 217.64,-480.28"/>
<polygon fill="grey" stroke="grey" stroke-width="2" points="220.91,-478.99 213.3,-471.61 214.65,-482.12 220.91,-478.99"/>
</g>
<!-- 10 -->
<g id="node11" class="node">
<title>10</title>
<path fill="none" stroke="black" stroke-width="2" d="M271,-612C271,-612 231,-612 231,-612 225,-612 219,-606 219,-600 219,-600 219,-588 219,-588 219,-582 225,-576 231,-576 231,-576 271,-576 271,-576 277,-576 283,-582 283,-588 283,-588 283,-600 283,-600 283,-606 277,-612 271,-612"/>
<text text-anchor="middle" x="251" y="-590.12" font-family="sans" font-size="10.00">create_bed</text>
</g>
<!-- 10&#45;&gt;9 -->
<g id="edge21" class="edge">
<title>10&#45;&gt;9</title>
<path fill="none" stroke="grey" stroke-width="2" d="M247.72,-575.34C246.5,-568.75 245.07,-561.08 243.7,-553.67"/>
<polygon fill="grey" stroke="grey" stroke-width="2" points="247.14,-553.07 241.88,-543.88 240.26,-554.35 247.14,-553.07"/>
</g>
<!-- 11 -->
<g id="node12" class="node">
<title>11</title>
<path fill="none" stroke="black" stroke-width="2" d="M266,-684C266,-684 236,-684 236,-684 230,-684 224,-678 224,-672 224,-672 224,-660 224,-660 224,-654 230,-648 236,-648 236,-648 266,-648 266,-648 272,-648 278,-654 278,-660 278,-660 278,-672 278,-672 278,-678 272,-684 266,-684"/>
<text text-anchor="middle" x="251" y="-662.12" font-family="sans" font-size="10.00">fiter_gtf</text>
</g>
<!-- 11&#45;&gt;10 -->
<g id="edge22" class="edge">
<title>11&#45;&gt;10</title>
<path fill="none" stroke="grey" stroke-width="2" d="M251,-647.34C251,-640.75 251,-633.08 251,-625.67"/>
<polygon fill="grey" stroke="grey" stroke-width="2" points="254.5,-625.93 251,-615.93 247.5,-625.93 254.5,-625.93"/>
</g>
<!-- 12&#45;&gt;0 -->
<g id="edge1" class="edge">
<title>12&#45;&gt;0</title>
<path fill="none" stroke="grey" stroke-width="2" d="M433,-215.12C433,-178.62 433,-95.13 433,-49.74"/>
<polygon fill="grey" stroke="grey" stroke-width="2" points="436.5,-50 433,-40 429.5,-50 436.5,-50"/>
</g>
<!-- 12&#45;&gt;2 -->
<g id="edge5" class="edge">
<title>12&#45;&gt;2</title>
<path fill="none" stroke="grey" stroke-width="2" d="M389.41,-215.15C367.58,-206.22 340.92,-195.31 317.63,-185.77"/>
<polygon fill="grey" stroke="grey" stroke-width="2" points="319.19,-182.63 308.61,-182.08 316.54,-189.11 319.19,-182.63"/>
</g>
<!-- 13&#45;&gt;2 -->
<g id="edge10" class="edge">
<title>13&#45;&gt;2</title>
<path fill="none" stroke="grey" stroke-width="2" d="M91.7,-222.67C97.73,-220.45 104.07,-218.13 110,-216 138.74,-205.68 170.64,-194.51 197.76,-185.1"/>
<polygon fill="grey" stroke="grey" stroke-width="2" points="198.69,-188.49 207,-181.91 196.4,-181.87 198.69,-188.49"/>
</g>
<!-- 14&#45;&gt;2 -->
<g id="edge13" class="edge">
<title>14&#45;&gt;2</title>
<path fill="none" stroke="grey" stroke-width="2" d="M116.14,-287.3C127.8,-268.06 148.4,-237.22 172,-216 184.23,-205 199.1,-195.14 213.2,-186.99"/>
<polygon fill="grey" stroke="grey" stroke-width="2" points="214.59,-190.22 221.63,-182.3 211.19,-184.1 214.59,-190.22"/>
</g>
<!-- 15&#45;&gt;2 -->
<g id="edge7" class="edge">
<title>15&#45;&gt;2</title>
<path fill="none" stroke="grey" stroke-width="2" d="M179.01,-287.1C174.79,-268.23 171.15,-238.22 183,-216 189.06,-204.63 198.76,-195.27 209.32,-187.75"/>
<polygon fill="grey" stroke="grey" stroke-width="2" points="211.01,-190.83 217.52,-182.47 207.22,-184.94 211.01,-190.83"/>
</g>
<!-- 16&#45;&gt;2 -->
<g id="edge9" class="edge">
<title>16&#45;&gt;2</title>
<path fill="none" stroke="grey" stroke-width="2" d="M239.57,-215.34C242.5,-208.51 245.93,-200.5 249.21,-192.83"/>
<polygon fill="grey" stroke="grey" stroke-width="2" points="252.41,-194.25 253.14,-183.68 245.98,-191.5 252.41,-194.25"/>
</g>
<!-- 17&#45;&gt;2 -->
<g id="edge6" class="edge">
<title>17&#45;&gt;2</title>
<path fill="none" stroke="grey" stroke-width="2" d="M301.8,-359.38C299.5,-329.53 293.54,-267.24 281,-216 279.15,-208.43 276.61,-200.43 273.98,-193.01"/>
<polygon fill="grey" stroke="grey" stroke-width="2" points="277.29,-191.85 270.51,-183.7 270.73,-194.3 277.29,-191.85"/>
</g>
<!-- 18 -->
<g id="node19" class="node">
<title>18</title>
<path fill="none" stroke="black" stroke-width="2" d="M472.12,-324C472.12,-324 339.88,-324 339.88,-324 333.88,-324 327.88,-318 327.88,-312 327.88,-312 327.88,-300 327.88,-300 327.88,-294 333.88,-288 339.88,-288 339.88,-288 472.12,-288 472.12,-288 478.12,-288 484.12,-294 484.12,-300 484.12,-300 484.12,-312 484.12,-312 484.12,-318 478.12,-324 472.12,-324"/>
<text text-anchor="middle" x="406" y="-302.12" font-family="sans" font-size="10.00">process_individual_missingness</text>
</g>
<!-- 18&#45;&gt;2 -->
<g id="edge12" class="edge">
<title>18&#45;&gt;2</title>
<path fill="none" stroke="grey" stroke-width="2" d="M387.76,-287.02C362.88,-262.48 318.08,-218.3 289.22,-189.84"/>
<polygon fill="grey" stroke="grey" stroke-width="2" points="291.82,-187.49 282.25,-182.96 286.91,-192.48 291.82,-187.49"/>
</g>
<!-- 19&#45;&gt;18 -->
<g id="edge29" class="edge">
<title>19&#45;&gt;18</title>
<path fill="none" stroke="grey" stroke-width="2" d="M406.75,-359.34C406.65,-352.75 406.54,-345.08 406.44,-337.67"/>
<polygon fill="grey" stroke="grey" stroke-width="2" points="409.94,-337.88 406.3,-327.93 402.94,-337.98 409.94,-337.88"/>
</g>
</g>
</svg>
