<?xml version="1.0" encoding="UTF-8" standalone="no"?>
<!DOCTYPE svg PUBLIC "-//W3C//DTD SVG 1.1//EN"
 "http://www.w3.org/Graphics/SVG/1.1/DTD/svg11.dtd">
<!-- Generated by graphviz version 9.0.0 (20230911.1827)
 -->
<!-- Title: snakemake_dag Pages: 1 -->
<svg width="631pt" height="692pt"
 viewBox="0.00 0.00 631.12 692.00" xmlns="http://www.w3.org/2000/svg" xmlns:xlink="http://www.w3.org/1999/xlink">
<g id="graph0" class="graph" transform="scale(1 1) rotate(0) translate(4 688)">
<title>snakemake_dag</title>
<polygon fill="white" stroke="none" points="-4,4 -4,-688 627.12,-688 627.12,4 -4,4"/>
<!-- 0 -->
<g id="node1" class="node">
<title>0</title>
<path fill="none" stroke="#56c1d8" stroke-width="2" d="M469,-36C469,-36 439,-36 439,-36 433,-36 427,-30 427,-24 427,-24 427,-12 427,-12 427,-6 433,0 439,0 439,0 469,0 469,0 475,0 481,-6 481,-12 481,-12 481,-24 481,-24 481,-30 475,-36 469,-36"/>
<text text-anchor="middle" x="454" y="-14.12" font-family="sans" font-size="10.00">all</text>
</g>
<!-- 1 -->
<g id="node2" class="node">
<title>1</title>
<path fill="none" stroke="#d8c356" stroke-width="2" d="M368.5,-108C368.5,-108 289.5,-108 289.5,-108 283.5,-108 277.5,-102 277.5,-96 277.5,-96 277.5,-84 277.5,-84 277.5,-78 283.5,-72 289.5,-72 289.5,-72 368.5,-72 368.5,-72 374.5,-72 380.5,-78 380.5,-84 380.5,-84 380.5,-96 380.5,-96 380.5,-102 374.5,-108 368.5,-108"/>
<text text-anchor="middle" x="329" y="-86.12" font-family="sans" font-size="10.00">combine_genotypes</text>
</g>
<!-- 1&#45;&gt;0 -->
<g id="edge2" class="edge">
<title>1&#45;&gt;0</title>
<path fill="none" stroke="grey" stroke-width="2" d="M360.87,-71.15C377.36,-61.92 397.64,-50.56 415.06,-40.81"/>
<polygon fill="grey" stroke="grey" stroke-width="2" points="416.37,-44.09 423.38,-36.15 412.95,-37.98 416.37,-44.09"/>
</g>
<!-- 2 -->
<g id="node3" class="node">
<title>2</title>
<path fill="none" stroke="#56d863" stroke-width="2" d="M341.5,-180C341.5,-180 262.5,-180 262.5,-180 256.5,-180 250.5,-174 250.5,-168 250.5,-168 250.5,-156 250.5,-156 250.5,-150 256.5,-144 262.5,-144 262.5,-144 341.5,-144 341.5,-144 347.5,-144 353.5,-150 353.5,-156 353.5,-156 353.5,-168 353.5,-168 353.5,-174 347.5,-180 341.5,-180"/>
<text text-anchor="middle" x="302" y="-158.12" font-family="sans" font-size="10.00">preprocess_with_qc</text>
</g>
<!-- 2&#45;&gt;1 -->
<g id="edge4" class="edge">
<title>2&#45;&gt;1</title>
<path fill="none" stroke="grey" stroke-width="2" d="M308.81,-143.34C311.45,-136.51 314.54,-128.5 317.49,-120.83"/>
<polygon fill="grey" stroke="grey" stroke-width="2" points="320.67,-122.32 321.01,-111.73 314.14,-119.8 320.67,-122.32"/>
</g>
<!-- 3 -->
<g id="node4" class="node">
<title>3</title>
<path fill="none" stroke="#d87556" stroke-width="2" d="M611.12,-252C611.12,-252 550.88,-252 550.88,-252 544.88,-252 538.88,-246 538.88,-240 538.88,-240 538.88,-228 538.88,-228 538.88,-222 544.88,-216 550.88,-216 550.88,-216 611.12,-216 611.12,-216 617.12,-216 623.12,-222 623.12,-228 623.12,-228 623.12,-240 623.12,-240 623.12,-246 617.12,-252 611.12,-252"/>
<text text-anchor="middle" x="581" y="-230.12" font-family="sans" font-size="10.00">add_variant_ids</text>
</g>
<!-- 3&#45;&gt;0 -->
<g id="edge3" class="edge">
<title>3&#45;&gt;0</title>
<path fill="none" stroke="grey" stroke-width="2" d="M570.39,-215.12C548.45,-178.14 497.89,-92.96 471.21,-48"/>
<polygon fill="grey" stroke="grey" stroke-width="2" points="474.33,-46.39 466.21,-39.58 468.31,-49.97 474.33,-46.39"/>
</g>
<!-- 3&#45;&gt;2 -->
<g id="edge10" class="edge">
<title>3&#45;&gt;2</title>
<path fill="none" stroke="grey" stroke-width="2" d="M537.96,-218.34C535.27,-217.52 532.6,-216.74 530,-216 475.48,-200.61 412.73,-186.27 366.88,-176.39"/>
<polygon fill="grey" stroke="grey" stroke-width="2" points="367.89,-173.03 357.38,-174.36 366.43,-179.88 367.89,-173.03"/>
</g>
<!-- 4 -->
<g id="node5" class="node">
<title>4</title>
<path fill="none" stroke="#568ad8" stroke-width="2" d="M496.5,-324C496.5,-324 411.5,-324 411.5,-324 405.5,-324 399.5,-318 399.5,-312 399.5,-312 399.5,-300 399.5,-300 399.5,-294 405.5,-288 411.5,-288 411.5,-288 496.5,-288 496.5,-288 502.5,-288 508.5,-294 508.5,-300 508.5,-300 508.5,-312 508.5,-312 508.5,-318 502.5,-324 496.5,-324"/>
<text text-anchor="middle" x="454" y="-302.12" font-family="sans" font-size="10.00">concatenate_variants</text>
</g>
<!-- 4&#45;&gt;3 -->
<g id="edge14" class="edge">
<title>4&#45;&gt;3</title>
<path fill="none" stroke="grey" stroke-width="2" d="M486.38,-287.15C501.9,-278.6 520.72,-268.22 537.48,-258.99"/>
<polygon fill="grey" stroke="grey" stroke-width="2" points="538.96,-262.17 546.03,-254.27 535.58,-256.04 538.96,-262.17"/>
</g>
<!-- 12 -->
<g id="node13" class="node">
<title>12</title>
<path fill="none" stroke="#b6d856" stroke-width="2" d="M508.5,-252C508.5,-252 399.5,-252 399.5,-252 393.5,-252 387.5,-246 387.5,-240 387.5,-240 387.5,-228 387.5,-228 387.5,-222 393.5,-216 399.5,-216 399.5,-216 508.5,-216 508.5,-216 514.5,-216 520.5,-222 520.5,-228 520.5,-228 520.5,-240 520.5,-240 520.5,-246 514.5,-252 508.5,-252"/>
<text text-anchor="middle" x="454" y="-230.12" font-family="sans" font-size="10.00">create_parquet_variant_ids</text>
</g>
<!-- 4&#45;&gt;12 -->
<g id="edge23" class="edge">
<title>4&#45;&gt;12</title>
<path fill="none" stroke="grey" stroke-width="2" d="M454,-287.34C454,-280.75 454,-273.08 454,-265.67"/>
<polygon fill="grey" stroke="grey" stroke-width="2" points="457.5,-265.93 454,-255.93 450.5,-265.93 457.5,-265.93"/>
</g>
<!-- 5 -->
<g id="node6" class="node">
<title>5</title>
<path fill="none" stroke="#ced856" stroke-width="2" d="M467,-396C467,-396 437,-396 437,-396 431,-396 425,-390 425,-384 425,-384 425,-372 425,-372 425,-366 431,-360 437,-360 437,-360 467,-360 467,-360 473,-360 479,-366 479,-372 479,-372 479,-384 479,-384 479,-390 473,-396 467,-396"/>
<text text-anchor="middle" x="452" y="-374.12" font-family="sans" font-size="10.00">variants</text>
</g>
<!-- 5&#45;&gt;4 -->
<g id="edge15" class="edge">
<title>5&#45;&gt;4</title>
<path fill="none" stroke="grey" stroke-width="2" d="M452.5,-359.34C452.69,-352.75 452.91,-345.08 453.12,-337.67"/>
<polygon fill="grey" stroke="grey" stroke-width="2" points="456.61,-338.02 453.4,-327.93 449.62,-337.82 456.61,-338.02"/>
</g>
<!-- 6 -->
<g id="node7" class="node">
<title>6</title>
<path fill="none" stroke="#56d882" stroke-width="2" d="M243,-468C243,-468 209,-468 209,-468 203,-468 197,-462 197,-456 197,-456 197,-444 197,-444 197,-438 203,-432 209,-432 209,-432 243,-432 243,-432 249,-432 255,-438 255,-444 255,-444 255,-456 255,-456 255,-462 249,-468 243,-468"/>
<text text-anchor="middle" x="226" y="-446.12" font-family="sans" font-size="10.00">normalize</text>
</g>
<!-- 6&#45;&gt;5 -->
<g id="edge16" class="edge">
<title>6&#45;&gt;5</title>
<path fill="none" stroke="grey" stroke-width="2" d="M255.92,-442.15C291.22,-433.75 351.79,-418.3 412.24,-396.69"/>
<polygon fill="grey" stroke="grey" stroke-width="2" points="413.28,-400.04 421.47,-393.32 410.88,-393.46 413.28,-400.04"/>
</g>
<!-- 13 -->
<g id="node14" class="node">
<title>13</title>
<path fill="none" stroke="#56d8b9" stroke-width="2" d="M281,-324C281,-324 251,-324 251,-324 245,-324 239,-318 239,-312 239,-312 239,-300 239,-300 239,-294 245,-288 251,-288 251,-288 281,-288 281,-288 287,-288 293,-294 293,-300 293,-300 293,-312 293,-312 293,-318 287,-324 281,-324"/>
<text text-anchor="middle" x="266" y="-302.12" font-family="sans" font-size="10.00">sparsify</text>
</g>
<!-- 6&#45;&gt;13 -->
<g id="edge24" class="edge">
<title>6&#45;&gt;13</title>
<path fill="none" stroke="grey" stroke-width="2" d="M228.92,-431.05C232.09,-412.91 237.68,-384.2 245,-360 247.31,-352.35 250.26,-344.26 253.2,-336.76"/>
<polygon fill="grey" stroke="grey" stroke-width="2" points="256.36,-338.27 256.9,-327.69 249.88,-335.62 256.36,-338.27"/>
</g>
<!-- 14 -->
<g id="node15" class="node">
<title>14</title>
<path fill="none" stroke="#97d856" stroke-width="2" d="M209.12,-324C209.12,-324 166.88,-324 166.88,-324 160.88,-324 154.88,-318 154.88,-312 154.88,-312 154.88,-300 154.88,-300 154.88,-294 160.88,-288 166.88,-288 166.88,-288 209.12,-288 209.12,-288 215.12,-288 221.12,-294 221.12,-300 221.12,-300 221.12,-312 221.12,-312 221.12,-318 215.12,-324 209.12,-324"/>
<text text-anchor="middle" x="188" y="-302.12" font-family="sans" font-size="10.00">qc_varmiss</text>
</g>
<!-- 6&#45;&gt;14 -->
<g id="edge25" class="edge">
<title>6&#45;&gt;14</title>
<path fill="none" stroke="grey" stroke-width="2" d="M221.19,-431.02C214.88,-407.44 203.72,-365.73 196.1,-337.25"/>
<polygon fill="grey" stroke="grey" stroke-width="2" points="199.52,-336.52 193.56,-327.76 192.76,-338.33 199.52,-336.52"/>
</g>
<!-- 15 -->
<g id="node16" class="node">
<title>15</title>
<path fill="none" stroke="#61d856" stroke-width="2" d="M394,-396C394,-396 364,-396 364,-396 358,-396 352,-390 352,-384 352,-384 352,-372 352,-372 352,-366 358,-360 364,-360 364,-360 394,-360 394,-360 400,-360 406,-366 406,-372 406,-372 406,-384 406,-384 406,-390 400,-396 394,-396"/>
<text text-anchor="middle" x="379" y="-374.12" font-family="sans" font-size="10.00">qc_hwe</text>
</g>
<!-- 6&#45;&gt;15 -->
<g id="edge26" class="edge">
<title>6&#45;&gt;15</title>
<path fill="none" stroke="grey" stroke-width="2" d="M255.87,-435.62C277.05,-426.11 306.41,-412.85 339.33,-397.67"/>
<polygon fill="grey" stroke="grey" stroke-width="2" points="340.76,-400.86 348.36,-393.49 337.82,-394.51 340.76,-400.86"/>
</g>
<!-- 16 -->
<g id="node17" class="node">
<title>16</title>
<path fill="none" stroke="#56a9d8" stroke-width="2" d="M321.88,-396C321.88,-396 266.12,-396 266.12,-396 260.12,-396 254.12,-390 254.12,-384 254.12,-384 254.12,-372 254.12,-372 254.12,-366 260.12,-360 266.12,-360 266.12,-360 321.88,-360 321.88,-360 327.88,-360 333.88,-366 333.88,-372 333.88,-372 333.88,-384 333.88,-384 333.88,-390 327.88,-396 321.88,-396"/>
<text text-anchor="middle" x="294" y="-374.12" font-family="sans" font-size="10.00">qc_read_depth</text>
</g>
<!-- 6&#45;&gt;16 -->
<g id="edge27" class="edge">
<title>6&#45;&gt;16</title>
<path fill="none" stroke="grey" stroke-width="2" d="M243.16,-431.34C250.59,-423.69 259.46,-414.56 267.69,-406.08"/>
<polygon fill="grey" stroke="grey" stroke-width="2" points="270.04,-408.68 274.5,-399.07 265.02,-403.81 270.04,-408.68"/>
</g>
<!-- 17 -->
<g id="node18" class="node">
<title>17</title>
<path fill="none" stroke="#d8ac56" stroke-width="2" d="M125,-324C125,-324 43,-324 43,-324 37,-324 31,-318 31,-312 31,-312 31,-300 31,-300 31,-294 37,-288 43,-288 43,-288 125,-288 125,-288 131,-288 137,-294 137,-300 137,-300 137,-312 137,-312 137,-318 131,-324 125,-324"/>
<text text-anchor="middle" x="84" y="-302.12" font-family="sans" font-size="10.00">qc_allelic_imbalance</text>
</g>
<!-- 6&#45;&gt;17 -->
<g id="edge28" class="edge">
<title>6&#45;&gt;17</title>
<path fill="none" stroke="grey" stroke-width="2" d="M208.02,-431.02C183.48,-406.48 139.3,-362.3 110.84,-333.84"/>
<polygon fill="grey" stroke="grey" stroke-width="2" points="113.52,-331.58 103.98,-326.98 108.58,-336.52 113.52,-331.58"/>
</g>
<!-- 7 -->
<g id="node8" class="node">
<title>7</title>
<path fill="none" stroke="#80d856" stroke-width="2" d="M76,-540C76,-540 12,-540 12,-540 6,-540 0,-534 0,-528 0,-528 0,-516 0,-516 0,-510 6,-504 12,-504 12,-504 76,-504 76,-504 82,-504 88,-510 88,-516 88,-516 88,-528 88,-528 88,-534 82,-540 76,-540"/>
<text text-anchor="middle" x="44" y="-518.12" font-family="sans" font-size="10.00">extract_samples</text>
</g>
<!-- 7&#45;&gt;2 -->
<g id="edge13" class="edge">
<title>7&#45;&gt;2</title>
<path fill="none" stroke="grey" stroke-width="2" d="M35.3,-503.1C23.27,-476.63 3,-425.19 3,-379 3,-379 3,-379 3,-305 3,-264.36 -5.35,-244.11 24,-216 53.88,-187.39 164.73,-173.49 237.11,-167.32"/>
<polygon fill="grey" stroke="grey" stroke-width="2" points="237,-170.84 246.68,-166.54 236.43,-163.86 237,-170.84"/>
</g>
<!-- 7&#45;&gt;6 -->
<g id="edge19" class="edge">
<title>7&#45;&gt;6</title>
<path fill="none" stroke="grey" stroke-width="2" d="M88.99,-503.7C118.06,-492.52 155.62,-478.07 184.07,-467.13"/>
<polygon fill="grey" stroke="grey" stroke-width="2" points="185.13,-470.47 193.21,-463.61 182.62,-463.93 185.13,-470.47"/>
</g>
<!-- 8 -->
<g id="node9" class="node">
<title>8</title>
<path fill="none" stroke="#56d8d0" stroke-width="2" d="M212.12,-612C212.12,-612 169.88,-612 169.88,-612 163.88,-612 157.88,-606 157.88,-600 157.88,-600 157.88,-588 157.88,-588 157.88,-582 163.88,-576 169.88,-576 169.88,-576 212.12,-576 212.12,-576 218.12,-576 224.12,-582 224.12,-588 224.12,-588 224.12,-600 224.12,-600 224.12,-606 218.12,-612 212.12,-612"/>
<text text-anchor="middle" x="191" y="-590.12" font-family="sans" font-size="10.00">index_fasta</text>
</g>
<!-- 8&#45;&gt;6 -->
<g id="edge17" class="edge">
<title>8&#45;&gt;6</title>
<path fill="none" stroke="grey" stroke-width="2" d="M194.36,-575.17C197.86,-557.13 203.7,-528.48 210,-504 211.94,-496.46 214.25,-488.39 216.51,-480.87"/>
<polygon fill="grey" stroke="grey" stroke-width="2" points="219.81,-482.04 219.41,-471.46 213.12,-479.98 219.81,-482.04"/>
</g>
<!-- 9 -->
<g id="node10" class="node">
<title>9</title>
<path fill="none" stroke="#5673d8" stroke-width="2" d="M291.12,-540C291.12,-540 230.88,-540 230.88,-540 224.88,-540 218.88,-534 218.88,-528 218.88,-528 218.88,-516 218.88,-516 218.88,-510 224.88,-504 230.88,-504 230.88,-504 291.12,-504 291.12,-504 297.12,-504 303.12,-510 303.12,-516 303.12,-516 303.12,-528 303.12,-528 303.12,-534 297.12,-540 291.12,-540"/>
<text text-anchor="middle" x="261" y="-518.12" font-family="sans" font-size="10.00">expand_regions</text>
</g>
<!-- 8&#45;&gt;9 -->
<g id="edge21" class="edge">
<title>8&#45;&gt;9</title>
<path fill="none" stroke="grey" stroke-width="2" d="M208.66,-575.34C216.31,-567.69 225.44,-558.56 233.92,-550.08"/>
<polygon fill="grey" stroke="grey" stroke-width="2" points="236.36,-552.59 240.96,-543.04 231.41,-547.64 236.36,-552.59"/>
</g>
<!-- 9&#45;&gt;6 -->
<g id="edge18" class="edge">
<title>9&#45;&gt;6</title>
<path fill="none" stroke="grey" stroke-width="2" d="M252.17,-503.34C248.67,-496.34 244.56,-488.12 240.64,-480.28"/>
<polygon fill="grey" stroke="grey" stroke-width="2" points="243.91,-478.99 236.3,-471.61 237.65,-482.12 243.91,-478.99"/>
</g>
<!-- 10 -->
<g id="node11" class="node">
<title>10</title>
<path fill="none" stroke="#d88d56" stroke-width="2" d="M294,-612C294,-612 254,-612 254,-612 248,-612 242,-606 242,-600 242,-600 242,-588 242,-588 242,-582 248,-576 254,-576 254,-576 294,-576 294,-576 300,-576 306,-582 306,-588 306,-588 306,-600 306,-600 306,-606 300,-612 294,-612"/>
<text text-anchor="middle" x="274" y="-590.12" font-family="sans" font-size="10.00">create_bed</text>
</g>
<!-- 10&#45;&gt;9 -->
<g id="edge20" class="edge">
<title>10&#45;&gt;9</title>
<path fill="none" stroke="grey" stroke-width="2" d="M270.72,-575.34C269.5,-568.75 268.07,-561.08 266.7,-553.67"/>
<polygon fill="grey" stroke="grey" stroke-width="2" points="270.14,-553.07 264.88,-543.88 263.26,-554.35 270.14,-553.07"/>
</g>
<!-- 11 -->
<g id="node12" class="node">
<title>11</title>
<path fill="none" stroke="#56d89a" stroke-width="2" d="M289,-684C289,-684 259,-684 259,-684 253,-684 247,-678 247,-672 247,-672 247,-660 247,-660 247,-654 253,-648 259,-648 259,-648 289,-648 289,-648 295,-648 301,-654 301,-660 301,-660 301,-672 301,-672 301,-678 295,-684 289,-684"/>
<text text-anchor="middle" x="274" y="-662.12" font-family="sans" font-size="10.00">fiter_gtf</text>
</g>
<!-- 11&#45;&gt;10 -->
<g id="edge22" class="edge">
<title>11&#45;&gt;10</title>
<path fill="none" stroke="grey" stroke-width="2" d="M274,-647.34C274,-640.75 274,-633.08 274,-625.67"/>
<polygon fill="grey" stroke="grey" stroke-width="2" points="277.5,-625.93 274,-615.93 270.5,-625.93 277.5,-625.93"/>
</g>
<!-- 12&#45;&gt;0 -->
<g id="edge1" class="edge">
<title>12&#45;&gt;0</title>
<path fill="none" stroke="grey" stroke-width="2" d="M454,-215.12C454,-178.62 454,-95.13 454,-49.74"/>
<polygon fill="grey" stroke="grey" stroke-width="2" points="457.5,-50 454,-40 450.5,-50 457.5,-50"/>
</g>
<!-- 12&#45;&gt;2 -->
<g id="edge11" class="edge">
<title>12&#45;&gt;2</title>
<path fill="none" stroke="grey" stroke-width="2" d="M415.25,-215.15C396.21,-206.38 373.02,-195.71 352.6,-186.3"/>
<polygon fill="grey" stroke="grey" stroke-width="2" points="354.24,-183.2 343.69,-182.2 351.31,-189.56 354.24,-183.2"/>
</g>
<!-- 13&#45;&gt;2 -->
<g id="edge9" class="edge">
<title>13&#45;&gt;2</title>
<path fill="none" stroke="grey" stroke-width="2" d="M270.56,-287.02C276.54,-263.44 287.11,-221.73 294.33,-193.25"/>
<polygon fill="grey" stroke="grey" stroke-width="2" points="297.67,-194.33 296.73,-183.77 290.88,-192.61 297.67,-194.33"/>
</g>
<!-- 14&#45;&gt;2 -->
<g id="edge12" class="edge">
<title>14&#45;&gt;2</title>
<path fill="none" stroke="grey" stroke-width="2" d="M202.44,-287.02C221.88,-262.8 256.68,-219.45 279.55,-190.96"/>
<polygon fill="grey" stroke="grey" stroke-width="2" points="282.25,-193.19 285.78,-183.2 276.79,-188.81 282.25,-193.19"/>
</g>
<!-- 15&#45;&gt;2 -->
<g id="edge5" class="edge">
<title>15&#45;&gt;2</title>
<path fill="none" stroke="grey" stroke-width="2" d="M372.57,-359.12C359.38,-322.46 329.13,-238.41 312.85,-193.16"/>
<polygon fill="grey" stroke="grey" stroke-width="2" points="316.17,-192.05 309.49,-183.83 309.59,-194.42 316.17,-192.05"/>
</g>
<!-- 16&#45;&gt;2 -->
<g id="edge7" class="edge">
<title>16&#45;&gt;2</title>
<path fill="none" stroke="grey" stroke-width="2" d="M297.33,-359.41C299.11,-349.13 301.11,-335.88 302,-324 305.39,-278.84 304.49,-226.35 303.37,-193.9"/>
<polygon fill="grey" stroke="grey" stroke-width="2" points="306.87,-193.78 302.99,-183.93 299.87,-194.05 306.87,-193.78"/>
</g>
<!-- 17&#45;&gt;2 -->
<g id="edge6" class="edge">
<title>17&#45;&gt;2</title>
<path fill="none" stroke="grey" stroke-width="2" d="M124.42,-287.05C143.97,-277.66 167.39,-265.36 187,-252 207.04,-238.35 209.01,-231.08 228,-216 239.84,-206.6 253.17,-196.82 265.23,-188.26"/>
<polygon fill="grey" stroke="grey" stroke-width="2" points="267.21,-191.14 273.38,-182.52 263.18,-185.41 267.21,-191.14"/>
</g>
<!-- 18 -->
<g id="node19" class="node">
<title>18</title>
<path fill="none" stroke="#d85656" stroke-width="2" d="M166.5,-252C166.5,-252 45.5,-252 45.5,-252 39.5,-252 33.5,-246 33.5,-240 33.5,-240 33.5,-228 33.5,-228 33.5,-222 39.5,-216 45.5,-216 45.5,-216 166.5,-216 166.5,-216 172.5,-216 178.5,-222 178.5,-228 178.5,-228 178.5,-240 178.5,-240 178.5,-246 172.5,-252 166.5,-252"/>
<text text-anchor="middle" x="106" y="-230.12" font-family="sans" font-size="10.00">create_excluded_samples_dir</text>
</g>
<!-- 18&#45;&gt;2 -->
<g id="edge8" class="edge">
<title>18&#45;&gt;2</title>
<path fill="none" stroke="grey" stroke-width="2" d="M156.22,-215.06C181.7,-205.97 212.87,-194.83 239.85,-185.2"/>
<polygon fill="grey" stroke="grey" stroke-width="2" points="240.82,-188.57 249.06,-181.91 238.46,-181.97 240.82,-188.57"/>
</g>
</g>
</svg>
