<?xml version="1.0" encoding="UTF-8" standalone="no"?>
<!DOCTYPE svg PUBLIC "-//W3C//DTD SVG 1.1//EN"
 "http://www.w3.org/Graphics/SVG/1.1/DTD/svg11.dtd">
<!-- Generated by graphviz version 9.0.0 (20230911.1827)
 -->
<!-- Title: snakemake_dag Pages: 1 -->
<svg width="362pt" height="620pt"
 viewBox="0.00 0.00 362.12 620.00" xmlns="http://www.w3.org/2000/svg" xmlns:xlink="http://www.w3.org/1999/xlink">
<g id="graph0" class="graph" transform="scale(1 1) rotate(0) translate(4 616)">
<title>snakemake_dag</title>
<polygon fill="white" stroke="none" points="-4,4 -4,-616 358.12,-616 358.12,4 -4,4"/>
<!-- 0 -->
<g id="node1" class="node">
<title>0</title>
<path fill="none" stroke="#56d8d8" stroke-width="2" d="M222,-36C222,-36 192,-36 192,-36 186,-36 180,-30 180,-24 180,-24 180,-12 180,-12 180,-6 186,0 192,0 192,0 222,0 222,0 228,0 234,-6 234,-12 234,-12 234,-24 234,-24 234,-30 228,-36 222,-36"/>
<text text-anchor="middle" x="207" y="-14.12" font-family="sans" font-size="10.00">all</text>
</g>
<!-- 1 -->
<g id="node2" class="node">
<title>1</title>
<path fill="none" stroke="#d85656" stroke-width="2" d="M166.5,-108C166.5,-108 87.5,-108 87.5,-108 81.5,-108 75.5,-102 75.5,-96 75.5,-96 75.5,-84 75.5,-84 75.5,-78 81.5,-72 87.5,-72 87.5,-72 166.5,-72 166.5,-72 172.5,-72 178.5,-78 178.5,-84 178.5,-84 178.5,-96 178.5,-96 178.5,-102 172.5,-108 166.5,-108"/>
<text text-anchor="middle" x="127" y="-86.12" font-family="sans" font-size="10.00">combine_genotypes</text>
</g>
<!-- 1&#45;&gt;0 -->
<g id="edge2" class="edge">
<title>1&#45;&gt;0</title>
<path fill="none" stroke="grey" stroke-width="2" d="M147.19,-71.34C156.21,-63.44 167.04,-53.96 176.99,-45.26"/>
<polygon fill="grey" stroke="grey" stroke-width="2" points="179.04,-48.11 184.26,-38.9 174.43,-42.85 179.04,-48.11"/>
</g>
<!-- 2 -->
<g id="node3" class="node">
<title>2</title>
<path fill="none" stroke="#afd856" stroke-width="2" d="M162.75,-180C162.75,-180 91.25,-180 91.25,-180 85.25,-180 79.25,-174 79.25,-168 79.25,-168 79.25,-156 79.25,-156 79.25,-150 85.25,-144 91.25,-144 91.25,-144 162.75,-144 162.75,-144 168.75,-144 174.75,-150 174.75,-156 174.75,-156 174.75,-168 174.75,-168 174.75,-174 168.75,-180 162.75,-180"/>
<text text-anchor="middle" x="127" y="-158.12" font-family="sans" font-size="10.00">preprocess_no_qc</text>
</g>
<!-- 2&#45;&gt;1 -->
<g id="edge4" class="edge">
<title>2&#45;&gt;1</title>
<path fill="none" stroke="grey" stroke-width="2" d="M127,-143.34C127,-136.75 127,-129.08 127,-121.67"/>
<polygon fill="grey" stroke="grey" stroke-width="2" points="130.5,-121.93 127,-111.93 123.5,-121.93 130.5,-121.93"/>
</g>
<!-- 3 -->
<g id="node4" class="node">
<title>3</title>
<path fill="none" stroke="#d8ac56" stroke-width="2" d="M342.12,-252C342.12,-252 281.88,-252 281.88,-252 275.88,-252 269.88,-246 269.88,-240 269.88,-240 269.88,-228 269.88,-228 269.88,-222 275.88,-216 281.88,-216 281.88,-216 342.12,-216 342.12,-216 348.12,-216 354.12,-222 354.12,-228 354.12,-228 354.12,-240 354.12,-240 354.12,-246 348.12,-252 342.12,-252"/>
<text text-anchor="middle" x="312" y="-230.12" font-family="sans" font-size="10.00">add_variant_ids</text>
</g>
<!-- 3&#45;&gt;0 -->
<g id="edge3" class="edge">
<title>3&#45;&gt;0</title>
<path fill="none" stroke="grey" stroke-width="2" d="M303.23,-215.12C285.16,-178.3 243.65,-93.69 221.51,-48.58"/>
<polygon fill="grey" stroke="grey" stroke-width="2" points="224.7,-47.13 217.15,-39.69 218.42,-50.21 224.7,-47.13"/>
</g>
<!-- 3&#45;&gt;2 -->
<g id="edge7" class="edge">
<title>3&#45;&gt;2</title>
<path fill="none" stroke="grey" stroke-width="2" d="M269.09,-216.76C244.56,-207.48 213.43,-195.7 186.56,-185.54"/>
<polygon fill="grey" stroke="grey" stroke-width="2" points="187.97,-182.33 177.38,-182.06 185.5,-188.88 187.97,-182.33"/>
</g>
<!-- 4 -->
<g id="node5" class="node">
<title>4</title>
<path fill="none" stroke="#59d856" stroke-width="2" d="M241.5,-324C241.5,-324 156.5,-324 156.5,-324 150.5,-324 144.5,-318 144.5,-312 144.5,-312 144.5,-300 144.5,-300 144.5,-294 150.5,-288 156.5,-288 156.5,-288 241.5,-288 241.5,-288 247.5,-288 253.5,-294 253.5,-300 253.5,-300 253.5,-312 253.5,-312 253.5,-318 247.5,-324 241.5,-324"/>
<text text-anchor="middle" x="199" y="-302.12" font-family="sans" font-size="10.00">concatenate_variants</text>
</g>
<!-- 4&#45;&gt;3 -->
<g id="edge9" class="edge">
<title>4&#45;&gt;3</title>
<path fill="none" stroke="grey" stroke-width="2" d="M227.81,-287.15C241.35,-278.76 257.72,-268.62 272.41,-259.52"/>
<polygon fill="grey" stroke="grey" stroke-width="2" points="274.01,-262.65 280.67,-254.41 270.33,-256.7 274.01,-262.65"/>
</g>
<!-- 10 -->
<g id="node11" class="node">
<title>10</title>
<path fill="none" stroke="#d6d856" stroke-width="2" d="M239.5,-252C239.5,-252 130.5,-252 130.5,-252 124.5,-252 118.5,-246 118.5,-240 118.5,-240 118.5,-228 118.5,-228 118.5,-222 124.5,-216 130.5,-216 130.5,-216 239.5,-216 239.5,-216 245.5,-216 251.5,-222 251.5,-228 251.5,-228 251.5,-240 251.5,-240 251.5,-246 245.5,-252 239.5,-252"/>
<text text-anchor="middle" x="185" y="-230.12" font-family="sans" font-size="10.00">create_parquet_variant_ids</text>
</g>
<!-- 4&#45;&gt;10 -->
<g id="edge16" class="edge">
<title>4&#45;&gt;10</title>
<path fill="none" stroke="grey" stroke-width="2" d="M195.47,-287.34C194.15,-280.75 192.62,-273.08 191.13,-265.67"/>
<polygon fill="grey" stroke="grey" stroke-width="2" points="194.57,-264.99 189.17,-255.87 187.7,-266.36 194.57,-264.99"/>
</g>
<!-- 5 -->
<g id="node6" class="node">
<title>5</title>
<path fill="none" stroke="#80d856" stroke-width="2" d="M199,-396C199,-396 169,-396 169,-396 163,-396 157,-390 157,-384 157,-384 157,-372 157,-372 157,-366 163,-360 169,-360 169,-360 199,-360 199,-360 205,-360 211,-366 211,-372 211,-372 211,-384 211,-384 211,-390 205,-396 199,-396"/>
<text text-anchor="middle" x="184" y="-374.12" font-family="sans" font-size="10.00">variants</text>
</g>
<!-- 5&#45;&gt;4 -->
<g id="edge10" class="edge">
<title>5&#45;&gt;4</title>
<path fill="none" stroke="grey" stroke-width="2" d="M187.79,-359.34C189.21,-352.67 190.88,-344.89 192.49,-337.39"/>
<polygon fill="grey" stroke="grey" stroke-width="2" points="195.86,-338.37 194.53,-327.86 189.01,-336.91 195.86,-338.37"/>
</g>
<!-- 6 -->
<g id="node7" class="node">
<title>6</title>
<path fill="none" stroke="#56a9d8" stroke-width="2" d="M133,-468C133,-468 99,-468 99,-468 93,-468 87,-462 87,-456 87,-456 87,-444 87,-444 87,-438 93,-432 99,-432 99,-432 133,-432 133,-432 139,-432 145,-438 145,-444 145,-444 145,-456 145,-456 145,-462 139,-468 133,-468"/>
<text text-anchor="middle" x="116" y="-446.12" font-family="sans" font-size="10.00">normalize</text>
</g>
<!-- 6&#45;&gt;5 -->
<g id="edge11" class="edge">
<title>6&#45;&gt;5</title>
<path fill="none" stroke="grey" stroke-width="2" d="M133.16,-431.34C140.59,-423.69 149.46,-414.56 157.69,-406.08"/>
<polygon fill="grey" stroke="grey" stroke-width="2" points="160.04,-408.68 164.5,-399.07 155.02,-403.81 160.04,-408.68"/>
</g>
<!-- 11 -->
<g id="node12" class="node">
<title>11</title>
<path fill="none" stroke="#56d8a9" stroke-width="2" d="M114,-324C114,-324 84,-324 84,-324 78,-324 72,-318 72,-312 72,-312 72,-300 72,-300 72,-294 78,-288 84,-288 84,-288 114,-288 114,-288 120,-288 126,-294 126,-300 126,-300 126,-312 126,-312 126,-318 120,-324 114,-324"/>
<text text-anchor="middle" x="99" y="-302.12" font-family="sans" font-size="10.00">sparsify</text>
</g>
<!-- 6&#45;&gt;11 -->
<g id="edge17" class="edge">
<title>6&#45;&gt;11</title>
<path fill="none" stroke="grey" stroke-width="2" d="M113.85,-431.02C111.04,-407.54 106.08,-366.11 102.67,-337.64"/>
<polygon fill="grey" stroke="grey" stroke-width="2" points="106.16,-337.36 101.5,-327.84 99.21,-338.19 106.16,-337.36"/>
</g>
<!-- 7 -->
<g id="node8" class="node">
<title>7</title>
<path fill="none" stroke="#5682d8" stroke-width="2" d="M76,-540C76,-540 12,-540 12,-540 6,-540 0,-534 0,-528 0,-528 0,-516 0,-516 0,-510 6,-504 12,-504 12,-504 76,-504 76,-504 82,-504 88,-510 88,-516 88,-516 88,-528 88,-528 88,-534 82,-540 76,-540"/>
<text text-anchor="middle" x="44" y="-518.12" font-family="sans" font-size="10.00">extract_samples</text>
</g>
<!-- 7&#45;&gt;2 -->
<g id="edge8" class="edge">
<title>7&#45;&gt;2</title>
<path fill="none" stroke="grey" stroke-width="2" d="M44,-503.07C44,-476.13 44,-423.62 44,-379 44,-379 44,-379 44,-305 44,-260.18 75.2,-216.95 99.34,-190.2"/>
<polygon fill="grey" stroke="grey" stroke-width="2" points="101.81,-192.68 106.1,-182.99 96.7,-187.89 101.81,-192.68"/>
</g>
<!-- 7&#45;&gt;6 -->
<g id="edge13" class="edge">
<title>7&#45;&gt;6</title>
<path fill="none" stroke="grey" stroke-width="2" d="M62.17,-503.34C70.12,-495.6 79.63,-486.36 88.43,-477.81"/>
<polygon fill="grey" stroke="grey" stroke-width="2" points="90.69,-480.49 95.42,-471.01 85.81,-475.47 90.69,-480.49"/>
</g>
<!-- 8 -->
<g id="node9" class="node">
<title>8</title>
<path fill="none" stroke="#56d882" stroke-width="2" d="M178,-612C178,-612 114,-612 114,-612 108,-612 102,-606 102,-600 102,-600 102,-588 102,-588 102,-582 108,-576 114,-576 114,-576 178,-576 178,-576 184,-576 190,-582 190,-588 190,-588 190,-600 190,-600 190,-606 184,-612 178,-612"/>
<text text-anchor="middle" x="146" y="-590.12" font-family="sans" font-size="10.00">uppercase_fasta</text>
</g>
<!-- 8&#45;&gt;6 -->
<g id="edge14" class="edge">
<title>8&#45;&gt;6</title>
<path fill="none" stroke="grey" stroke-width="2" d="M142.2,-575.02C137.22,-551.44 128.41,-509.73 122.39,-481.25"/>
<polygon fill="grey" stroke="grey" stroke-width="2" points="125.89,-480.86 120.39,-471.8 119.04,-482.31 125.89,-480.86"/>
</g>
<!-- 9 -->
<g id="node10" class="node">
<title>9</title>
<path fill="none" stroke="#d88556" stroke-width="2" d="M198.12,-540C198.12,-540 155.88,-540 155.88,-540 149.88,-540 143.88,-534 143.88,-528 143.88,-528 143.88,-516 143.88,-516 143.88,-510 149.88,-504 155.88,-504 155.88,-504 198.12,-504 198.12,-504 204.12,-504 210.12,-510 210.12,-516 210.12,-516 210.12,-528 210.12,-528 210.12,-534 204.12,-540 198.12,-540"/>
<text text-anchor="middle" x="177" y="-518.12" font-family="sans" font-size="10.00">index_fasta</text>
</g>
<!-- 8&#45;&gt;9 -->
<g id="edge15" class="edge">
<title>8&#45;&gt;9</title>
<path fill="none" stroke="grey" stroke-width="2" d="M153.82,-575.34C156.88,-568.43 160.48,-560.31 163.91,-552.56"/>
<polygon fill="grey" stroke="grey" stroke-width="2" points="167,-554.23 167.85,-543.67 160.6,-551.4 167,-554.23"/>
</g>
<!-- 9&#45;&gt;6 -->
<g id="edge12" class="edge">
<title>9&#45;&gt;6</title>
<path fill="none" stroke="grey" stroke-width="2" d="M161.61,-503.34C155.08,-495.85 147.33,-486.95 140.08,-478.63"/>
<polygon fill="grey" stroke="grey" stroke-width="2" points="142.8,-476.42 133.59,-471.18 137.52,-481.02 142.8,-476.42"/>
</g>
<!-- 10&#45;&gt;0 -->
<g id="edge1" class="edge">
<title>10&#45;&gt;0</title>
<path fill="none" stroke="grey" stroke-width="2" d="M186.84,-215.12C190.59,-178.62 199.17,-95.13 203.84,-49.74"/>
<polygon fill="grey" stroke="grey" stroke-width="2" points="207.3,-50.29 204.84,-39.99 200.34,-49.58 207.3,-50.29"/>
</g>
<!-- 10&#45;&gt;2 -->
<g id="edge6" class="edge">
<title>10&#45;&gt;2</title>
<path fill="none" stroke="grey" stroke-width="2" d="M170.36,-215.34C164.23,-207.93 156.95,-199.14 150.12,-190.9"/>
<polygon fill="grey" stroke="grey" stroke-width="2" points="152.84,-188.7 143.76,-183.23 147.45,-193.17 152.84,-188.7"/>
</g>
<!-- 11&#45;&gt;2 -->
<g id="edge5" class="edge">
<title>11&#45;&gt;2</title>
<path fill="none" stroke="grey" stroke-width="2" d="M100.22,-287.1C101.69,-269.01 104.64,-240.33 110,-216 111.66,-208.48 113.93,-200.5 116.28,-193.08"/>
<polygon fill="grey" stroke="grey" stroke-width="2" points="119.53,-194.39 119.37,-183.79 112.89,-192.17 119.53,-194.39"/>
</g>
</g>
</svg>
